G04*
G04 #@! TF.GenerationSoftware,Altium Limited,Altium Designer,25.8.1 (18)*
G04*
G04 Layer_Color=8421504*
%FSLAX44Y44*%
%MOMM*%
G71*
G04*
G04 #@! TF.SameCoordinates,2120D8EF-05CC-4178-8A97-661A8360891B*
G04*
G04*
G04 #@! TF.FilePolarity,Positive*
G04*
G01*
G75*
%ADD12R,0.9799X0.9799*%
%ADD13R,1.2143X1.2143*%
%ADD14R,0.7154X0.6725*%
%ADD15R,1.0191X0.2622*%
G04:AMPARAMS|DCode=16|XSize=1.0191mm|YSize=0.2622mm|CornerRadius=0.1311mm|HoleSize=0mm|Usage=FLASHONLY|Rotation=0.000|XOffset=0mm|YOffset=0mm|HoleType=Round|Shape=RoundedRectangle|*
%AMROUNDEDRECTD16*
21,1,1.0191,0.0000,0,0,0.0*
21,1,0.7569,0.2622,0,0,0.0*
1,1,0.2622,0.3785,0.0000*
1,1,0.2622,-0.3785,0.0000*
1,1,0.2622,-0.3785,0.0000*
1,1,0.2622,0.3785,0.0000*
%
%ADD16ROUNDEDRECTD16*%
G04:AMPARAMS|DCode=17|XSize=0.2622mm|YSize=1.0191mm|CornerRadius=0.1311mm|HoleSize=0mm|Usage=FLASHONLY|Rotation=0.000|XOffset=0mm|YOffset=0mm|HoleType=Round|Shape=RoundedRectangle|*
%AMROUNDEDRECTD17*
21,1,0.2622,0.7569,0,0,0.0*
21,1,0.0000,1.0191,0,0,0.0*
1,1,0.2622,0.0000,-0.3785*
1,1,0.2622,0.0000,-0.3785*
1,1,0.2622,0.0000,0.3785*
1,1,0.2622,0.0000,0.3785*
%
%ADD17ROUNDEDRECTD17*%
%ADD18R,0.6600X0.3600*%
%ADD19R,4.8000X2.0000*%
G04:AMPARAMS|DCode=20|XSize=0.8461mm|YSize=0.2425mm|CornerRadius=0.1212mm|HoleSize=0mm|Usage=FLASHONLY|Rotation=270.000|XOffset=0mm|YOffset=0mm|HoleType=Round|Shape=RoundedRectangle|*
%AMROUNDEDRECTD20*
21,1,0.8461,0.0000,0,0,270.0*
21,1,0.6036,0.2425,0,0,270.0*
1,1,0.2425,0.0000,-0.3018*
1,1,0.2425,0.0000,0.3018*
1,1,0.2425,0.0000,0.3018*
1,1,0.2425,0.0000,-0.3018*
%
%ADD20ROUNDEDRECTD20*%
G04:AMPARAMS|DCode=21|XSize=0.2425mm|YSize=0.8461mm|CornerRadius=0.1212mm|HoleSize=0mm|Usage=FLASHONLY|Rotation=270.000|XOffset=0mm|YOffset=0mm|HoleType=Round|Shape=RoundedRectangle|*
%AMROUNDEDRECTD21*
21,1,0.2425,0.6036,0,0,270.0*
21,1,0.0000,0.8461,0,0,270.0*
1,1,0.2425,-0.3018,0.0000*
1,1,0.2425,-0.3018,0.0000*
1,1,0.2425,0.3018,0.0000*
1,1,0.2425,0.3018,0.0000*
%
%ADD21ROUNDEDRECTD21*%
%ADD22R,1.9000X0.7000*%
%ADD23R,0.2425X0.8461*%
D12*
X144203Y282507D02*
D03*
X144192Y499866D02*
D03*
X144278Y717470D02*
D03*
X317506Y717352D02*
D03*
Y499928D02*
D03*
Y282504D02*
D03*
D13*
X635000Y500000D02*
D03*
D14*
X688634Y502496D02*
D03*
X698206D02*
D03*
X250992Y282507D02*
D03*
X185360Y751595D02*
D03*
Y777645D02*
D03*
X185360Y542173D02*
D03*
X357805Y796774D02*
D03*
X600416Y533884D02*
D03*
X357378Y767818D02*
D03*
Y562332D02*
D03*
Y533630D02*
D03*
X600416Y549378D02*
D03*
X357632Y314174D02*
D03*
Y341860D02*
D03*
X772536Y582906D02*
D03*
X185360Y344344D02*
D03*
Y322436D02*
D03*
X185360Y564369D02*
D03*
X250992Y500000D02*
D03*
Y717500D02*
D03*
X260564D02*
D03*
X417749Y499848D02*
D03*
X417576Y282678D02*
D03*
X175789Y322436D02*
D03*
Y344344D02*
D03*
X260564Y282507D02*
D03*
X175789Y564369D02*
D03*
X175789Y751595D02*
D03*
Y777645D02*
D03*
X260564Y500000D02*
D03*
X175789Y542173D02*
D03*
X348234Y796774D02*
D03*
X762964Y582906D02*
D03*
X408005Y717526D02*
D03*
X417576D02*
D03*
X720050Y582906D02*
D03*
X710478D02*
D03*
X590844Y533884D02*
D03*
X347807Y767818D02*
D03*
Y562332D02*
D03*
Y533630D02*
D03*
X408178Y499848D02*
D03*
X590844Y549378D02*
D03*
X408005Y282678D02*
D03*
X348061Y314174D02*
D03*
Y341860D02*
D03*
D15*
X129731Y287507D02*
D03*
X129805Y722470D02*
D03*
X129720Y504866D02*
D03*
X303033Y504928D02*
D03*
Y287504D02*
D03*
Y722352D02*
D03*
D16*
X129731Y282507D02*
D03*
Y277507D02*
D03*
X158675D02*
D03*
Y282507D02*
D03*
Y287507D02*
D03*
X158750Y722470D02*
D03*
Y712470D02*
D03*
X129805D02*
D03*
X158664Y504866D02*
D03*
Y494866D02*
D03*
X129720D02*
D03*
X303033Y494928D02*
D03*
X331978D02*
D03*
Y504928D02*
D03*
X303033Y277504D02*
D03*
X331978D02*
D03*
Y287504D02*
D03*
X303033Y712352D02*
D03*
X331978D02*
D03*
Y722352D02*
D03*
X129720Y499866D02*
D03*
X158664D02*
D03*
X158750Y717470D02*
D03*
X303033Y717352D02*
D03*
X129805Y717470D02*
D03*
X331978Y717352D02*
D03*
X303033Y499928D02*
D03*
X331978D02*
D03*
Y282504D02*
D03*
X303033D02*
D03*
D17*
X139203Y268035D02*
D03*
X144203D02*
D03*
X149203D02*
D03*
Y296980D02*
D03*
X144203D02*
D03*
X139203D02*
D03*
X149278Y731942D02*
D03*
Y702998D02*
D03*
X144278D02*
D03*
X139278D02*
D03*
X149192Y514339D02*
D03*
Y485394D02*
D03*
X144192D02*
D03*
X139192D02*
D03*
X312506Y485456D02*
D03*
X317506D02*
D03*
X322506D02*
D03*
Y514400D02*
D03*
X312506Y268032D02*
D03*
X317506D02*
D03*
X322506D02*
D03*
Y296976D02*
D03*
X312506Y702880D02*
D03*
X317506D02*
D03*
X322506D02*
D03*
Y731824D02*
D03*
X144192Y514339D02*
D03*
X139192D02*
D03*
X144278Y731942D02*
D03*
X139278D02*
D03*
X317506Y731824D02*
D03*
X312506D02*
D03*
X317506Y514400D02*
D03*
X312506D02*
D03*
Y296976D02*
D03*
X317506D02*
D03*
D18*
X175789Y282507D02*
D03*
X112676Y726200D02*
D03*
Y508700D02*
D03*
X286258Y508516D02*
D03*
Y726162D02*
D03*
Y291124D02*
D03*
X112676Y291208D02*
D03*
X175789Y500000D02*
D03*
X112676D02*
D03*
X175789Y717500D02*
D03*
X286258Y717462D02*
D03*
X175789Y726200D02*
D03*
Y291208D02*
D03*
X112676Y282507D02*
D03*
Y717500D02*
D03*
X175789Y508700D02*
D03*
X286258Y499816D02*
D03*
X347980Y717208D02*
D03*
Y725908D02*
D03*
Y500038D02*
D03*
Y508738D02*
D03*
Y282360D02*
D03*
Y291060D02*
D03*
X286258Y282424D02*
D03*
D19*
X1374000Y550000D02*
D03*
Y455000D02*
D03*
X26000Y452500D02*
D03*
Y547500D02*
D03*
Y670000D02*
D03*
Y765000D02*
D03*
Y235000D02*
D03*
Y330000D02*
D03*
D20*
X637500Y515330D02*
D03*
X632500D02*
D03*
Y484670D02*
D03*
X637500D02*
D03*
X627500D02*
D03*
X642500D02*
D03*
X627500Y515330D02*
D03*
D21*
X619670Y507500D02*
D03*
X650330Y492500D02*
D03*
Y497500D02*
D03*
Y507500D02*
D03*
Y502500D02*
D03*
X619670Y492500D02*
D03*
Y497500D02*
D03*
Y502500D02*
D03*
D22*
X11500Y500000D02*
D03*
Y717500D02*
D03*
X1388500Y502500D02*
D03*
X11500Y282500D02*
D03*
D23*
X642500Y515330D02*
D03*
M02*
