M48
;Layer_Color=9474304
;FILE_FORMAT=4:4
METRIC,LZ
;TYPE=PLATED
T01F00S00C0.4000
T02F00S00C0.9000
T03F00S00C1.2000
%
T01
X00006604Y0022946
X0001651
X00026416
X00036322
X00046228
Y00240636
X00036322
X00026416
X0001651
X00006604
X00007203Y00273902
X00015203
X00023184Y00274446
X00031141Y00275274
X00039141
X00047141
X00055141
X00063141
X00071141
X00079141
X00087141
X00095141
X00103141
X00111141
X00119141Y00275317
X00102891Y00289733
X00094891
X00086891
X00078891
X00070891
X00062891
X00054891
X00046891
X00038891
X00030891
X00022951Y0029071
X00015128Y00291098
X00007128
X00006604Y0032446
X0001651
X00026416
X00036322
X00046228
Y00335636
X00036322
X00026416
X0001651
X00006604
X00144203Y00282507
X00167675Y00292164
X00170185Y00275244
X00178185Y00275278
X00186185
X00194185
X00202185
X00210185
X00218185
X00226185
X00234185
X00242185
X00250992Y00272217
X00262325
X00270486Y00275194
X00278486
X00286486Y0027524
X00294486Y00275274
X00317506Y00282504
X00343185Y00275271
X00351184Y00275362
X00359184
X00367184
X00375184
X00383184
X00391184
X00390255Y0028982
X00382255
X00374255
X00366255
X00358255
X00274037Y00289654
X0026614Y00292791
X00255778
X00249194Y00293103
X00240698Y00289737
X00232698
X00224698
X00216698
X00208698
X00200698
X00192698
X00184698
X00175789Y0037275
X0034815
X00398255Y0028982
X00406146Y00291138
X00413759Y0029109
X00421758Y00291018
X00429681Y00289907
X00437681
X00445681
X00453681Y00289883
X00461675Y00290168
X00469659Y00290681
X00477613Y00291536
X00485508Y0029283
X00493364Y00294337
X00501116Y00296316
X00508787Y00298588
X00516377Y00301114
X00523787Y00304129
X00531113Y00307343
X00538267Y00310924
X00545242Y00314842
X00552108Y00318947
X0055868Y00323509
X0056511Y00328269
X00571339Y00333289
X0057727Y00338658
X00583054Y00344185
X00588505Y0035004
X00593717Y00356109
X00598737Y00362338
X00603329Y00368889
X00607741Y00375562
X00611823Y00382442
X00615559Y00389516
X00619102Y00396689
X00633418Y00393355
X00630063Y00386093
X00626482Y00378939
X00622494Y00372004
X00618382Y00365141
X0061382Y0035857
X00609114Y00352101
X00604094Y00345872
X0059883Y00339847
X00593379Y00333992
X005876Y0032846
X00581724Y00323032
X00575494Y00318012
X00569158Y00313129
X00562587Y00308566
X0055584Y00304266
X0054896Y00300184
X00541858Y00296503
X00534691Y00292948
X005273Y00289886
X00519845Y00286983
X00512254Y00284457
X00504571Y0028223
X00496819Y00280251
X00488968Y00278717
X0048109Y00277323
X00473136Y00276468
X00465166Y00275781
X00457171Y00275495
X00449171Y00275449
X00441171
X00433171
X00425171
X00417266Y00274218
X00407102
X00399184Y00275362
X01193907Y00495269
X01201907
X01209907
X01217907
X01225907
X01233907
X01241907
X01249907
X01257907
X01265907
X01273907
X01281907
X01289907
X01297907
X01305907
X01313907
X01321907
X01329907
X01337907
X01345907
X01353907
X01361906
X01369906
X01377Y00493902
X01385822
X01394215
X01391666Y00511098
X01382067
X01374185Y00509728
X01366185
X01358185
X01350185
X01342185
X01334185
X01326185
X01318185
X01310185
X01302185
X01294185
X01286185
X01278185
X01270185
X01262185
X01254185
X01246185
X01238185
X01230185
X01222185
X01214185
X01206185
X01198185
X01354591Y0054196
X01364497
X01374403
X01384309
X01394215
Y00553136
X01384309
X01374403
X01364497
X01354591
Y00458136
X01364497
X01374403
X01384309
X01394215
Y0044696
X01384309
X01374403
X01364497
X01354591
X01185907Y00495269
X01177907
X01169907
X01161907
X01153907
X01145907
X01137907
X01129907
X01121907
X01113907
X01105907
X01097907
X01089907
X01081907
X01073907
X01065907
X01057907
X01049907
X01041907
X01033907
X01025907
X01017907
X01009907
X01001907
X00993907
X00985907
X00977907
X00969907
X00961907
X00953907
X00945907
X00937907
X00929907
X00921907
X00913907
X00905907
X00897907
X00889908
X00881908
X00873907
X00865908
X00857907
X00849908
X00841908
X00833908
X00825908
X00817908
X00809908
X00801908
X00793908
X00798186Y00509728
X00806186
X00814186
X00822186
X00830186
X00838186
X00846186
X00854186
X00862186
X00870186
X00878186
X00886186
X00894186
X00902186
X00910186
X00918186
X00926186
X00934186
X00942186
X00950186
X00958186
X00966186
X00974186
X00982186
X00990185
X00998186
X01006186
X01014185
X01022186
X01030185
X01038185
X01046185
X01054185
X01062185
X01070185
X01078185
X01086185
X01094185
X01102185
X01110185
X01118185
X01126185
X01134185
X01142185
X01150185
X01158185
X01166185
X01174185
X01182185
X01190185
X00790186
X00782186
X00774186
X00766186
X00758186
X00750186
X00742186
X00734186
X00726186
X00718186
X00710186
X00702267Y0051086
X00694267Y00510885
X00684109Y00510768
X00676177Y00509726
X00668177
X00671827Y00495267
X00663827
X00679827
X00687731Y00494036
X00698003
X00705908Y00495269
X00713908
X00721908
X00729908
X00737908
X00745908
X00753908
X00761908
X00769908
X00777908
X00785908
X00782574Y00577004
Y00588518
X0077597Y005937
X007681
X00759968Y00592328
X00753187Y00590136
X00745187
X00737187
X00729187
X00721282Y00591366
X00710264
X00700788Y00590135
X00692788
X00684788
X00676788
X00668788
X0066083Y00589323
X00653278Y00586683
X00646646Y00582209
X00641217Y00576333
X00633912Y00578837
X00634493Y00570859
X00634795Y00562864
X0063473Y00554865
X00634731Y00546865
X00635Y00539036
Y00531036
X00620273
X00620274Y00523036
X00620838Y00515056
X00620272Y00539036
X00620272Y00547036
X00620271Y00555036
X00620287Y00563036
X00619972Y0057103
X00619288Y00579001
X00618259Y00586934
X00616698Y0059478
X00614712Y0060253
X00612392Y00610186
X00609623Y00617692
X0060639Y00625009
X00602842Y00632179
X00598933Y00639159
X0059454Y00645845
X00589861Y00652334
X00584906Y00658615
X00579476Y0066449
X00573794Y00670121
X00567873Y00675501
X0056159Y00680454
X00555059Y00685074
X00548334Y00689407
X00541354Y00693316
X00534153Y00696799
X00526806Y00699967
X00519301Y00702735
X00511624Y00704987
X00503857Y00706903
X00496011Y00708464
X00488068Y00709421
X00480092Y00710034
X00472096Y00710297
X00464096
X00456096
X00448096
X00440096
X00432096
X00424098Y00710118
X00414986Y00709066
X00407102
X00399184Y0071021
X00398255Y00724668
X00406146Y00725986
X00414986
X00423104Y00725598
X00431059Y00724755
X00439059
X00447059
X00455059
X00463059
X00471059
X00479057Y00724589
X00487045Y00724147
X0049499Y00723206
X00502879Y00721884
X00510722Y00720307
X00518423Y00718138
X00526044Y00715706
X0053355Y00712937
X00540856Y00709678
X00548054Y00706186
X00555033Y00702277
X00561801Y00698012
X00568428Y00693531
X00574711Y00688578
X00580802Y00683392
X00586677Y00677962
X00592159Y00672135
X0059745Y00666135
X00602403Y00659852
X00606999Y00653304
X00611382Y00646612
X00615291Y00639632
X00618908Y00632496
X00622257Y00625231
X00625064Y0061774
X00627629Y00610162
X006298Y00602462
X00631512Y00594648
X00632971Y00586782
X00654984Y00570275
X00650805Y00563453
X0064973Y00555526
X00649731Y00547526
X00649731Y00539526
X00649732Y00531526
X00636464Y00500388
X0064891Y00487068
X00649726Y0047911
X00649794Y0047111
X00649508Y00463115
X00649042Y00455129
X00648187Y00447174
X00647011Y00439261
X00645591Y00431389
X00643715Y00423611
X00641701Y00415869
X00639175Y00408279
X0063648Y00400746
X00622163Y0040408
X00624984Y00411566
X0062751Y00419157
X00629582Y00426884
X00631445Y00434664
X00632865Y00442537
X0062329Y00449678
X00616877Y00444896
X00609605Y00441561
X00601766Y00439963
X00593767Y00440048
X00585986Y0044191
X00578817Y0044546
X00572555Y00450438
X00567578Y00456701
X00564029Y00463871
X0056217Y00471652
X00561885Y00479647
Y00487647
Y00495647
Y00503647
Y00511647
Y00519647
X00561673Y00527644
X0055904Y00535199
X00553419Y00540891
X00545887Y00543588
X00537928Y00542778
X00531277Y00538332
X00527492Y00531284
X00526897Y00523306
X0052565Y00515404
X00522431Y0050808
X0051753Y00501757
X00511157Y00496921
X00503791Y00493801
X0049588Y00492608
X0048788Y00492619
X0047988
X0047188
X0046388
X0045588
X0044788
X0043988
X0043188
X00423892Y00492187
X00415932Y00491388
X00407275
X00399377Y00492659
X00398093Y00507117
X00406003Y00508308
X00415751
X00423721Y00507623
X00431703Y00507077
X00439703
X00447703
X00455703
X00463703
X00471703
X00479702
X00487702
X00495702Y0050712
X00503422Y00509219
X00509412Y00514522
X00512233Y00522008
X00512621Y00529999
X00514319Y00537816
X00517945Y00544947
X00523382Y00550815
X00530074Y005552
X00535979Y00558296
X0054385
X00551773Y00557187
X00559226Y00554279
X0056572Y00549607
X00570903Y00543513
X00574487Y00536361
X00576161Y00528538
X00576343Y0052054
Y0051254
Y0050454
Y0049654
Y0048854
Y0048054
X00576681Y00472547
X00579471Y0046505
X00584723Y00459015
X00591782Y00455251
X00599731Y00454351
X00607489Y00456307
X00614032Y00460909
X00618429Y00467593
X00620191Y00475396
X00620775Y00483375
X0063217Y00462868
X00628469Y00455775
X00603504Y00498324
X00593852Y00492228
X00590844Y00562683
X00661752Y0057454
X00669671Y00575677
X00677671
X00685671
X00693671
X00701671
X00710478Y00574446
X00722252
X00730157Y00575676
X00738157
X00746157
X00754157
X00759968Y00572008
X007681
X0077597
X0034765Y0058675
X00358093Y00507117
X00366093
X00374093
X00382093
X00390093
X00391377Y00492659
X00383377
X00375377
X00367377
X00359377
X0035153Y00492152
X0034443
X00317506Y00499928
X00294483Y00492837
X00286484Y00492684
X00278484Y00492678
X00270484
X00262566Y0049154
X00255778Y00491301
X00248666Y00490474
X00242185Y0049277
X00234185
X00226185
X00218185
X00210185
X00202185
X00194185
X00186185
X00178185
X00170185Y00492736
X00167754Y0050978
X00184671Y0050723
X00192671
X00200671
X00208671
X00216671
X00224671
X00232671
X00240671
X00250778Y00509616
X00258318
X0026614
X0027432Y00507746
X00144192Y00499866
X00119121Y00492733
X00111121Y0049277
X00103121
X00095121
X00087121
X00079121
X00071121
X00063121
X00055121
X00047121
X00039121
X00031121
X00023622Y00489458
X00015183Y00491402
X00007183
X00007148Y00508598
X00015148
X00023368Y00510794
X00030891Y0050723
X00038891
X00046891
X0005489
X00062891
X0007089
X00078891
X0008689
X0009489
X0010289
X00046228Y0054196
X00036322
X00026416
X0001651
X00006604
Y00553136
X0001651
X00026416
X00036322
X00046228
Y00458136
X00036322
X00026416
X0001651
X00006604
Y0044696
X0001651
X00026416
X00036322
X00046228
Y0066446
X00036322
X00026416
X0001651
X00006604
Y00675636
X0001651
X00026416
X00036322
X00046228
X00047275Y0071027
X00039275
X00031275
X00023309Y0070953
X00015334Y00708902
X00007334
X00006991Y00726098
X00014991
X00022951Y0072571
X00030891Y0072473
X00038891
X00046891
X0005489
X00062891
X0007089
X00078891
X0008689
X0009489
X0010289
X00103275Y0071027
X00095275
X00087275
X00079275
X00071275
X00063275
X00055275
X00111275
X00119275Y0071031
X00144278Y0071747
X00170185Y00710236
X00178185Y0071027
X00186185
X00194185
X00202185
X00210185
X00218185
X00226185
X00234185
X00242185
X00248741Y00707526
X00255778Y00706252
X00262578Y0070904
X00270494Y00710196
X00278494
X00286494Y00710232
X00294494Y00710196
X00317506Y00717352
X0034443Y0071021
X0035153
X00359184
X00367184
X00375184
X00383184
X00391184
X00390255Y00724668
X00382255
X00374255
X00366255
X00358255
X00274039Y00724656
X0026614Y00727639
X00257764
X00249636
X00240836Y0072473
X00232836
X00224836
X00216836
X00208836
X00200836
X00192836
X00184836
X00167683Y0072774
X00175789Y0058675
X00046228Y0075946
X00036322
X00026416
X0001651
X00006604
Y00770636
X0001651
X00026416
X00036322
X00046228
X00175789Y008226
X00348234
T02
X013082Y0066165
Y0068665
X0130685Y0075465
Y0077965
Y0080465
T03
X011928Y0075995
X0119305Y0080405
M30
