G04*
G04 #@! TF.GenerationSoftware,Altium Limited,Altium Designer,25.8.1 (18)*
G04*
G04 Layer_Color=16711935*
%FSLAX44Y44*%
%MOMM*%
G71*
G04*
G04 #@! TF.SameCoordinates,2120D8EF-05CC-4178-8A97-661A8360891B*
G04*
G04*
G04 #@! TF.FilePolarity,Negative*
G04*
G01*
G75*
%ADD27R,5.0032X2.2032*%
G04:AMPARAMS|DCode=33|XSize=1.8mm|YSize=1.8mm|CornerRadius=0.45mm|HoleSize=0mm|Usage=FLASHONLY|Rotation=270.000|XOffset=0mm|YOffset=0mm|HoleType=Round|Shape=RoundedRectangle|*
%AMROUNDEDRECTD33*
21,1,1.8000,0.9000,0,0,270.0*
21,1,0.9000,1.8000,0,0,270.0*
1,1,0.9000,-0.4500,-0.4500*
1,1,0.9000,-0.4500,0.4500*
1,1,0.9000,0.4500,0.4500*
1,1,0.9000,0.4500,-0.4500*
%
%ADD33ROUNDEDRECTD33*%
G04:AMPARAMS|DCode=34|XSize=1.5mm|YSize=1.5mm|CornerRadius=0.375mm|HoleSize=0mm|Usage=FLASHONLY|Rotation=270.000|XOffset=0mm|YOffset=0mm|HoleType=Round|Shape=RoundedRectangle|*
%AMROUNDEDRECTD34*
21,1,1.5000,0.7500,0,0,270.0*
21,1,0.7500,1.5000,0,0,270.0*
1,1,0.7500,-0.3750,-0.3750*
1,1,0.7500,-0.3750,0.3750*
1,1,0.7500,0.3750,0.3750*
1,1,0.7500,0.3750,-0.3750*
%
%ADD34ROUNDEDRECTD34*%
%ADD35C,1.8000*%
%ADD36C,2.0000*%
%ADD37C,1.5000*%
%ADD39C,0.8032*%
%ADD40C,0.8000*%
D27*
X1374000Y550000D02*
D03*
Y455000D02*
D03*
X26000Y452500D02*
D03*
Y547500D02*
D03*
Y670000D02*
D03*
Y765000D02*
D03*
Y235000D02*
D03*
Y330000D02*
D03*
D33*
X1306850Y754650D02*
D03*
D34*
X1308200Y661650D02*
D03*
D35*
X1306850Y779650D02*
D03*
Y804650D02*
D03*
D36*
X1192800Y759950D02*
D03*
X1193050Y804050D02*
D03*
D37*
X1308200Y686650D02*
D03*
D39*
X144278Y717470D02*
D03*
X144203Y282507D02*
D03*
X144192Y499866D02*
D03*
X535979Y558296D02*
D03*
X768100Y593700D02*
D03*
X775970Y572008D02*
D03*
X782574Y577004D02*
D03*
Y588518D02*
D03*
X775970Y593700D02*
D03*
X6604Y240636D02*
D03*
Y229460D02*
D03*
X16510D02*
D03*
Y240636D02*
D03*
X26416D02*
D03*
Y229460D02*
D03*
X36322Y240636D02*
D03*
Y229460D02*
D03*
X46228Y240636D02*
D03*
Y229460D02*
D03*
X6604Y335636D02*
D03*
Y324460D02*
D03*
X16510D02*
D03*
Y335636D02*
D03*
X26416D02*
D03*
Y324460D02*
D03*
X36322Y335636D02*
D03*
Y324460D02*
D03*
X46228Y335636D02*
D03*
Y324460D02*
D03*
X6604Y458136D02*
D03*
Y446960D02*
D03*
X16510D02*
D03*
Y458136D02*
D03*
X26416D02*
D03*
Y446960D02*
D03*
X36322Y458136D02*
D03*
Y446960D02*
D03*
X46228Y458136D02*
D03*
Y446960D02*
D03*
X6604Y553136D02*
D03*
Y541960D02*
D03*
X16510D02*
D03*
Y553136D02*
D03*
X26416D02*
D03*
Y541960D02*
D03*
X36322Y553136D02*
D03*
Y541960D02*
D03*
X46228Y553136D02*
D03*
Y541960D02*
D03*
X6604Y675636D02*
D03*
Y664460D02*
D03*
X16510D02*
D03*
Y675636D02*
D03*
X26416D02*
D03*
Y664460D02*
D03*
X36322Y675636D02*
D03*
Y664460D02*
D03*
X46228Y675636D02*
D03*
Y664460D02*
D03*
Y759460D02*
D03*
Y770636D02*
D03*
X36322Y759460D02*
D03*
Y770636D02*
D03*
X26416Y759460D02*
D03*
Y770636D02*
D03*
X16510D02*
D03*
Y759460D02*
D03*
X6604D02*
D03*
Y770636D02*
D03*
X317506Y282504D02*
D03*
Y717352D02*
D03*
Y499928D02*
D03*
X1394215Y446960D02*
D03*
Y458136D02*
D03*
X1384309Y446960D02*
D03*
Y458136D02*
D03*
X1374403Y446960D02*
D03*
Y458136D02*
D03*
X1364497D02*
D03*
Y446960D02*
D03*
X1354591D02*
D03*
Y458136D02*
D03*
X1394215Y541960D02*
D03*
Y553136D02*
D03*
X1384309Y541960D02*
D03*
Y553136D02*
D03*
X1374403Y541960D02*
D03*
Y553136D02*
D03*
X1364497D02*
D03*
Y541960D02*
D03*
X1354591D02*
D03*
Y553136D02*
D03*
X175789Y372750D02*
D03*
X175789Y822600D02*
D03*
X175789Y586750D02*
D03*
D40*
X636464Y500388D02*
D03*
M02*
