G04*
G04 #@! TF.GenerationSoftware,Altium Limited,Altium Designer,25.8.1 (18)*
G04*
G04 Layer_Color=8388736*
%FSLAX44Y44*%
%MOMM*%
G71*
G04*
G04 #@! TF.SameCoordinates,2120D8EF-05CC-4178-8A97-661A8360891B*
G04*
G04*
G04 #@! TF.FilePolarity,Negative*
G04*
G01*
G75*
%ADD14R,0.7154X0.6725*%
%ADD15R,1.0191X0.2622*%
G04:AMPARAMS|DCode=16|XSize=1.0191mm|YSize=0.2622mm|CornerRadius=0.1311mm|HoleSize=0mm|Usage=FLASHONLY|Rotation=0.000|XOffset=0mm|YOffset=0mm|HoleType=Round|Shape=RoundedRectangle|*
%AMROUNDEDRECTD16*
21,1,1.0191,0.0000,0,0,0.0*
21,1,0.7569,0.2622,0,0,0.0*
1,1,0.2622,0.3785,0.0000*
1,1,0.2622,-0.3785,0.0000*
1,1,0.2622,-0.3785,0.0000*
1,1,0.2622,0.3785,0.0000*
%
%ADD16ROUNDEDRECTD16*%
G04:AMPARAMS|DCode=17|XSize=0.2622mm|YSize=1.0191mm|CornerRadius=0.1311mm|HoleSize=0mm|Usage=FLASHONLY|Rotation=0.000|XOffset=0mm|YOffset=0mm|HoleType=Round|Shape=RoundedRectangle|*
%AMROUNDEDRECTD17*
21,1,0.2622,0.7569,0,0,0.0*
21,1,0.0000,1.0191,0,0,0.0*
1,1,0.2622,0.0000,-0.3785*
1,1,0.2622,0.0000,-0.3785*
1,1,0.2622,0.0000,0.3785*
1,1,0.2622,0.0000,0.3785*
%
%ADD17ROUNDEDRECTD17*%
%ADD18R,0.6600X0.3600*%
G04:AMPARAMS|DCode=20|XSize=0.8461mm|YSize=0.2425mm|CornerRadius=0.1212mm|HoleSize=0mm|Usage=FLASHONLY|Rotation=270.000|XOffset=0mm|YOffset=0mm|HoleType=Round|Shape=RoundedRectangle|*
%AMROUNDEDRECTD20*
21,1,0.8461,0.0000,0,0,270.0*
21,1,0.6036,0.2425,0,0,270.0*
1,1,0.2425,0.0000,-0.3018*
1,1,0.2425,0.0000,0.3018*
1,1,0.2425,0.0000,0.3018*
1,1,0.2425,0.0000,-0.3018*
%
%ADD20ROUNDEDRECTD20*%
G04:AMPARAMS|DCode=21|XSize=0.2425mm|YSize=0.8461mm|CornerRadius=0.1212mm|HoleSize=0mm|Usage=FLASHONLY|Rotation=270.000|XOffset=0mm|YOffset=0mm|HoleType=Round|Shape=RoundedRectangle|*
%AMROUNDEDRECTD21*
21,1,0.2425,0.6036,0,0,270.0*
21,1,0.0000,0.8461,0,0,270.0*
1,1,0.2425,-0.3018,0.0000*
1,1,0.2425,-0.3018,0.0000*
1,1,0.2425,0.3018,0.0000*
1,1,0.2425,0.3018,0.0000*
%
%ADD21ROUNDEDRECTD21*%
%ADD23R,0.2425X0.8461*%
%ADD24C,2.4181*%
%ADD25R,1.5494X1.5494*%
G04:AMPARAMS|DCode=26|XSize=3.0191mm|YSize=2.2622mm|CornerRadius=1.1311mm|HoleSize=0mm|Usage=FLASHONLY|Rotation=0.000|XOffset=0mm|YOffset=0mm|HoleType=Round|Shape=RoundedRectangle|*
%AMROUNDEDRECTD26*
21,1,3.0191,0.0000,0,0,0.0*
21,1,0.7569,2.2622,0,0,0.0*
1,1,2.2622,0.3785,0.0000*
1,1,2.2622,-0.3785,0.0000*
1,1,2.2622,-0.3785,0.0000*
1,1,2.2622,0.3785,0.0000*
%
%ADD26ROUNDEDRECTD26*%
%ADD27R,5.0032X2.2032*%
%ADD28R,1.9200X1.9200*%
%ADD29R,3.9000X2.7000*%
%ADD30R,2.6600X2.3600*%
%ADD31C,2.3000*%
%ADD32C,2.4181*%
G04:AMPARAMS|DCode=33|XSize=1.8mm|YSize=1.8mm|CornerRadius=0.45mm|HoleSize=0mm|Usage=FLASHONLY|Rotation=270.000|XOffset=0mm|YOffset=0mm|HoleType=Round|Shape=RoundedRectangle|*
%AMROUNDEDRECTD33*
21,1,1.8000,0.9000,0,0,270.0*
21,1,0.9000,1.8000,0,0,270.0*
1,1,0.9000,-0.4500,-0.4500*
1,1,0.9000,-0.4500,0.4500*
1,1,0.9000,0.4500,0.4500*
1,1,0.9000,0.4500,-0.4500*
%
%ADD33ROUNDEDRECTD33*%
G04:AMPARAMS|DCode=34|XSize=1.5mm|YSize=1.5mm|CornerRadius=0.375mm|HoleSize=0mm|Usage=FLASHONLY|Rotation=270.000|XOffset=0mm|YOffset=0mm|HoleType=Round|Shape=RoundedRectangle|*
%AMROUNDEDRECTD34*
21,1,1.5000,0.7500,0,0,270.0*
21,1,0.7500,1.5000,0,0,270.0*
1,1,0.7500,-0.3750,-0.3750*
1,1,0.7500,-0.3750,0.3750*
1,1,0.7500,0.3750,0.3750*
1,1,0.7500,0.3750,-0.3750*
%
%ADD34ROUNDEDRECTD34*%
%ADD35C,1.8000*%
%ADD36C,2.0000*%
%ADD37C,1.5000*%
%ADD38C,0.6000*%
%ADD39C,0.8032*%
%ADD40C,0.8000*%
D14*
X688634Y502496D02*
D03*
X698206D02*
D03*
X250992Y282507D02*
D03*
X185360Y751595D02*
D03*
Y777645D02*
D03*
X185360Y542173D02*
D03*
X357805Y796774D02*
D03*
X600416Y533884D02*
D03*
X357378Y767818D02*
D03*
Y562332D02*
D03*
Y533630D02*
D03*
X600416Y549378D02*
D03*
X357632Y314174D02*
D03*
Y341860D02*
D03*
X772536Y582906D02*
D03*
X185360Y344344D02*
D03*
Y322436D02*
D03*
X185360Y564369D02*
D03*
X250992Y500000D02*
D03*
Y717500D02*
D03*
X260564D02*
D03*
X417749Y499848D02*
D03*
X417576Y282678D02*
D03*
X175789Y322436D02*
D03*
Y344344D02*
D03*
X260564Y282507D02*
D03*
X175789Y564369D02*
D03*
X175789Y751595D02*
D03*
Y777645D02*
D03*
X260564Y500000D02*
D03*
X175789Y542173D02*
D03*
X348234Y796774D02*
D03*
X762964Y582906D02*
D03*
X408005Y717526D02*
D03*
X417576D02*
D03*
X720050Y582906D02*
D03*
X710478D02*
D03*
X590844Y533884D02*
D03*
X347807Y767818D02*
D03*
Y562332D02*
D03*
Y533630D02*
D03*
X408178Y499848D02*
D03*
X590844Y549378D02*
D03*
X408005Y282678D02*
D03*
X348061Y314174D02*
D03*
Y341860D02*
D03*
D15*
X129731Y287507D02*
D03*
X129805Y722470D02*
D03*
X129720Y504866D02*
D03*
X303033Y504928D02*
D03*
Y287504D02*
D03*
Y722352D02*
D03*
D16*
X129731Y277507D02*
D03*
X158675D02*
D03*
Y287507D02*
D03*
X158750Y722470D02*
D03*
Y712470D02*
D03*
X129805D02*
D03*
X158664Y504866D02*
D03*
Y494866D02*
D03*
X129720D02*
D03*
X303033Y494928D02*
D03*
X331978D02*
D03*
Y504928D02*
D03*
X303033Y277504D02*
D03*
X331978D02*
D03*
Y287504D02*
D03*
X303033Y712352D02*
D03*
X331978D02*
D03*
Y722352D02*
D03*
X129720Y499866D02*
D03*
X158664D02*
D03*
X331978Y717352D02*
D03*
X303033Y499928D02*
D03*
X331978D02*
D03*
Y282504D02*
D03*
D17*
X139203Y268035D02*
D03*
X144203D02*
D03*
X149203D02*
D03*
Y296980D02*
D03*
X144203D02*
D03*
X139203D02*
D03*
X149278Y731942D02*
D03*
Y702998D02*
D03*
X144278D02*
D03*
X139278D02*
D03*
X149192Y514339D02*
D03*
Y485394D02*
D03*
X144192D02*
D03*
X139192D02*
D03*
X312506Y485456D02*
D03*
X317506D02*
D03*
X322506D02*
D03*
Y514400D02*
D03*
X312506Y268032D02*
D03*
X317506D02*
D03*
X322506D02*
D03*
Y296976D02*
D03*
X312506Y702880D02*
D03*
X317506D02*
D03*
X322506D02*
D03*
Y731824D02*
D03*
X144192Y514339D02*
D03*
X139192D02*
D03*
X144278Y731942D02*
D03*
X139278D02*
D03*
X317506Y731824D02*
D03*
X312506D02*
D03*
X317506Y514400D02*
D03*
X312506D02*
D03*
Y296976D02*
D03*
X317506D02*
D03*
D18*
X175789Y282507D02*
D03*
X112676Y726200D02*
D03*
Y508700D02*
D03*
X286258Y508516D02*
D03*
Y726162D02*
D03*
Y291124D02*
D03*
X112676Y291208D02*
D03*
X175789Y500000D02*
D03*
X112676D02*
D03*
X286258Y717462D02*
D03*
X175789Y726200D02*
D03*
Y291208D02*
D03*
X112676Y282507D02*
D03*
Y717500D02*
D03*
X175789Y508700D02*
D03*
X286258Y499816D02*
D03*
X347980Y717208D02*
D03*
Y725908D02*
D03*
Y500038D02*
D03*
Y508738D02*
D03*
Y282360D02*
D03*
Y291060D02*
D03*
X286258Y282424D02*
D03*
D20*
X637500Y515330D02*
D03*
X632500D02*
D03*
Y484670D02*
D03*
X637500D02*
D03*
X627500D02*
D03*
X642500D02*
D03*
X627500Y515330D02*
D03*
D21*
X619670Y507500D02*
D03*
X650330Y492500D02*
D03*
Y497500D02*
D03*
Y507500D02*
D03*
Y502500D02*
D03*
X619670Y492500D02*
D03*
Y497500D02*
D03*
Y502500D02*
D03*
D23*
X642500Y515330D02*
D03*
D24*
X569114Y476236D02*
G03*
X627500Y476226I29193J-52D01*
G01*
X495300Y499848D02*
G03*
X519684Y524232I0J24384D01*
G01*
X543526Y551047D02*
G03*
X519684Y527206I0J-23842D01*
G01*
X569114Y525458D02*
G03*
X543526Y551047I-25589J0D01*
G01*
X453526Y282678D02*
G03*
X642500Y471652I0J188974D01*
G01*
X627500Y562726D02*
G03*
X472559Y717526I-154800J0D01*
G01*
X667900Y582906D02*
G03*
X642500Y557506I0J-25400D01*
G01*
X627500Y562726D02*
X627504Y520869D01*
X642500Y557506D02*
X642504Y520869D01*
X288798Y717426D02*
X297428D01*
X288798D02*
Y717462D01*
X569114Y476236D02*
Y525458D01*
X417749Y499848D02*
X495300D01*
X519684Y524232D02*
Y527206D01*
X417576Y282678D02*
X453526D01*
X287467Y282504D02*
X295996D01*
X720050Y582906D02*
X762964D01*
X348211Y717439D02*
X407918D01*
X417576Y717526D02*
X472539D01*
X472559Y717526D01*
X407918Y717439D02*
X408005Y717526D01*
X408138Y499888D02*
X408178Y499848D01*
X348130Y499888D02*
X408138D01*
X407918Y282591D02*
X408005Y282678D01*
X667900Y582906D02*
X710478D01*
X348211Y282591D02*
X407918D01*
D25*
X144203Y282507D02*
D03*
X144278Y717470D02*
D03*
X144192Y499866D02*
D03*
X317506Y499928D02*
D03*
Y717352D02*
D03*
Y282504D02*
D03*
D26*
X129731Y282507D02*
D03*
X158675D02*
D03*
X158750Y717470D02*
D03*
X303033Y717352D02*
D03*
X129805Y717470D02*
D03*
X303033Y282504D02*
D03*
D27*
X1374000Y550000D02*
D03*
Y455000D02*
D03*
X26000Y452500D02*
D03*
Y547500D02*
D03*
Y670000D02*
D03*
Y765000D02*
D03*
Y235000D02*
D03*
Y330000D02*
D03*
D28*
X635000Y500000D02*
D03*
D29*
X11500D02*
D03*
Y717500D02*
D03*
X1388500Y502500D02*
D03*
X11500Y282500D02*
D03*
D30*
X175789Y717500D02*
D03*
D31*
X124248Y499866D02*
X129720D01*
X124181Y499933D02*
X124248Y499866D01*
X123731Y282507D02*
X129731D01*
X296967Y500067D02*
X302499D01*
X332513Y282500D02*
X338044D01*
X332513Y499925D02*
X338044D01*
X331985Y717348D02*
X337516D01*
X295996Y282504D02*
X303033D01*
D32*
X698207Y502498D02*
X1388498D01*
X655869Y502496D02*
X688634D01*
X164741Y282440D02*
X175789Y282507D01*
X250992D01*
X164730Y499933D02*
X175789Y500000D01*
X250992D01*
X11500D02*
X112676D01*
X124181Y499933D01*
X175789Y717500D02*
X250992D01*
X164816Y717433D02*
X175789Y717500D01*
X262050Y717426D02*
X286222D01*
X112676Y717500D02*
X123739Y717567D01*
X11500Y717500D02*
X112676D01*
X260656Y499908D02*
X286166D01*
X262050Y282424D02*
X286258D01*
X112676Y282507D02*
X123665Y282575D01*
X11504Y282504D02*
X112672D01*
D33*
X1306850Y754650D02*
D03*
D34*
X1308200Y661650D02*
D03*
D35*
X1306850Y779650D02*
D03*
Y804650D02*
D03*
D36*
X1192800Y759950D02*
D03*
X1193050Y804050D02*
D03*
D37*
X1308200Y686650D02*
D03*
D38*
X684109Y510768D02*
D03*
X676177Y509726D02*
D03*
X668177D02*
D03*
X663827Y495267D02*
D03*
X671827D02*
D03*
X679827D02*
D03*
X687731Y494036D02*
D03*
X1391666Y511098D02*
D03*
X1382067D02*
D03*
X1374185Y509728D02*
D03*
X1366185D02*
D03*
X1358185D02*
D03*
X1350185D02*
D03*
X1342185D02*
D03*
X1334185D02*
D03*
X1326185D02*
D03*
X1318185D02*
D03*
X1310185D02*
D03*
X1302185D02*
D03*
X1294185D02*
D03*
X1286185D02*
D03*
X1278185D02*
D03*
X1270185D02*
D03*
X1262185D02*
D03*
X1254185D02*
D03*
X1246185D02*
D03*
X1238185D02*
D03*
X1230185D02*
D03*
X1222185D02*
D03*
X1214185D02*
D03*
X1206185D02*
D03*
X1198185D02*
D03*
X1190185D02*
D03*
X1182185D02*
D03*
X1174185D02*
D03*
X1166185D02*
D03*
X1158185D02*
D03*
X1150185D02*
D03*
X1142185D02*
D03*
X1134185D02*
D03*
X1126185D02*
D03*
X1118185D02*
D03*
X1110185D02*
D03*
X1102185D02*
D03*
X1094185D02*
D03*
X1086185D02*
D03*
X1078185D02*
D03*
X1070185D02*
D03*
X1062185D02*
D03*
X1054185D02*
D03*
X1046185D02*
D03*
X1038185D02*
D03*
X1030185D02*
D03*
X1022186D02*
D03*
X1014185D02*
D03*
X1006186D02*
D03*
X998186D02*
D03*
X990185D02*
D03*
X982186D02*
D03*
X974186D02*
D03*
X966186D02*
D03*
X958186D02*
D03*
X950186D02*
D03*
X942186D02*
D03*
X934186D02*
D03*
X926186D02*
D03*
X918186D02*
D03*
X910186D02*
D03*
X902186D02*
D03*
X894186D02*
D03*
X886186D02*
D03*
X878186D02*
D03*
X870186D02*
D03*
X862186D02*
D03*
X854186D02*
D03*
X846186D02*
D03*
X838186D02*
D03*
X830186D02*
D03*
X822186D02*
D03*
X814186D02*
D03*
X806186D02*
D03*
X798186D02*
D03*
X790186D02*
D03*
X782186D02*
D03*
X774186D02*
D03*
X766186D02*
D03*
X758186D02*
D03*
X750186D02*
D03*
X742186D02*
D03*
X734186D02*
D03*
X726186D02*
D03*
X718186D02*
D03*
X710186D02*
D03*
X702267Y510860D02*
D03*
X694267Y510885D02*
D03*
X698003Y494036D02*
D03*
X705908Y495269D02*
D03*
X713908D02*
D03*
X721908D02*
D03*
X729908D02*
D03*
X737908D02*
D03*
X745908D02*
D03*
X753908D02*
D03*
X761908D02*
D03*
X769908D02*
D03*
X777908D02*
D03*
X785908D02*
D03*
X793908D02*
D03*
X801908D02*
D03*
X809908D02*
D03*
X817908D02*
D03*
X825908D02*
D03*
X833908D02*
D03*
X841908D02*
D03*
X849908D02*
D03*
X857907D02*
D03*
X865908D02*
D03*
X873907D02*
D03*
X881908D02*
D03*
X889908D02*
D03*
X897907D02*
D03*
X905907D02*
D03*
X913907D02*
D03*
X921907D02*
D03*
X929907D02*
D03*
X937907D02*
D03*
X945907D02*
D03*
X953907D02*
D03*
X961907D02*
D03*
X969907D02*
D03*
X977907D02*
D03*
X985907D02*
D03*
X993907D02*
D03*
X1001907D02*
D03*
X1009907D02*
D03*
X1017907D02*
D03*
X1025907D02*
D03*
X1033907D02*
D03*
X1041907D02*
D03*
X1049907D02*
D03*
X1057907D02*
D03*
X1065907D02*
D03*
X1073907D02*
D03*
X1081907D02*
D03*
X1089907D02*
D03*
X1097907D02*
D03*
X1105907D02*
D03*
X1113907D02*
D03*
X1121907D02*
D03*
X1129907D02*
D03*
X1137907D02*
D03*
X1145907D02*
D03*
X1153907D02*
D03*
X1161907D02*
D03*
X1169907D02*
D03*
X1177907D02*
D03*
X1185907D02*
D03*
X1193907D02*
D03*
X1201907D02*
D03*
X1209907D02*
D03*
X1217907D02*
D03*
X1225907D02*
D03*
X1233907D02*
D03*
X1241907D02*
D03*
X1249907D02*
D03*
X1257907D02*
D03*
X1265907D02*
D03*
X1273907D02*
D03*
X1281907D02*
D03*
X1289907D02*
D03*
X1297907D02*
D03*
X1305907D02*
D03*
X1313907D02*
D03*
X1321907D02*
D03*
X1329907D02*
D03*
X1337907D02*
D03*
X1345907D02*
D03*
X1353907D02*
D03*
X1361906D02*
D03*
X1369906D02*
D03*
X1377000Y493902D02*
D03*
X1385822D02*
D03*
X1394215D02*
D03*
X620273Y531036D02*
D03*
X649732Y531526D02*
D03*
X620274Y523036D02*
D03*
X344430Y710210D02*
D03*
X351530D02*
D03*
X344430Y492152D02*
D03*
X351530D02*
D03*
X15128Y291098D02*
D03*
X7128D02*
D03*
X7203Y273902D02*
D03*
X15203D02*
D03*
X23184Y274446D02*
D03*
X31141Y275274D02*
D03*
X39141D02*
D03*
X47141D02*
D03*
X55141D02*
D03*
X63141D02*
D03*
X71141D02*
D03*
X79141D02*
D03*
X87141D02*
D03*
X95141D02*
D03*
X103141D02*
D03*
X111141D02*
D03*
X119141Y275317D02*
D03*
X102891Y289733D02*
D03*
X94891D02*
D03*
X86891D02*
D03*
X78891D02*
D03*
X70891D02*
D03*
X62891D02*
D03*
X54891D02*
D03*
X46891D02*
D03*
X38891D02*
D03*
X30891D02*
D03*
X22951Y290710D02*
D03*
X250992Y272217D02*
D03*
X249194Y293103D02*
D03*
X240698Y289737D02*
D03*
X232698D02*
D03*
X224698D02*
D03*
X216698D02*
D03*
X208698D02*
D03*
X200698D02*
D03*
X192698D02*
D03*
X184698D02*
D03*
X167675Y292164D02*
D03*
X170185Y275244D02*
D03*
X178185Y275278D02*
D03*
X186185D02*
D03*
X194185D02*
D03*
X202185D02*
D03*
X210185D02*
D03*
X218185D02*
D03*
X226185D02*
D03*
X234185D02*
D03*
X242185D02*
D03*
X255778Y292791D02*
D03*
X270486Y275194D02*
D03*
X278486D02*
D03*
X286486Y275240D02*
D03*
X294486Y275274D02*
D03*
X274037Y289654D02*
D03*
X266140Y292791D02*
D03*
X248741Y707526D02*
D03*
X262578Y709040D02*
D03*
X270494Y710196D02*
D03*
X278494D02*
D03*
X286494Y710232D02*
D03*
X294494Y710196D02*
D03*
X274039Y724656D02*
D03*
X266140Y727639D02*
D03*
X249636D02*
D03*
X240836Y724730D02*
D03*
X232836D02*
D03*
X224836D02*
D03*
X216836D02*
D03*
X208836D02*
D03*
X200836D02*
D03*
X192836D02*
D03*
X184836D02*
D03*
X167683Y727740D02*
D03*
X170185Y710236D02*
D03*
X178185Y710270D02*
D03*
X186185D02*
D03*
X194185D02*
D03*
X202185D02*
D03*
X210185D02*
D03*
X218185D02*
D03*
X226185D02*
D03*
X234185D02*
D03*
X242185D02*
D03*
X257764Y727639D02*
D03*
X14991Y726098D02*
D03*
X6991D02*
D03*
X7334Y708902D02*
D03*
X15334D02*
D03*
X23309Y709530D02*
D03*
X31275Y710270D02*
D03*
X39275D02*
D03*
X47275D02*
D03*
X55275D02*
D03*
X63275D02*
D03*
X71275D02*
D03*
X79275D02*
D03*
X87275D02*
D03*
X95275D02*
D03*
X103275D02*
D03*
X111275D02*
D03*
X119275Y710310D02*
D03*
X102890Y724730D02*
D03*
X94890D02*
D03*
X86890D02*
D03*
X78891D02*
D03*
X70890D02*
D03*
X62891D02*
D03*
X54890D02*
D03*
X46891D02*
D03*
X38891D02*
D03*
X30891D02*
D03*
X22951Y725710D02*
D03*
X15148Y508598D02*
D03*
X7148D02*
D03*
X7183Y491402D02*
D03*
X15183D02*
D03*
X23622Y489458D02*
D03*
X31121Y492770D02*
D03*
X39121D02*
D03*
X47121D02*
D03*
X55121D02*
D03*
X63121D02*
D03*
X71121D02*
D03*
X79121D02*
D03*
X87121D02*
D03*
X95121D02*
D03*
X103121D02*
D03*
X111121D02*
D03*
X119121Y492733D02*
D03*
X102890Y507230D02*
D03*
X94890D02*
D03*
X86890D02*
D03*
X78891D02*
D03*
X70890D02*
D03*
X62891D02*
D03*
X54890D02*
D03*
X46891D02*
D03*
X38891D02*
D03*
X30891D02*
D03*
X23368Y510794D02*
D03*
X250778Y509616D02*
D03*
X248666Y490474D02*
D03*
X258318Y509616D02*
D03*
X255778Y491301D02*
D03*
X262566Y491540D02*
D03*
X270484Y492678D02*
D03*
X278484D02*
D03*
X286484Y492684D02*
D03*
X294483Y492837D02*
D03*
X274320Y507746D02*
D03*
X266140Y509616D02*
D03*
X240671Y507230D02*
D03*
X232671D02*
D03*
X224671D02*
D03*
X216671D02*
D03*
X208671D02*
D03*
X200671D02*
D03*
X192671D02*
D03*
X184671D02*
D03*
X167754Y509780D02*
D03*
X170185Y492736D02*
D03*
X178185Y492770D02*
D03*
X186185D02*
D03*
X194185D02*
D03*
X202185D02*
D03*
X210185D02*
D03*
X218185D02*
D03*
X226185D02*
D03*
X234185D02*
D03*
X242185D02*
D03*
X255778Y706252D02*
D03*
X262325Y272217D02*
D03*
X407102Y274218D02*
D03*
X358255Y289820D02*
D03*
X367184Y275362D02*
D03*
X359184D02*
D03*
X399184D02*
D03*
X398255Y289820D02*
D03*
X375184Y275362D02*
D03*
X366255Y289820D02*
D03*
X374255D02*
D03*
X382255D02*
D03*
X390255D02*
D03*
X391184Y275362D02*
D03*
X383184D02*
D03*
X351184D02*
D03*
X343185Y275271D02*
D03*
X406146Y291138D02*
D03*
X359377Y492659D02*
D03*
X358093Y507117D02*
D03*
X632865Y442537D02*
D03*
X631445Y434664D02*
D03*
X629582Y426884D02*
D03*
X627510Y419157D02*
D03*
X624984Y411566D02*
D03*
X622163Y404080D02*
D03*
X619102Y396689D02*
D03*
X615559Y389516D02*
D03*
X611823Y382442D02*
D03*
X607741Y375562D02*
D03*
X603329Y368889D02*
D03*
X598737Y362338D02*
D03*
X593717Y356109D02*
D03*
X588505Y350040D02*
D03*
X583054Y344185D02*
D03*
X577270Y338658D02*
D03*
X571339Y333289D02*
D03*
X565110Y328269D02*
D03*
X558680Y323509D02*
D03*
X552108Y318947D02*
D03*
X545242Y314842D02*
D03*
X538267Y310924D02*
D03*
X531113Y307343D02*
D03*
X523787Y304129D02*
D03*
X516377Y301114D02*
D03*
X508787Y298588D02*
D03*
X501116Y296316D02*
D03*
X493364Y294337D02*
D03*
X485508Y292830D02*
D03*
X477613Y291536D02*
D03*
X469659Y290681D02*
D03*
X461675Y290168D02*
D03*
X453681Y289883D02*
D03*
X445681Y289907D02*
D03*
X437681D02*
D03*
X429681D02*
D03*
X421758Y291018D02*
D03*
X413759Y291090D02*
D03*
X417266Y274218D02*
D03*
X425171Y275449D02*
D03*
X433171D02*
D03*
X441171D02*
D03*
X449171D02*
D03*
X457171Y275495D02*
D03*
X465166Y275781D02*
D03*
X473136Y276468D02*
D03*
X481090Y277323D02*
D03*
X488968Y278717D02*
D03*
X496819Y280251D02*
D03*
X504571Y282230D02*
D03*
X512254Y284457D02*
D03*
X519845Y286983D02*
D03*
X527300Y289886D02*
D03*
X534691Y292948D02*
D03*
X541858Y296503D02*
D03*
X548960Y300184D02*
D03*
X555840Y304266D02*
D03*
X562587Y308566D02*
D03*
X569158Y313129D02*
D03*
X575494Y318012D02*
D03*
X581724Y323032D02*
D03*
X587600Y328460D02*
D03*
X593379Y333992D02*
D03*
X598830Y339847D02*
D03*
X604094Y345872D02*
D03*
X609114Y352101D02*
D03*
X613820Y358570D02*
D03*
X618382Y365141D02*
D03*
X622494Y372004D02*
D03*
X626482Y378939D02*
D03*
X630063Y386093D02*
D03*
X633418Y393355D02*
D03*
X636480Y400746D02*
D03*
X639175Y408279D02*
D03*
X641701Y415869D02*
D03*
X643715Y423611D02*
D03*
X645591Y431389D02*
D03*
X647011Y439261D02*
D03*
X648187Y447174D02*
D03*
X649042Y455129D02*
D03*
X649508Y463115D02*
D03*
X649794Y471110D02*
D03*
X649726Y479110D02*
D03*
X648910Y487068D02*
D03*
X530074Y555200D02*
D03*
X523382Y550815D02*
D03*
X517945Y544947D02*
D03*
X514319Y537816D02*
D03*
X512621Y529999D02*
D03*
X512233Y522008D02*
D03*
X509412Y514522D02*
D03*
X503422Y509219D02*
D03*
X495702Y507120D02*
D03*
X487702Y507077D02*
D03*
X479702D02*
D03*
X471703D02*
D03*
X463703D02*
D03*
X455703D02*
D03*
X447703D02*
D03*
X439703D02*
D03*
X431703D02*
D03*
X423721Y507623D02*
D03*
X415751Y508308D02*
D03*
X415932Y491388D02*
D03*
X423892Y492187D02*
D03*
X431880Y492619D02*
D03*
X439880D02*
D03*
X447880D02*
D03*
X455880D02*
D03*
X463880D02*
D03*
X471880D02*
D03*
X479880D02*
D03*
X487880D02*
D03*
X495880Y492608D02*
D03*
X503791Y493801D02*
D03*
X511157Y496921D02*
D03*
X517530Y501757D02*
D03*
X522431Y508080D02*
D03*
X525650Y515404D02*
D03*
X526897Y523306D02*
D03*
X527492Y531284D02*
D03*
X531277Y538332D02*
D03*
X537928Y542778D02*
D03*
X545887Y543588D02*
D03*
X553419Y540891D02*
D03*
X559040Y535199D02*
D03*
X561673Y527644D02*
D03*
X561885Y519647D02*
D03*
Y511647D02*
D03*
Y503647D02*
D03*
Y495647D02*
D03*
Y487647D02*
D03*
Y479647D02*
D03*
X562170Y471652D02*
D03*
X564029Y463871D02*
D03*
X567578Y456701D02*
D03*
X572555Y450438D02*
D03*
X578817Y445460D02*
D03*
X585986Y441910D02*
D03*
X593767Y440048D02*
D03*
X601766Y439963D02*
D03*
X609605Y441561D02*
D03*
X616877Y444896D02*
D03*
X623290Y449678D02*
D03*
X628469Y455775D02*
D03*
X632170Y462868D02*
D03*
X620775Y483375D02*
D03*
X620191Y475396D02*
D03*
X618429Y467593D02*
D03*
X614032Y460909D02*
D03*
X607489Y456307D02*
D03*
X599731Y454351D02*
D03*
X591782Y455251D02*
D03*
X584723Y459015D02*
D03*
X579471Y465050D02*
D03*
X576681Y472547D02*
D03*
X576343Y480540D02*
D03*
Y488540D02*
D03*
Y496540D02*
D03*
Y504540D02*
D03*
Y512540D02*
D03*
Y520540D02*
D03*
X576161Y528538D02*
D03*
X574487Y536361D02*
D03*
X570903Y543513D02*
D03*
X565720Y549607D02*
D03*
X559226Y554279D02*
D03*
X551773Y557187D02*
D03*
X543850Y558296D02*
D03*
X406003Y508308D02*
D03*
X398093Y507117D02*
D03*
X390093D02*
D03*
X382093D02*
D03*
X374093D02*
D03*
X366093D02*
D03*
X367377Y492659D02*
D03*
X375377D02*
D03*
X383377D02*
D03*
X391377D02*
D03*
X399377D02*
D03*
X407275Y491388D02*
D03*
X406146Y725986D02*
D03*
X398255Y724668D02*
D03*
X390255D02*
D03*
X382255D02*
D03*
X374255D02*
D03*
X366255D02*
D03*
X358255D02*
D03*
X359184Y710210D02*
D03*
X367184D02*
D03*
X375184D02*
D03*
X383184D02*
D03*
X391184D02*
D03*
X399184D02*
D03*
X407102Y709066D02*
D03*
X414986D02*
D03*
Y725986D02*
D03*
X424098Y710118D02*
D03*
X432096Y710297D02*
D03*
X440096D02*
D03*
X448096D02*
D03*
X456096D02*
D03*
X464096D02*
D03*
X472096D02*
D03*
X480092Y710034D02*
D03*
X488068Y709421D02*
D03*
X496011Y708464D02*
D03*
X503857Y706903D02*
D03*
X511624Y704987D02*
D03*
X519301Y702735D02*
D03*
X526806Y699967D02*
D03*
X534153Y696799D02*
D03*
X541354Y693316D02*
D03*
X548334Y689407D02*
D03*
X555059Y685074D02*
D03*
X561590Y680454D02*
D03*
X567873Y675501D02*
D03*
X573794Y670121D02*
D03*
X579476Y664490D02*
D03*
X584906Y658615D02*
D03*
X589861Y652334D02*
D03*
X594540Y645845D02*
D03*
X598933Y639159D02*
D03*
X602842Y632179D02*
D03*
X606390Y625009D02*
D03*
X609623Y617692D02*
D03*
X612392Y610186D02*
D03*
X614712Y602530D02*
D03*
X616698Y594780D02*
D03*
X618259Y586934D02*
D03*
X619288Y579001D02*
D03*
X619972Y571030D02*
D03*
X620287Y563036D02*
D03*
X620271Y555036D02*
D03*
X620272Y547036D02*
D03*
X620272Y539036D02*
D03*
X620838Y515056D02*
D03*
X635000Y531036D02*
D03*
Y539036D02*
D03*
X634731Y546865D02*
D03*
X634730Y554865D02*
D03*
X634795Y562864D02*
D03*
X634493Y570859D02*
D03*
X633912Y578837D02*
D03*
X632971Y586782D02*
D03*
X631512Y594648D02*
D03*
X629800Y602462D02*
D03*
X627629Y610162D02*
D03*
X625064Y617740D02*
D03*
X622257Y625231D02*
D03*
X618908Y632496D02*
D03*
X615291Y639632D02*
D03*
X611382Y646612D02*
D03*
X606999Y653304D02*
D03*
X602403Y659852D02*
D03*
X597450Y666135D02*
D03*
X592159Y672135D02*
D03*
X586677Y677962D02*
D03*
X580802Y683392D02*
D03*
X574711Y688578D02*
D03*
X568428Y693531D02*
D03*
X561801Y698012D02*
D03*
X555033Y702277D02*
D03*
X548054Y706186D02*
D03*
X540856Y709678D02*
D03*
X533550Y712937D02*
D03*
X526044Y715706D02*
D03*
X518423Y718138D02*
D03*
X510722Y720307D02*
D03*
X502879Y721884D02*
D03*
X494990Y723206D02*
D03*
X487045Y724147D02*
D03*
X479057Y724589D02*
D03*
X471059Y724755D02*
D03*
X463059D02*
D03*
X455059D02*
D03*
X447059D02*
D03*
X439059D02*
D03*
X431059D02*
D03*
X423104Y725598D02*
D03*
X700788Y590135D02*
D03*
X692788D02*
D03*
X684788D02*
D03*
X676788D02*
D03*
X668788D02*
D03*
X660830Y589323D02*
D03*
X653278Y586683D02*
D03*
X646646Y582209D02*
D03*
X641217Y576333D02*
D03*
X649731Y539526D02*
D03*
X649731Y547526D02*
D03*
X649730Y555526D02*
D03*
X650805Y563453D02*
D03*
X654984Y570275D02*
D03*
X661752Y574540D02*
D03*
X669671Y575677D02*
D03*
X677671D02*
D03*
X685671D02*
D03*
X693671D02*
D03*
X701671D02*
D03*
X759968Y592328D02*
D03*
X753187Y590136D02*
D03*
X745187D02*
D03*
X737187D02*
D03*
X729187D02*
D03*
X721282Y591366D02*
D03*
X710264D02*
D03*
X710478Y574446D02*
D03*
X722252D02*
D03*
X730157Y575676D02*
D03*
X738157D02*
D03*
X746157D02*
D03*
X754157D02*
D03*
X759968Y572008D02*
D03*
X768100D02*
D03*
D39*
X144278Y717470D02*
D03*
X144203Y282507D02*
D03*
X144192Y499866D02*
D03*
X535979Y558296D02*
D03*
X768100Y593700D02*
D03*
X775970Y572008D02*
D03*
X782574Y577004D02*
D03*
Y588518D02*
D03*
X775970Y593700D02*
D03*
X6604Y240636D02*
D03*
Y229460D02*
D03*
X16510D02*
D03*
Y240636D02*
D03*
X26416D02*
D03*
Y229460D02*
D03*
X36322Y240636D02*
D03*
Y229460D02*
D03*
X46228Y240636D02*
D03*
Y229460D02*
D03*
X6604Y335636D02*
D03*
Y324460D02*
D03*
X16510D02*
D03*
Y335636D02*
D03*
X26416D02*
D03*
Y324460D02*
D03*
X36322Y335636D02*
D03*
Y324460D02*
D03*
X46228Y335636D02*
D03*
Y324460D02*
D03*
X6604Y458136D02*
D03*
Y446960D02*
D03*
X16510D02*
D03*
Y458136D02*
D03*
X26416D02*
D03*
Y446960D02*
D03*
X36322Y458136D02*
D03*
Y446960D02*
D03*
X46228Y458136D02*
D03*
Y446960D02*
D03*
X6604Y553136D02*
D03*
Y541960D02*
D03*
X16510D02*
D03*
Y553136D02*
D03*
X26416D02*
D03*
Y541960D02*
D03*
X36322Y553136D02*
D03*
Y541960D02*
D03*
X46228Y553136D02*
D03*
Y541960D02*
D03*
X6604Y675636D02*
D03*
Y664460D02*
D03*
X16510D02*
D03*
Y675636D02*
D03*
X26416D02*
D03*
Y664460D02*
D03*
X36322Y675636D02*
D03*
Y664460D02*
D03*
X46228Y675636D02*
D03*
Y664460D02*
D03*
Y759460D02*
D03*
Y770636D02*
D03*
X36322Y759460D02*
D03*
Y770636D02*
D03*
X26416Y759460D02*
D03*
Y770636D02*
D03*
X16510D02*
D03*
Y759460D02*
D03*
X6604D02*
D03*
Y770636D02*
D03*
X317506Y282504D02*
D03*
Y717352D02*
D03*
Y499928D02*
D03*
X1394215Y446960D02*
D03*
Y458136D02*
D03*
X1384309Y446960D02*
D03*
Y458136D02*
D03*
X1374403Y446960D02*
D03*
Y458136D02*
D03*
X1364497D02*
D03*
Y446960D02*
D03*
X1354591D02*
D03*
Y458136D02*
D03*
X1394215Y541960D02*
D03*
Y553136D02*
D03*
X1384309Y541960D02*
D03*
Y553136D02*
D03*
X1374403Y541960D02*
D03*
Y553136D02*
D03*
X1364497D02*
D03*
Y541960D02*
D03*
X1354591D02*
D03*
Y553136D02*
D03*
X175789Y372750D02*
D03*
X175789Y822600D02*
D03*
X175789Y586750D02*
D03*
D40*
X636464Y500388D02*
D03*
M02*
