G04*
G04 #@! TF.GenerationSoftware,Altium Limited,Altium Designer,24.6.1 (21)*
G04*
G04 Layer_Physical_Order=4*
G04 Layer_Color=16711680*
%FSLAX44Y44*%
%MOMM*%
G71*
G04*
G04 #@! TF.SameCoordinates,C0AB8A0A-A219-4FFC-B406-098698A59D74*
G04*
G04*
G04 #@! TF.FilePolarity,Positive*
G04*
G01*
G75*
%ADD16R,4.8000X2.0000*%
G04:AMPARAMS|DCode=34|XSize=1.8mm|YSize=1.8mm|CornerRadius=0.45mm|HoleSize=0mm|Usage=FLASHONLY|Rotation=270.000|XOffset=0mm|YOffset=0mm|HoleType=Round|Shape=RoundedRectangle|*
%AMROUNDEDRECTD34*
21,1,1.8000,0.9000,0,0,270.0*
21,1,0.9000,1.8000,0,0,270.0*
1,1,0.9000,-0.4500,-0.4500*
1,1,0.9000,-0.4500,0.4500*
1,1,0.9000,0.4500,0.4500*
1,1,0.9000,0.4500,-0.4500*
%
%ADD34ROUNDEDRECTD34*%
G04:AMPARAMS|DCode=35|XSize=1.5mm|YSize=1.5mm|CornerRadius=0.375mm|HoleSize=0mm|Usage=FLASHONLY|Rotation=270.000|XOffset=0mm|YOffset=0mm|HoleType=Round|Shape=RoundedRectangle|*
%AMROUNDEDRECTD35*
21,1,1.5000,0.7500,0,0,270.0*
21,1,0.7500,1.5000,0,0,270.0*
1,1,0.7500,-0.3750,-0.3750*
1,1,0.7500,-0.3750,0.3750*
1,1,0.7500,0.3750,0.3750*
1,1,0.7500,0.3750,-0.3750*
%
%ADD35ROUNDEDRECTD35*%
%ADD36C,1.8000*%
%ADD37C,2.0000*%
%ADD38C,1.5000*%
%ADD39C,0.6000*%
%ADD43C,0.3000*%
%ADD45C,0.5000*%
%ADD46C,0.8000*%
G36*
X1397515Y2612D02*
X2612D01*
Y997515D01*
X1397515D01*
Y2612D01*
D02*
G37*
%LPC*%
G36*
X1336800Y964112D02*
X1333327D01*
X1333162Y964080D01*
X1332994Y964091D01*
X1329550Y963637D01*
X1329391Y963583D01*
X1329223Y963572D01*
X1325867Y962673D01*
X1325717Y962599D01*
X1325552Y962566D01*
X1322342Y961236D01*
X1322202Y961143D01*
X1322043Y961089D01*
X1319035Y959352D01*
X1318908Y959241D01*
X1318758Y959167D01*
X1316002Y957052D01*
X1315891Y956926D01*
X1315751Y956832D01*
X1313295Y954376D01*
X1313201Y954236D01*
X1313075Y954125D01*
X1310960Y951369D01*
X1310886Y951219D01*
X1310775Y951092D01*
X1309038Y948084D01*
X1308984Y947924D01*
X1308890Y947785D01*
X1307561Y944575D01*
X1307528Y944410D01*
X1307454Y944260D01*
X1306555Y940904D01*
X1306544Y940736D01*
X1306490Y940577D01*
X1306036Y937133D01*
X1306047Y936965D01*
X1306015Y936800D01*
Y933327D01*
X1306047Y933162D01*
X1306036Y932994D01*
X1306490Y929550D01*
X1306544Y929391D01*
X1306555Y929223D01*
X1307454Y925867D01*
X1307528Y925716D01*
X1307561Y925552D01*
X1308890Y922342D01*
X1308984Y922203D01*
X1309038Y922043D01*
X1310775Y919035D01*
X1310886Y918908D01*
X1310960Y918757D01*
X1313075Y916002D01*
X1313201Y915891D01*
X1313295Y915751D01*
X1315751Y913295D01*
X1315891Y913201D01*
X1316002Y913075D01*
X1318758Y910960D01*
X1318908Y910886D01*
X1319035Y910775D01*
X1322043Y909038D01*
X1322202Y908984D01*
X1322342Y908890D01*
X1325552Y907561D01*
X1325717Y907528D01*
X1325867Y907454D01*
X1329223Y906555D01*
X1329391Y906544D01*
X1329550Y906490D01*
X1332994Y906036D01*
X1333162Y906047D01*
X1333327Y906014D01*
X1336800D01*
X1336965Y906047D01*
X1337133Y906036D01*
X1340577Y906490D01*
X1340736Y906544D01*
X1340904Y906555D01*
X1344260Y907454D01*
X1344410Y907528D01*
X1344575Y907561D01*
X1347785Y908890D01*
X1347924Y908984D01*
X1348084Y909038D01*
X1351092Y910775D01*
X1351219Y910886D01*
X1351369Y910960D01*
X1354125Y913075D01*
X1354236Y913201D01*
X1354376Y913295D01*
X1356832Y915751D01*
X1356926Y915891D01*
X1357052Y916002D01*
X1359167Y918757D01*
X1359241Y918908D01*
X1359352Y919035D01*
X1361089Y922043D01*
X1361143Y922202D01*
X1361237Y922342D01*
X1362566Y925552D01*
X1362599Y925716D01*
X1362673Y925867D01*
X1363572Y929223D01*
X1363583Y929391D01*
X1363637Y929550D01*
X1364091Y932994D01*
X1364080Y933162D01*
X1364113Y933327D01*
Y936800D01*
X1364080Y936965D01*
X1364091Y937133D01*
X1363637Y940577D01*
X1363583Y940736D01*
X1363572Y940904D01*
X1362673Y944260D01*
X1362599Y944410D01*
X1362566Y944575D01*
X1361237Y947785D01*
X1361143Y947924D01*
X1361089Y948084D01*
X1359352Y951092D01*
X1359241Y951219D01*
X1359167Y951369D01*
X1357052Y954125D01*
X1356926Y954236D01*
X1356832Y954376D01*
X1354376Y956832D01*
X1354236Y956926D01*
X1354125Y957052D01*
X1351369Y959167D01*
X1351219Y959241D01*
X1351092Y959352D01*
X1348084Y961089D01*
X1347924Y961143D01*
X1347785Y961236D01*
X1344575Y962566D01*
X1344411Y962599D01*
X1344260Y962673D01*
X1340904Y963572D01*
X1340736Y963583D01*
X1340577Y963637D01*
X1337133Y964091D01*
X1336965Y964080D01*
X1336800Y964112D01*
D02*
G37*
G36*
X66800D02*
X63327D01*
X63162Y964080D01*
X62994Y964091D01*
X59550Y963637D01*
X59391Y963583D01*
X59223Y963572D01*
X55867Y962673D01*
X55717Y962599D01*
X55552Y962566D01*
X52342Y961236D01*
X52203Y961143D01*
X52043Y961089D01*
X49035Y959352D01*
X48908Y959241D01*
X48758Y959167D01*
X46002Y957052D01*
X45891Y956926D01*
X45751Y956832D01*
X43295Y954376D01*
X43201Y954236D01*
X43075Y954125D01*
X40960Y951369D01*
X40886Y951219D01*
X40775Y951092D01*
X39038Y948084D01*
X38984Y947924D01*
X38890Y947785D01*
X37561Y944575D01*
X37528Y944410D01*
X37454Y944260D01*
X36555Y940904D01*
X36544Y940736D01*
X36490Y940577D01*
X36036Y937133D01*
X36047Y936965D01*
X36014Y936800D01*
Y933327D01*
X36047Y933162D01*
X36036Y932994D01*
X36490Y929550D01*
X36544Y929391D01*
X36555Y929223D01*
X37454Y925867D01*
X37528Y925716D01*
X37561Y925552D01*
X38890Y922342D01*
X38984Y922203D01*
X39038Y922043D01*
X40775Y919035D01*
X40886Y918908D01*
X40960Y918757D01*
X43075Y916002D01*
X43201Y915891D01*
X43295Y915751D01*
X45751Y913295D01*
X45891Y913201D01*
X46002Y913075D01*
X48758Y910960D01*
X48908Y910886D01*
X49035Y910775D01*
X52043Y909038D01*
X52202Y908984D01*
X52342Y908890D01*
X55552Y907561D01*
X55717Y907528D01*
X55867Y907454D01*
X59223Y906555D01*
X59391Y906544D01*
X59550Y906490D01*
X62994Y906036D01*
X63162Y906047D01*
X63327Y906014D01*
X66800D01*
X66965Y906047D01*
X67133Y906036D01*
X70577Y906490D01*
X70736Y906544D01*
X70904Y906555D01*
X74260Y907454D01*
X74410Y907528D01*
X74575Y907561D01*
X77785Y908890D01*
X77924Y908984D01*
X78084Y909038D01*
X81092Y910775D01*
X81219Y910886D01*
X81369Y910960D01*
X84125Y913075D01*
X84236Y913201D01*
X84376Y913295D01*
X86832Y915751D01*
X86926Y915891D01*
X87052Y916002D01*
X89167Y918757D01*
X89241Y918908D01*
X89352Y919035D01*
X91089Y922043D01*
X91143Y922202D01*
X91236Y922342D01*
X92566Y925552D01*
X92599Y925716D01*
X92673Y925867D01*
X93572Y929223D01*
X93583Y929391D01*
X93637Y929550D01*
X94091Y932994D01*
X94080Y933162D01*
X94113Y933327D01*
Y936800D01*
X94080Y936965D01*
X94091Y937133D01*
X93637Y940577D01*
X93583Y940736D01*
X93572Y940904D01*
X92673Y944260D01*
X92599Y944410D01*
X92566Y944575D01*
X91236Y947785D01*
X91143Y947924D01*
X91089Y948084D01*
X89352Y951092D01*
X89241Y951219D01*
X89167Y951369D01*
X87052Y954125D01*
X86926Y954236D01*
X86832Y954376D01*
X84376Y956832D01*
X84236Y956926D01*
X84125Y957052D01*
X81369Y959167D01*
X81219Y959241D01*
X81092Y959352D01*
X78084Y961089D01*
X77924Y961143D01*
X77785Y961236D01*
X74575Y962566D01*
X74411Y962599D01*
X74260Y962673D01*
X70904Y963572D01*
X70736Y963583D01*
X70577Y963637D01*
X67133Y964091D01*
X66965Y964080D01*
X66800Y964112D01*
D02*
G37*
G36*
X1194564Y815550D02*
X1191536D01*
X1188611Y814766D01*
X1185989Y813252D01*
X1183848Y811111D01*
X1182334Y808489D01*
X1181964Y807109D01*
X1035400D01*
X1034230Y806876D01*
X1033237Y806213D01*
X756333Y529309D01*
X653267D01*
X653267Y529309D01*
X652096Y529076D01*
X651104Y528413D01*
X633250Y510559D01*
X612680D01*
X612680Y510559D01*
X611510Y510326D01*
X610517Y509663D01*
X610517Y509663D01*
X603678Y502824D01*
X602609D01*
X600955Y502139D01*
X599689Y500873D01*
X599004Y499219D01*
Y497429D01*
X597430Y496306D01*
X596401Y496043D01*
X594747Y496728D01*
X592957D01*
X591303Y496043D01*
X590037Y494777D01*
X589352Y493123D01*
Y491333D01*
X590037Y489679D01*
X591303Y488413D01*
X592957Y487728D01*
X594747D01*
X596401Y488413D01*
X597157Y489169D01*
X641937D01*
X641937Y489169D01*
X643108Y489402D01*
X644100Y490065D01*
X668626Y514591D01*
X764550D01*
X764550Y514591D01*
X765721Y514824D01*
X766713Y515487D01*
X1008117Y756891D01*
X1181714D01*
X1182084Y755511D01*
X1183598Y752889D01*
X1185739Y750748D01*
X1188361Y749234D01*
X1191286Y748450D01*
X1194314D01*
X1197239Y749234D01*
X1199861Y750748D01*
X1202002Y752889D01*
X1203516Y755511D01*
X1204300Y758436D01*
Y761464D01*
X1203516Y764389D01*
X1202802Y765626D01*
X1213767Y776591D01*
X1296799D01*
X1297066Y775597D01*
X1298448Y773203D01*
X1300403Y771248D01*
X1302797Y769866D01*
X1305468Y769150D01*
X1308232D01*
X1310903Y769866D01*
X1313297Y771248D01*
X1315252Y773203D01*
X1316634Y775597D01*
X1317350Y778268D01*
Y781032D01*
X1316634Y783703D01*
X1315252Y786097D01*
X1313297Y788052D01*
X1310903Y789434D01*
X1308232Y790150D01*
X1305468D01*
X1302797Y789434D01*
X1300403Y788052D01*
X1298448Y786097D01*
X1297066Y783703D01*
X1296799Y782709D01*
X1212500D01*
X1211329Y782476D01*
X1210337Y781813D01*
X1210337Y781813D01*
X1198476Y769952D01*
X1197239Y770666D01*
X1194314Y771450D01*
X1191286D01*
X1188361Y770666D01*
X1185739Y769152D01*
X1183598Y767011D01*
X1182084Y764389D01*
X1181714Y763009D01*
X1006850D01*
X1005679Y762776D01*
X1004687Y762113D01*
X1004687Y762113D01*
X763283Y520709D01*
X667359D01*
X666189Y520476D01*
X665197Y519813D01*
X665196Y519813D01*
X640670Y495287D01*
X609282D01*
X607945Y497287D01*
X608004Y497429D01*
Y498498D01*
X613947Y504441D01*
X634517D01*
X634517Y504441D01*
X635688Y504674D01*
X636680Y505337D01*
X654534Y523191D01*
X757600D01*
X757600Y523191D01*
X758771Y523424D01*
X759763Y524087D01*
X1036667Y800991D01*
X1181964D01*
X1182334Y799611D01*
X1183848Y796989D01*
X1185989Y794848D01*
X1188611Y793334D01*
X1191536Y792550D01*
X1194564D01*
X1197489Y793334D01*
X1200111Y794848D01*
X1202252Y796989D01*
X1203766Y799611D01*
X1204152Y801050D01*
X1296813Y801538D01*
X1297066Y800597D01*
X1298448Y798203D01*
X1300403Y796248D01*
X1302797Y794866D01*
X1305468Y794150D01*
X1308232D01*
X1310903Y794866D01*
X1313297Y796248D01*
X1315252Y798203D01*
X1316634Y800597D01*
X1317350Y803268D01*
Y806032D01*
X1316634Y808703D01*
X1315252Y811097D01*
X1313297Y813052D01*
X1310903Y814434D01*
X1308232Y815150D01*
X1305468D01*
X1302797Y814434D01*
X1300403Y813052D01*
X1298448Y811097D01*
X1297066Y808703D01*
X1296785Y807656D01*
X1204120Y807167D01*
X1203766Y808489D01*
X1202252Y811111D01*
X1200111Y813252D01*
X1197489Y814766D01*
X1194564Y815550D01*
D02*
G37*
G36*
X1311350Y766251D02*
X1308120D01*
Y755920D01*
X1318451D01*
Y759150D01*
X1318209Y760988D01*
X1317499Y762700D01*
X1316371Y764171D01*
X1314900Y765299D01*
X1313188Y766009D01*
X1311350Y766251D01*
D02*
G37*
G36*
X1305580D02*
X1302350D01*
X1300512Y766009D01*
X1298800Y765299D01*
X1297329Y764171D01*
X1296201Y762700D01*
X1295491Y760988D01*
X1295249Y759150D01*
Y755920D01*
X1305580D01*
Y766251D01*
D02*
G37*
G36*
X1318451Y753380D02*
X1308120D01*
Y743049D01*
X1311350D01*
X1313188Y743291D01*
X1314900Y744001D01*
X1316371Y745129D01*
X1317499Y746600D01*
X1318209Y748312D01*
X1318451Y750150D01*
Y753380D01*
D02*
G37*
G36*
X1305580D02*
X1295249D01*
Y750150D01*
X1295491Y748312D01*
X1296201Y746600D01*
X1297329Y745129D01*
X1298800Y744001D01*
X1300512Y743291D01*
X1302350Y743049D01*
X1305580D01*
Y753380D01*
D02*
G37*
G36*
X1305834Y851174D02*
X371200D01*
X369054Y850747D01*
X367235Y849531D01*
X345911Y828208D01*
X175789D01*
X173643Y827781D01*
X171824Y826565D01*
X170608Y824746D01*
X170181Y822600D01*
X170608Y820454D01*
X171824Y818635D01*
X173643Y817419D01*
X175789Y816992D01*
X325891D01*
Y592358D01*
X175789D01*
X173643Y591931D01*
X171824Y590715D01*
X170608Y588896D01*
X170181Y586750D01*
X170608Y584604D01*
X171824Y582785D01*
X173643Y581569D01*
X175789Y581142D01*
X325891D01*
Y378358D01*
X175789D01*
X173643Y377931D01*
X171824Y376715D01*
X170608Y374896D01*
X170181Y372750D01*
X170608Y370604D01*
X171824Y368785D01*
X173643Y367569D01*
X175789Y367142D01*
X348150D01*
X350296Y367569D01*
X352115Y368785D01*
X353331Y370604D01*
X353758Y372750D01*
X353331Y374896D01*
X352115Y376715D01*
X350296Y377931D01*
X348150Y378358D01*
X337106D01*
Y581142D01*
X567577D01*
X585237Y563483D01*
Y562683D01*
X585663Y560537D01*
X586879Y558718D01*
X588698Y557503D01*
X590844Y557076D01*
X592990Y557503D01*
X594810Y558718D01*
X596025Y560537D01*
X596452Y562683D01*
Y565806D01*
X596025Y567952D01*
X594810Y569771D01*
X573865Y590715D01*
X572046Y591931D01*
X569900Y592358D01*
X337106D01*
Y816992D01*
X348234D01*
X350380Y817419D01*
X352199Y818635D01*
X373523Y839958D01*
X1303511D01*
X1351342Y792127D01*
Y737723D01*
X1309269Y695650D01*
X1307015D01*
X1304726Y695037D01*
X1302674Y693852D01*
X1300998Y692176D01*
X1299813Y690124D01*
X1299200Y687835D01*
Y685465D01*
X1299813Y683176D01*
X1300998Y681124D01*
X1302674Y679448D01*
X1304726Y678263D01*
X1307015Y677650D01*
X1309385D01*
X1311674Y678263D01*
X1313726Y679448D01*
X1315402Y681124D01*
X1316587Y683176D01*
X1317200Y685465D01*
Y687719D01*
X1360915Y731435D01*
X1362131Y733254D01*
X1362558Y735400D01*
Y794450D01*
X1362131Y796596D01*
X1360915Y798415D01*
X1309799Y849531D01*
X1307980Y850747D01*
X1305834Y851174D01*
D02*
G37*
G36*
X1311950Y671813D02*
X1309470D01*
Y662920D01*
X1318363D01*
Y665400D01*
X1317875Y667854D01*
X1316485Y669935D01*
X1314404Y671325D01*
X1311950Y671813D01*
D02*
G37*
G36*
X1306930D02*
X1304450D01*
X1301996Y671325D01*
X1299915Y669935D01*
X1298525Y667854D01*
X1298037Y665400D01*
Y662920D01*
X1306930D01*
Y671813D01*
D02*
G37*
G36*
X1318363Y660380D02*
X1309470D01*
Y651487D01*
X1311950D01*
X1314404Y651975D01*
X1316485Y653365D01*
X1317875Y655446D01*
X1318363Y657900D01*
Y660380D01*
D02*
G37*
G36*
X1306930D02*
X1298037D01*
Y657900D01*
X1298525Y655446D01*
X1299915Y653365D01*
X1301996Y651975D01*
X1304450Y651487D01*
X1306930D01*
Y660380D01*
D02*
G37*
G36*
X1336800Y94113D02*
X1333327D01*
X1333162Y94080D01*
X1332994Y94091D01*
X1329550Y93637D01*
X1329391Y93583D01*
X1329223Y93572D01*
X1325867Y92673D01*
X1325717Y92599D01*
X1325552Y92566D01*
X1322342Y91236D01*
X1322202Y91143D01*
X1322043Y91089D01*
X1319035Y89352D01*
X1318908Y89241D01*
X1318758Y89167D01*
X1316002Y87052D01*
X1315891Y86926D01*
X1315751Y86832D01*
X1313295Y84376D01*
X1313201Y84236D01*
X1313075Y84125D01*
X1310960Y81369D01*
X1310886Y81219D01*
X1310775Y81092D01*
X1309038Y78084D01*
X1308984Y77924D01*
X1308890Y77785D01*
X1307561Y74575D01*
X1307528Y74411D01*
X1307454Y74260D01*
X1306555Y70904D01*
X1306544Y70736D01*
X1306490Y70577D01*
X1306036Y67133D01*
X1306047Y66965D01*
X1306015Y66800D01*
Y63327D01*
X1306047Y63162D01*
X1306036Y62994D01*
X1306490Y59550D01*
X1306544Y59391D01*
X1306555Y59223D01*
X1307454Y55867D01*
X1307528Y55717D01*
X1307561Y55552D01*
X1308890Y52342D01*
X1308984Y52203D01*
X1309038Y52043D01*
X1310775Y49035D01*
X1310886Y48908D01*
X1310960Y48758D01*
X1313075Y46002D01*
X1313201Y45891D01*
X1313295Y45751D01*
X1315751Y43295D01*
X1315891Y43201D01*
X1316002Y43075D01*
X1318758Y40960D01*
X1318908Y40886D01*
X1319035Y40775D01*
X1322043Y39038D01*
X1322202Y38984D01*
X1322342Y38890D01*
X1325552Y37561D01*
X1325717Y37528D01*
X1325867Y37454D01*
X1329223Y36555D01*
X1329391Y36544D01*
X1329550Y36490D01*
X1332994Y36036D01*
X1333162Y36047D01*
X1333327Y36014D01*
X1336800D01*
X1336965Y36047D01*
X1337133Y36036D01*
X1340577Y36490D01*
X1340736Y36544D01*
X1340904Y36555D01*
X1344260Y37454D01*
X1344410Y37528D01*
X1344575Y37561D01*
X1347785Y38890D01*
X1347924Y38984D01*
X1348084Y39038D01*
X1351092Y40775D01*
X1351219Y40886D01*
X1351369Y40960D01*
X1354125Y43075D01*
X1354236Y43201D01*
X1354376Y43295D01*
X1356832Y45751D01*
X1356926Y45891D01*
X1357052Y46002D01*
X1359167Y48758D01*
X1359241Y48908D01*
X1359352Y49035D01*
X1361089Y52043D01*
X1361143Y52202D01*
X1361237Y52342D01*
X1362566Y55552D01*
X1362599Y55717D01*
X1362673Y55867D01*
X1363572Y59223D01*
X1363583Y59391D01*
X1363637Y59550D01*
X1364091Y62994D01*
X1364080Y63162D01*
X1364113Y63327D01*
Y66800D01*
X1364080Y66965D01*
X1364091Y67133D01*
X1363637Y70577D01*
X1363583Y70736D01*
X1363572Y70904D01*
X1362673Y74260D01*
X1362599Y74410D01*
X1362566Y74575D01*
X1361237Y77785D01*
X1361143Y77924D01*
X1361089Y78084D01*
X1359352Y81092D01*
X1359241Y81219D01*
X1359167Y81369D01*
X1357052Y84125D01*
X1356926Y84236D01*
X1356832Y84376D01*
X1354376Y86832D01*
X1354236Y86926D01*
X1354125Y87052D01*
X1351369Y89167D01*
X1351219Y89241D01*
X1351092Y89352D01*
X1348084Y91089D01*
X1347924Y91143D01*
X1347785Y91236D01*
X1344575Y92566D01*
X1344411Y92599D01*
X1344260Y92673D01*
X1340904Y93572D01*
X1340736Y93583D01*
X1340577Y93637D01*
X1337133Y94091D01*
X1336965Y94080D01*
X1336800Y94113D01*
D02*
G37*
G36*
X66800D02*
X63327D01*
X63162Y94080D01*
X62994Y94091D01*
X59550Y93637D01*
X59391Y93583D01*
X59223Y93572D01*
X55867Y92673D01*
X55717Y92599D01*
X55552Y92566D01*
X52342Y91236D01*
X52203Y91143D01*
X52043Y91089D01*
X49035Y89352D01*
X48908Y89241D01*
X48758Y89167D01*
X46002Y87052D01*
X45891Y86926D01*
X45751Y86832D01*
X43295Y84376D01*
X43201Y84236D01*
X43075Y84125D01*
X40960Y81369D01*
X40886Y81219D01*
X40775Y81092D01*
X39038Y78084D01*
X38984Y77924D01*
X38890Y77785D01*
X37561Y74575D01*
X37528Y74411D01*
X37454Y74260D01*
X36555Y70904D01*
X36544Y70736D01*
X36490Y70577D01*
X36036Y67133D01*
X36047Y66965D01*
X36014Y66800D01*
Y63327D01*
X36047Y63162D01*
X36036Y62994D01*
X36490Y59550D01*
X36544Y59391D01*
X36555Y59223D01*
X37454Y55867D01*
X37528Y55717D01*
X37561Y55552D01*
X38890Y52342D01*
X38984Y52203D01*
X39038Y52043D01*
X40775Y49035D01*
X40886Y48908D01*
X40960Y48758D01*
X43075Y46002D01*
X43201Y45891D01*
X43295Y45751D01*
X45751Y43295D01*
X45891Y43201D01*
X46002Y43075D01*
X48758Y40960D01*
X48908Y40886D01*
X49035Y40775D01*
X52043Y39038D01*
X52202Y38984D01*
X52342Y38890D01*
X55552Y37561D01*
X55717Y37528D01*
X55867Y37454D01*
X59223Y36555D01*
X59391Y36544D01*
X59550Y36490D01*
X62994Y36036D01*
X63162Y36047D01*
X63327Y36014D01*
X66800D01*
X66965Y36047D01*
X67133Y36036D01*
X70577Y36490D01*
X70736Y36544D01*
X70904Y36555D01*
X74260Y37454D01*
X74410Y37528D01*
X74575Y37561D01*
X77785Y38890D01*
X77924Y38984D01*
X78084Y39038D01*
X81092Y40775D01*
X81219Y40886D01*
X81369Y40960D01*
X84125Y43075D01*
X84236Y43201D01*
X84376Y43295D01*
X86832Y45751D01*
X86926Y45891D01*
X87052Y46002D01*
X89167Y48758D01*
X89241Y48908D01*
X89352Y49035D01*
X91089Y52043D01*
X91143Y52202D01*
X91236Y52342D01*
X92566Y55552D01*
X92599Y55717D01*
X92673Y55867D01*
X93572Y59223D01*
X93583Y59391D01*
X93637Y59550D01*
X94091Y62994D01*
X94080Y63162D01*
X94113Y63327D01*
Y66800D01*
X94080Y66965D01*
X94091Y67133D01*
X93637Y70577D01*
X93583Y70736D01*
X93572Y70904D01*
X92673Y74260D01*
X92599Y74410D01*
X92566Y74575D01*
X91236Y77785D01*
X91143Y77924D01*
X91089Y78084D01*
X89352Y81092D01*
X89241Y81219D01*
X89167Y81369D01*
X87052Y84125D01*
X86926Y84236D01*
X86832Y84376D01*
X84376Y86832D01*
X84236Y86926D01*
X84125Y87052D01*
X81369Y89167D01*
X81219Y89241D01*
X81092Y89352D01*
X78084Y91089D01*
X77924Y91143D01*
X77785Y91236D01*
X74575Y92566D01*
X74411Y92599D01*
X74260Y92673D01*
X70904Y93572D01*
X70736Y93583D01*
X70577Y93637D01*
X67133Y94091D01*
X66965Y94080D01*
X66800Y94113D01*
D02*
G37*
%LPD*%
D16*
X26762Y670000D02*
D03*
Y765000D02*
D03*
X1373492Y550000D02*
D03*
Y455000D02*
D03*
X26762Y452500D02*
D03*
Y547500D02*
D03*
Y235000D02*
D03*
Y330000D02*
D03*
D34*
X1306850Y754650D02*
D03*
D35*
X1308200Y661650D02*
D03*
D36*
X1306850Y779650D02*
D03*
Y804650D02*
D03*
D37*
X1192800Y759950D02*
D03*
X1193050Y804050D02*
D03*
D38*
X1308200Y686650D02*
D03*
D39*
X609605Y441561D02*
D03*
X564029Y463871D02*
D03*
X623290Y449678D02*
D03*
X567578Y456701D02*
D03*
X628469Y455775D02*
D03*
X632170Y462868D02*
D03*
X572555Y450438D02*
D03*
X562170Y471652D02*
D03*
X616877Y444896D02*
D03*
X585986Y441910D02*
D03*
X578817Y445460D02*
D03*
X601766Y439963D02*
D03*
X593767Y440048D02*
D03*
X294483Y492725D02*
D03*
X119121Y492733D02*
D03*
X170185Y492736D02*
D03*
X178185Y492770D02*
D03*
X170185Y275244D02*
D03*
X248744Y290870D02*
D03*
X650000Y513750D02*
D03*
X635000Y523183D02*
D03*
Y475439D02*
D03*
X668177Y509726D02*
D03*
X620838Y515056D02*
D03*
X620191Y475396D02*
D03*
X649726Y479110D02*
D03*
X649794Y471110D02*
D03*
X302506Y297504D02*
D03*
Y267504D02*
D03*
X306818Y307072D02*
D03*
X317506D02*
D03*
X318193Y260600D02*
D03*
X307506D02*
D03*
X302506Y514928D02*
D03*
Y484928D02*
D03*
X306818Y524496D02*
D03*
X317506D02*
D03*
X318193Y478024D02*
D03*
X307506D02*
D03*
X302506Y732352D02*
D03*
Y702352D02*
D03*
X306818Y741920D02*
D03*
X317506D02*
D03*
X318193Y695449D02*
D03*
X307506D02*
D03*
X129278Y732470D02*
D03*
X159278D02*
D03*
Y702470D02*
D03*
X129278D02*
D03*
X133590Y742038D02*
D03*
X144278D02*
D03*
X154278D02*
D03*
X154965Y695566D02*
D03*
X144965D02*
D03*
X134278D02*
D03*
X129192Y514866D02*
D03*
X159192D02*
D03*
Y484866D02*
D03*
X129192D02*
D03*
X133504Y524434D02*
D03*
X144192D02*
D03*
X154192D02*
D03*
X154880Y477963D02*
D03*
X144880D02*
D03*
X134192D02*
D03*
X134203Y260604D02*
D03*
X144890D02*
D03*
X154890D02*
D03*
X154203Y307075D02*
D03*
X144203D02*
D03*
X133515D02*
D03*
X129203Y267507D02*
D03*
X159203D02*
D03*
Y297507D02*
D03*
X129203D02*
D03*
X23114Y273812D02*
D03*
X22860Y291084D02*
D03*
X23368Y708914D02*
D03*
X22860Y726186D02*
D03*
X684109Y510768D02*
D03*
X676177Y509726D02*
D03*
X663827Y495267D02*
D03*
X671827D02*
D03*
X679827D02*
D03*
X687731Y494036D02*
D03*
X1391666Y511098D02*
D03*
X1382067D02*
D03*
X1374185Y509728D02*
D03*
X1366185D02*
D03*
X1358185D02*
D03*
X1350185D02*
D03*
X1342185D02*
D03*
X1334185D02*
D03*
X1326185D02*
D03*
X1318185D02*
D03*
X1310185D02*
D03*
X1302185D02*
D03*
X1294185D02*
D03*
X1286185D02*
D03*
X1278185D02*
D03*
X1270185D02*
D03*
X1262185D02*
D03*
X1254185D02*
D03*
X1246185D02*
D03*
X1238185D02*
D03*
X1230185D02*
D03*
X1222185D02*
D03*
X1214185D02*
D03*
X1206185D02*
D03*
X1198185D02*
D03*
X1190185D02*
D03*
X1182185D02*
D03*
X1174185D02*
D03*
X1166185D02*
D03*
X1158185D02*
D03*
X1150185D02*
D03*
X1142185D02*
D03*
X1134185D02*
D03*
X1126185D02*
D03*
X1118185D02*
D03*
X1110185D02*
D03*
X1102185D02*
D03*
X1094185D02*
D03*
X1086185D02*
D03*
X1078185D02*
D03*
X1070185D02*
D03*
X1062185D02*
D03*
X1054185D02*
D03*
X1046185D02*
D03*
X1038185D02*
D03*
X1030185D02*
D03*
X1022186D02*
D03*
X1014185D02*
D03*
X1006186D02*
D03*
X998186D02*
D03*
X990185D02*
D03*
X982186D02*
D03*
X974186D02*
D03*
X966186D02*
D03*
X958186D02*
D03*
X950186D02*
D03*
X942186D02*
D03*
X934186D02*
D03*
X926186D02*
D03*
X918186D02*
D03*
X910186D02*
D03*
X902186D02*
D03*
X894186D02*
D03*
X886186D02*
D03*
X878186D02*
D03*
X870186D02*
D03*
X862186D02*
D03*
X854186D02*
D03*
X846186D02*
D03*
X838186D02*
D03*
X830186D02*
D03*
X822186D02*
D03*
X814186D02*
D03*
X806186D02*
D03*
X798186D02*
D03*
X790186D02*
D03*
X782186D02*
D03*
X774186D02*
D03*
X766186D02*
D03*
X758186D02*
D03*
X750186D02*
D03*
X742186D02*
D03*
X734186D02*
D03*
X726186D02*
D03*
X718186D02*
D03*
X710186D02*
D03*
X702267Y510860D02*
D03*
X694267Y510885D02*
D03*
X698003Y494036D02*
D03*
X705908Y495269D02*
D03*
X713908D02*
D03*
X721908D02*
D03*
X729908D02*
D03*
X737908D02*
D03*
X745908D02*
D03*
X753908D02*
D03*
X761908D02*
D03*
X769908D02*
D03*
X777908D02*
D03*
X785908D02*
D03*
X793908D02*
D03*
X801908D02*
D03*
X809908D02*
D03*
X817908D02*
D03*
X825908D02*
D03*
X833908D02*
D03*
X841908D02*
D03*
X849908D02*
D03*
X857907D02*
D03*
X865908D02*
D03*
X873907D02*
D03*
X881908D02*
D03*
X889908D02*
D03*
X897907D02*
D03*
X905907D02*
D03*
X913907D02*
D03*
X921907D02*
D03*
X929907D02*
D03*
X937907D02*
D03*
X945907D02*
D03*
X953907D02*
D03*
X961907D02*
D03*
X969907D02*
D03*
X977907D02*
D03*
X985907D02*
D03*
X993907D02*
D03*
X1001907D02*
D03*
X1009907D02*
D03*
X1017907D02*
D03*
X1025907D02*
D03*
X1033907D02*
D03*
X1041907D02*
D03*
X1049907D02*
D03*
X1057907D02*
D03*
X1065907D02*
D03*
X1073907D02*
D03*
X1081907D02*
D03*
X1089907D02*
D03*
X1097907D02*
D03*
X1105907D02*
D03*
X1113907D02*
D03*
X1121907D02*
D03*
X1129907D02*
D03*
X1137907D02*
D03*
X1145907D02*
D03*
X1153907D02*
D03*
X1161907D02*
D03*
X1169907D02*
D03*
X1177907D02*
D03*
X1185907D02*
D03*
X1193907D02*
D03*
X1201907D02*
D03*
X1209907D02*
D03*
X1217907D02*
D03*
X1225907D02*
D03*
X1233907D02*
D03*
X1241907D02*
D03*
X1249907D02*
D03*
X1257907D02*
D03*
X1265907D02*
D03*
X1273907D02*
D03*
X1281907D02*
D03*
X1289907D02*
D03*
X1297907D02*
D03*
X1305907D02*
D03*
X1313907D02*
D03*
X1321907D02*
D03*
X1329907D02*
D03*
X1337907D02*
D03*
X1345907D02*
D03*
X1353907D02*
D03*
X1361906D02*
D03*
X1369906D02*
D03*
X1377000Y493902D02*
D03*
X1385822D02*
D03*
X1394215D02*
D03*
X620273Y531036D02*
D03*
X649732Y531526D02*
D03*
X620274Y523036D02*
D03*
X344430Y710210D02*
D03*
X351530D02*
D03*
X344430Y492152D02*
D03*
X351530D02*
D03*
X15128Y291098D02*
D03*
X7128D02*
D03*
X7203Y273902D02*
D03*
X15203D02*
D03*
X31141Y275274D02*
D03*
X39141D02*
D03*
X47141D02*
D03*
X55141D02*
D03*
X63141D02*
D03*
X71141D02*
D03*
X79141D02*
D03*
X87141D02*
D03*
X95141D02*
D03*
X103141D02*
D03*
X111141D02*
D03*
X119141Y275317D02*
D03*
X102891Y289733D02*
D03*
X94891D02*
D03*
X86891D02*
D03*
X78891D02*
D03*
X70891D02*
D03*
X62891D02*
D03*
X54891D02*
D03*
X46891D02*
D03*
X38891D02*
D03*
X30891D02*
D03*
X250992Y274066D02*
D03*
X240698Y289737D02*
D03*
X232698D02*
D03*
X224698D02*
D03*
X216698D02*
D03*
X208698D02*
D03*
X200698D02*
D03*
X192698D02*
D03*
X184698D02*
D03*
X167675Y292164D02*
D03*
X178185Y275278D02*
D03*
X186185D02*
D03*
X194185D02*
D03*
X202185D02*
D03*
X210185D02*
D03*
X218185D02*
D03*
X226185D02*
D03*
X234185D02*
D03*
X242185D02*
D03*
X256014Y290930D02*
D03*
X270486Y275194D02*
D03*
X278486D02*
D03*
X286486Y275240D02*
D03*
X294486Y275274D02*
D03*
X274037Y289654D02*
D03*
X264576Y291079D02*
D03*
X248741Y707526D02*
D03*
X262578Y709040D02*
D03*
X270494Y710196D02*
D03*
X278494D02*
D03*
X286494Y710232D02*
D03*
X294494Y710196D02*
D03*
X274039Y724656D02*
D03*
X266140Y727639D02*
D03*
X249636D02*
D03*
X240836Y724730D02*
D03*
X232836D02*
D03*
X224836D02*
D03*
X216836D02*
D03*
X208836D02*
D03*
X200836D02*
D03*
X192836D02*
D03*
X184836D02*
D03*
X167683Y727740D02*
D03*
X170185Y710236D02*
D03*
X178185Y710270D02*
D03*
X186185D02*
D03*
X194185D02*
D03*
X202185D02*
D03*
X210185D02*
D03*
X218185D02*
D03*
X226185D02*
D03*
X234185D02*
D03*
X242185D02*
D03*
X257764Y727639D02*
D03*
X14991Y726098D02*
D03*
X6991D02*
D03*
X7334Y708902D02*
D03*
X15334D02*
D03*
X31275Y710270D02*
D03*
X39275D02*
D03*
X47275D02*
D03*
X55275D02*
D03*
X63275D02*
D03*
X71275D02*
D03*
X79275D02*
D03*
X87275D02*
D03*
X95275D02*
D03*
X103275D02*
D03*
X111275D02*
D03*
X119275Y710310D02*
D03*
X102890Y724730D02*
D03*
X94890D02*
D03*
X86890D02*
D03*
X78891D02*
D03*
X70890D02*
D03*
X62891D02*
D03*
X54890D02*
D03*
X46891D02*
D03*
X38891D02*
D03*
X30891D02*
D03*
X15148Y508598D02*
D03*
X7148D02*
D03*
X7183Y491402D02*
D03*
X15183D02*
D03*
X23622Y489458D02*
D03*
X31121Y492770D02*
D03*
X39121D02*
D03*
X47121D02*
D03*
X55121D02*
D03*
X63121D02*
D03*
X71121D02*
D03*
X79121D02*
D03*
X87121D02*
D03*
X95121D02*
D03*
X103121D02*
D03*
X111121D02*
D03*
X102890Y507230D02*
D03*
X94890D02*
D03*
X86890D02*
D03*
X78891D02*
D03*
X70890D02*
D03*
X62891D02*
D03*
X54890D02*
D03*
X46891D02*
D03*
X38891D02*
D03*
X30891D02*
D03*
X23368Y510794D02*
D03*
X250778Y509616D02*
D03*
X248666Y490474D02*
D03*
X258318Y509616D02*
D03*
X255778Y491301D02*
D03*
X262566Y491540D02*
D03*
X270484Y492678D02*
D03*
X278484D02*
D03*
X286484Y492684D02*
D03*
X274320Y507746D02*
D03*
X266140Y509616D02*
D03*
X240671Y507230D02*
D03*
X232671D02*
D03*
X224671D02*
D03*
X216671D02*
D03*
X208671D02*
D03*
X200671D02*
D03*
X192671D02*
D03*
X184671D02*
D03*
X167754Y509780D02*
D03*
X186185Y492770D02*
D03*
X194185D02*
D03*
X202185D02*
D03*
X210185D02*
D03*
X218185D02*
D03*
X226185D02*
D03*
X234185D02*
D03*
X242185D02*
D03*
X255778Y706252D02*
D03*
X261608Y274037D02*
D03*
X407102Y274218D02*
D03*
X358255Y289820D02*
D03*
X367184Y275362D02*
D03*
X359184D02*
D03*
X399184D02*
D03*
X398255Y289820D02*
D03*
X375184Y275362D02*
D03*
X366255Y289820D02*
D03*
X374255D02*
D03*
X382255D02*
D03*
X390255D02*
D03*
X391184Y275362D02*
D03*
X383184D02*
D03*
X351184D02*
D03*
X343185Y275271D02*
D03*
X406146Y291138D02*
D03*
X359377Y492659D02*
D03*
X358093Y507117D02*
D03*
X632865Y442537D02*
D03*
X631445Y434664D02*
D03*
X629582Y426884D02*
D03*
X627510Y419157D02*
D03*
X624984Y411566D02*
D03*
X622163Y404080D02*
D03*
X619102Y396689D02*
D03*
X615559Y389516D02*
D03*
X611823Y382442D02*
D03*
X607741Y375562D02*
D03*
X603329Y368889D02*
D03*
X598737Y362338D02*
D03*
X593717Y356109D02*
D03*
X588505Y350040D02*
D03*
X583054Y344185D02*
D03*
X577270Y338658D02*
D03*
X571339Y333289D02*
D03*
X565110Y328269D02*
D03*
X558680Y323509D02*
D03*
X552108Y318947D02*
D03*
X545242Y314842D02*
D03*
X538267Y310924D02*
D03*
X531113Y307343D02*
D03*
X523787Y304129D02*
D03*
X516377Y301114D02*
D03*
X508787Y298588D02*
D03*
X501116Y296316D02*
D03*
X493364Y294337D02*
D03*
X485508Y292830D02*
D03*
X477613Y291536D02*
D03*
X469659Y290681D02*
D03*
X461675Y290168D02*
D03*
X453681Y289883D02*
D03*
X445681Y289907D02*
D03*
X437681D02*
D03*
X429681D02*
D03*
X421758Y291018D02*
D03*
X413759Y291090D02*
D03*
X417266Y274218D02*
D03*
X425171Y275449D02*
D03*
X433171D02*
D03*
X441171D02*
D03*
X449171D02*
D03*
X457171Y275495D02*
D03*
X465166Y275781D02*
D03*
X473136Y276468D02*
D03*
X481090Y277323D02*
D03*
X488968Y278717D02*
D03*
X496819Y280251D02*
D03*
X504571Y282230D02*
D03*
X512254Y284457D02*
D03*
X519845Y286983D02*
D03*
X527300Y289886D02*
D03*
X534691Y292948D02*
D03*
X541858Y296503D02*
D03*
X548960Y300184D02*
D03*
X555840Y304266D02*
D03*
X562587Y308566D02*
D03*
X569158Y313129D02*
D03*
X575494Y318012D02*
D03*
X581724Y323032D02*
D03*
X587600Y328460D02*
D03*
X593379Y333992D02*
D03*
X598830Y339847D02*
D03*
X604094Y345872D02*
D03*
X609114Y352101D02*
D03*
X613820Y358570D02*
D03*
X618382Y365141D02*
D03*
X622494Y372004D02*
D03*
X626482Y378939D02*
D03*
X630063Y386093D02*
D03*
X633418Y393355D02*
D03*
X636480Y400746D02*
D03*
X639175Y408279D02*
D03*
X641701Y415869D02*
D03*
X643715Y423611D02*
D03*
X645591Y431389D02*
D03*
X647011Y439261D02*
D03*
X648187Y447174D02*
D03*
X649042Y455129D02*
D03*
X649508Y463115D02*
D03*
X648910Y487068D02*
D03*
X535979Y558296D02*
D03*
X530074Y555200D02*
D03*
X523382Y550815D02*
D03*
X517945Y544947D02*
D03*
X514319Y537816D02*
D03*
X512621Y529999D02*
D03*
X512233Y522008D02*
D03*
X509412Y514522D02*
D03*
X503422Y509219D02*
D03*
X495702Y507120D02*
D03*
X487702Y507077D02*
D03*
X479702D02*
D03*
X471703D02*
D03*
X463703D02*
D03*
X455703D02*
D03*
X447703D02*
D03*
X439703D02*
D03*
X431703D02*
D03*
X423721Y507623D02*
D03*
X415751Y508308D02*
D03*
X415932Y491388D02*
D03*
X423892Y492187D02*
D03*
X431880Y492619D02*
D03*
X439880D02*
D03*
X447880D02*
D03*
X455880D02*
D03*
X463880D02*
D03*
X471880D02*
D03*
X479880D02*
D03*
X487880D02*
D03*
X495880Y492608D02*
D03*
X503791Y493801D02*
D03*
X511157Y496921D02*
D03*
X517530Y501757D02*
D03*
X522431Y508080D02*
D03*
X525650Y515404D02*
D03*
X526897Y523306D02*
D03*
X527492Y531284D02*
D03*
X531277Y538332D02*
D03*
X537928Y542778D02*
D03*
X545887Y543588D02*
D03*
X553419Y540891D02*
D03*
X559040Y535199D02*
D03*
X561673Y527644D02*
D03*
X561885Y519647D02*
D03*
Y511647D02*
D03*
Y503647D02*
D03*
Y495647D02*
D03*
Y487647D02*
D03*
Y479647D02*
D03*
X620775Y483375D02*
D03*
X618429Y467593D02*
D03*
X614032Y460909D02*
D03*
X607489Y456307D02*
D03*
X599731Y454351D02*
D03*
X591782Y455251D02*
D03*
X584723Y459015D02*
D03*
X579471Y465050D02*
D03*
X576681Y472547D02*
D03*
X576343Y480540D02*
D03*
Y488540D02*
D03*
Y496540D02*
D03*
Y504540D02*
D03*
Y512540D02*
D03*
Y520540D02*
D03*
X576161Y528538D02*
D03*
X574487Y536361D02*
D03*
X570903Y543513D02*
D03*
X565720Y549607D02*
D03*
X559226Y554279D02*
D03*
X551773Y557187D02*
D03*
X543850Y558296D02*
D03*
X406003Y508308D02*
D03*
X398093Y507117D02*
D03*
X390093D02*
D03*
X382093D02*
D03*
X374093D02*
D03*
X366093D02*
D03*
X367377Y492659D02*
D03*
X375377D02*
D03*
X383377D02*
D03*
X391377D02*
D03*
X399377D02*
D03*
X407275Y491388D02*
D03*
X406146Y725986D02*
D03*
X398255Y724668D02*
D03*
X390255D02*
D03*
X382255D02*
D03*
X374255D02*
D03*
X366255D02*
D03*
X358255D02*
D03*
X359184Y710210D02*
D03*
X367184D02*
D03*
X375184D02*
D03*
X383184D02*
D03*
X391184D02*
D03*
X399184D02*
D03*
X407102Y709066D02*
D03*
X414986D02*
D03*
Y725986D02*
D03*
X424098Y710118D02*
D03*
X432096Y710297D02*
D03*
X440096D02*
D03*
X448096D02*
D03*
X456096D02*
D03*
X464096D02*
D03*
X472096D02*
D03*
X480092Y710034D02*
D03*
X488068Y709421D02*
D03*
X496011Y708464D02*
D03*
X503857Y706903D02*
D03*
X511624Y704987D02*
D03*
X519301Y702735D02*
D03*
X526806Y699967D02*
D03*
X534153Y696799D02*
D03*
X541354Y693316D02*
D03*
X548334Y689407D02*
D03*
X555059Y685074D02*
D03*
X561590Y680454D02*
D03*
X567873Y675501D02*
D03*
X573794Y670121D02*
D03*
X579476Y664490D02*
D03*
X584906Y658615D02*
D03*
X589861Y652334D02*
D03*
X594540Y645845D02*
D03*
X598933Y639159D02*
D03*
X602842Y632179D02*
D03*
X606390Y625009D02*
D03*
X609623Y617692D02*
D03*
X612392Y610186D02*
D03*
X614712Y602530D02*
D03*
X616698Y594780D02*
D03*
X618259Y586934D02*
D03*
X619288Y579001D02*
D03*
X619972Y571030D02*
D03*
X620287Y563036D02*
D03*
X620271Y555036D02*
D03*
X620272Y547036D02*
D03*
X620272Y539036D02*
D03*
X635000Y531036D02*
D03*
Y539036D02*
D03*
X634731Y546865D02*
D03*
X634730Y554865D02*
D03*
X634795Y562864D02*
D03*
X634493Y570859D02*
D03*
X633912Y578837D02*
D03*
X632971Y586782D02*
D03*
X631512Y594648D02*
D03*
X629800Y602462D02*
D03*
X627629Y610162D02*
D03*
X625064Y617740D02*
D03*
X622257Y625231D02*
D03*
X618908Y632496D02*
D03*
X615291Y639632D02*
D03*
X611382Y646612D02*
D03*
X606999Y653304D02*
D03*
X602403Y659852D02*
D03*
X597450Y666135D02*
D03*
X592159Y672135D02*
D03*
X586677Y677962D02*
D03*
X580802Y683392D02*
D03*
X574711Y688578D02*
D03*
X568428Y693531D02*
D03*
X561801Y698012D02*
D03*
X555033Y702277D02*
D03*
X548054Y706186D02*
D03*
X540856Y709678D02*
D03*
X533550Y712937D02*
D03*
X526044Y715706D02*
D03*
X518423Y718138D02*
D03*
X510722Y720307D02*
D03*
X502879Y721884D02*
D03*
X494990Y723206D02*
D03*
X487045Y724147D02*
D03*
X479057Y724589D02*
D03*
X471059Y724755D02*
D03*
X463059D02*
D03*
X455059D02*
D03*
X447059D02*
D03*
X439059D02*
D03*
X431059D02*
D03*
X423104Y725598D02*
D03*
X700788Y590135D02*
D03*
X692788D02*
D03*
X684788D02*
D03*
X676788D02*
D03*
X668788D02*
D03*
X660830Y589323D02*
D03*
X653278Y586683D02*
D03*
X646646Y582209D02*
D03*
X641217Y576333D02*
D03*
X649731Y539526D02*
D03*
X649731Y547526D02*
D03*
X649730Y555526D02*
D03*
X650805Y563453D02*
D03*
X654984Y570275D02*
D03*
X661752Y574540D02*
D03*
X669671Y575677D02*
D03*
X677671D02*
D03*
X685671D02*
D03*
X693671D02*
D03*
X701671D02*
D03*
X768100Y593700D02*
D03*
X759968Y592328D02*
D03*
X753187Y590136D02*
D03*
X745187D02*
D03*
X737187D02*
D03*
X729187D02*
D03*
X721282Y591366D02*
D03*
X710264D02*
D03*
X710478Y574446D02*
D03*
X722252D02*
D03*
X730157Y575676D02*
D03*
X738157D02*
D03*
X746157D02*
D03*
X754157D02*
D03*
X759968Y572008D02*
D03*
X768100D02*
D03*
X775970D02*
D03*
X782574Y577004D02*
D03*
Y588518D02*
D03*
X775970Y593700D02*
D03*
X6604Y240636D02*
D03*
Y229460D02*
D03*
X16510D02*
D03*
Y240636D02*
D03*
X26416D02*
D03*
Y229460D02*
D03*
X36322Y240636D02*
D03*
Y229460D02*
D03*
X46228Y240636D02*
D03*
Y229460D02*
D03*
X6604Y335636D02*
D03*
Y324460D02*
D03*
X16510D02*
D03*
Y335636D02*
D03*
X26416D02*
D03*
Y324460D02*
D03*
X36322Y335636D02*
D03*
Y324460D02*
D03*
X46228Y335636D02*
D03*
Y324460D02*
D03*
X6604Y458136D02*
D03*
Y446960D02*
D03*
X16510D02*
D03*
Y458136D02*
D03*
X26416D02*
D03*
Y446960D02*
D03*
X36322Y458136D02*
D03*
Y446960D02*
D03*
X46228Y458136D02*
D03*
Y446960D02*
D03*
X6604Y553136D02*
D03*
Y541960D02*
D03*
X16510D02*
D03*
Y553136D02*
D03*
X26416D02*
D03*
Y541960D02*
D03*
X36322Y553136D02*
D03*
Y541960D02*
D03*
X46228Y553136D02*
D03*
Y541960D02*
D03*
X6604Y675636D02*
D03*
Y664460D02*
D03*
X16510D02*
D03*
Y675636D02*
D03*
X26416D02*
D03*
Y664460D02*
D03*
X36322Y675636D02*
D03*
Y664460D02*
D03*
X46228Y675636D02*
D03*
Y664460D02*
D03*
Y759460D02*
D03*
Y770636D02*
D03*
X36322Y759460D02*
D03*
Y770636D02*
D03*
X26416Y759460D02*
D03*
Y770636D02*
D03*
X16510D02*
D03*
Y759460D02*
D03*
X6604D02*
D03*
Y770636D02*
D03*
X1394215Y446960D02*
D03*
Y458136D02*
D03*
X1384309Y446960D02*
D03*
Y458136D02*
D03*
X1374403Y446960D02*
D03*
Y458136D02*
D03*
X1364497D02*
D03*
Y446960D02*
D03*
X1354591D02*
D03*
Y458136D02*
D03*
X1394215Y541960D02*
D03*
Y553136D02*
D03*
X1384309Y541960D02*
D03*
Y553136D02*
D03*
X1374403Y541960D02*
D03*
Y553136D02*
D03*
X1364497D02*
D03*
Y541960D02*
D03*
X1354591D02*
D03*
Y553136D02*
D03*
X175789Y372750D02*
D03*
X175789Y822600D02*
D03*
X175789Y586750D02*
D03*
X590844Y562683D02*
D03*
X593852Y492228D02*
D03*
X348234Y822600D02*
D03*
X603504Y498324D02*
D03*
X348150Y372750D02*
D03*
X347650Y586750D02*
D03*
D43*
X593852Y492228D02*
X641937D01*
X667359Y517650D01*
X764550D01*
X603504Y498324D02*
X612680Y507500D01*
X634517D02*
X653267Y526250D01*
X612680Y507500D02*
X634517D01*
X653267Y526250D02*
X757600D01*
X764550Y517650D02*
X1006850Y759950D01*
X1212500Y779650D02*
X1306850D01*
X1192800Y759950D02*
X1212500Y779650D01*
X1006850Y759950D02*
X1192800D01*
X1193050Y804050D02*
X1306850Y804650D01*
X757600Y526250D02*
X1035400Y804050D01*
X1193050D01*
D45*
X641247Y500000D02*
D03*
X635000D02*
D03*
X628469D02*
D03*
X313391Y282437D02*
D03*
X313368Y287404D02*
D03*
X313413Y277470D02*
D03*
X321486Y277353D02*
D03*
X321441Y287286D02*
D03*
X321463Y282319D02*
D03*
X313391Y499861D02*
D03*
X313368Y504828D02*
D03*
X313413Y494894D02*
D03*
X321486Y494776D02*
D03*
X321441Y504710D02*
D03*
X321463Y499743D02*
D03*
X313391Y717285D02*
D03*
X313368Y722252D02*
D03*
X313413Y712318D02*
D03*
X321486Y712200D02*
D03*
X321441Y722134D02*
D03*
X321463Y717167D02*
D03*
X140162Y717403D02*
D03*
X140140Y722370D02*
D03*
X140185Y712436D02*
D03*
X148258Y712318D02*
D03*
X148213Y722252D02*
D03*
X148235Y717285D02*
D03*
X140077Y499799D02*
D03*
X140054Y504766D02*
D03*
X140099Y494832D02*
D03*
X148172Y494715D02*
D03*
X148127Y504649D02*
D03*
X148149Y499682D02*
D03*
X148160Y282323D02*
D03*
X148138Y287290D02*
D03*
X148183Y277356D02*
D03*
X140110Y277473D02*
D03*
X140065Y287407D02*
D03*
X140088Y282440D02*
D03*
D46*
X175789Y822600D02*
X331499D01*
Y822600D02*
X331499Y822600D01*
X331499Y586750D02*
Y822600D01*
X331499Y822600D02*
X348234D01*
X331499Y372750D02*
X348150D01*
X331499Y372750D02*
Y586750D01*
Y372750D02*
X331499Y372750D01*
X175789D02*
X331499D01*
X347650Y586750D02*
X569900D01*
X331499D02*
X347650D01*
X175789D02*
X331499D01*
X569900D02*
X590844Y565806D01*
X348234Y822600D02*
X371200Y845566D01*
X1305834D01*
X1356950Y794450D01*
X590844Y562683D02*
Y565806D01*
X1356950Y735400D02*
Y794450D01*
X1308200Y686650D02*
X1356950Y735400D01*
M02*
