G04*
G04 #@! TF.GenerationSoftware,Altium Limited,Altium Designer,25.8.1 (18)*
G04*
G04 Layer_Physical_Order=1*
G04 Layer_Color=255*
%FSLAX44Y44*%
%MOMM*%
G71*
G04*
G04 #@! TF.SameCoordinates,2120D8EF-05CC-4178-8A97-661A8360891B*
G04*
G04*
G04 #@! TF.FilePolarity,Positive*
G04*
G01*
G75*
%ADD11C,0.2000*%
%ADD14R,0.7154X0.6725*%
%ADD15R,1.0191X0.2622*%
G04:AMPARAMS|DCode=16|XSize=1.0191mm|YSize=0.2622mm|CornerRadius=0.1311mm|HoleSize=0mm|Usage=FLASHONLY|Rotation=0.000|XOffset=0mm|YOffset=0mm|HoleType=Round|Shape=RoundedRectangle|*
%AMROUNDEDRECTD16*
21,1,1.0191,0.0000,0,0,0.0*
21,1,0.7569,0.2622,0,0,0.0*
1,1,0.2622,0.3785,0.0000*
1,1,0.2622,-0.3785,0.0000*
1,1,0.2622,-0.3785,0.0000*
1,1,0.2622,0.3785,0.0000*
%
%ADD16ROUNDEDRECTD16*%
G04:AMPARAMS|DCode=17|XSize=0.2622mm|YSize=1.0191mm|CornerRadius=0.1311mm|HoleSize=0mm|Usage=FLASHONLY|Rotation=0.000|XOffset=0mm|YOffset=0mm|HoleType=Round|Shape=RoundedRectangle|*
%AMROUNDEDRECTD17*
21,1,0.2622,0.7569,0,0,0.0*
21,1,0.0000,1.0191,0,0,0.0*
1,1,0.2622,0.0000,-0.3785*
1,1,0.2622,0.0000,-0.3785*
1,1,0.2622,0.0000,0.3785*
1,1,0.2622,0.0000,0.3785*
%
%ADD17ROUNDEDRECTD17*%
%ADD18R,0.6600X0.3600*%
%ADD19R,4.8000X2.0000*%
G04:AMPARAMS|DCode=20|XSize=0.8461mm|YSize=0.2425mm|CornerRadius=0.1212mm|HoleSize=0mm|Usage=FLASHONLY|Rotation=270.000|XOffset=0mm|YOffset=0mm|HoleType=Round|Shape=RoundedRectangle|*
%AMROUNDEDRECTD20*
21,1,0.8461,0.0000,0,0,270.0*
21,1,0.6036,0.2425,0,0,270.0*
1,1,0.2425,0.0000,-0.3018*
1,1,0.2425,0.0000,0.3018*
1,1,0.2425,0.0000,0.3018*
1,1,0.2425,0.0000,-0.3018*
%
%ADD20ROUNDEDRECTD20*%
G04:AMPARAMS|DCode=21|XSize=0.2425mm|YSize=0.8461mm|CornerRadius=0.1212mm|HoleSize=0mm|Usage=FLASHONLY|Rotation=270.000|XOffset=0mm|YOffset=0mm|HoleType=Round|Shape=RoundedRectangle|*
%AMROUNDEDRECTD21*
21,1,0.2425,0.6036,0,0,270.0*
21,1,0.0000,0.8461,0,0,270.0*
1,1,0.2425,-0.3018,0.0000*
1,1,0.2425,-0.3018,0.0000*
1,1,0.2425,0.3018,0.0000*
1,1,0.2425,0.3018,0.0000*
%
%ADD21ROUNDEDRECTD21*%
%ADD22R,1.9000X0.7000*%
%ADD23R,0.2425X0.8461*%
%ADD25R,1.5494X1.5494*%
%ADD28R,1.9200X1.9200*%
G04:AMPARAMS|DCode=33|XSize=1.8mm|YSize=1.8mm|CornerRadius=0.45mm|HoleSize=0mm|Usage=FLASHONLY|Rotation=270.000|XOffset=0mm|YOffset=0mm|HoleType=Round|Shape=RoundedRectangle|*
%AMROUNDEDRECTD33*
21,1,1.8000,0.9000,0,0,270.0*
21,1,0.9000,1.8000,0,0,270.0*
1,1,0.9000,-0.4500,-0.4500*
1,1,0.9000,-0.4500,0.4500*
1,1,0.9000,0.4500,0.4500*
1,1,0.9000,0.4500,-0.4500*
%
%ADD33ROUNDEDRECTD33*%
G04:AMPARAMS|DCode=34|XSize=1.5mm|YSize=1.5mm|CornerRadius=0.375mm|HoleSize=0mm|Usage=FLASHONLY|Rotation=270.000|XOffset=0mm|YOffset=0mm|HoleType=Round|Shape=RoundedRectangle|*
%AMROUNDEDRECTD34*
21,1,1.5000,0.7500,0,0,270.0*
21,1,0.7500,1.5000,0,0,270.0*
1,1,0.7500,-0.3750,-0.3750*
1,1,0.7500,-0.3750,0.3750*
1,1,0.7500,0.3750,0.3750*
1,1,0.7500,0.3750,-0.3750*
%
%ADD34ROUNDEDRECTD34*%
%ADD35C,1.8000*%
%ADD36C,2.0000*%
%ADD37C,1.5000*%
%ADD38C,0.6000*%
%ADD41C,0.4181*%
%ADD42C,0.3000*%
%ADD43C,0.4181*%
%ADD44C,0.5000*%
%ADD45C,0.2540*%
G36*
X122094Y712470D02*
X122393Y710967D01*
X123244Y709694D01*
X124518Y708843D01*
X126021Y708544D01*
X128535D01*
Y712470D01*
X131075D01*
Y708544D01*
X133590D01*
X133991Y708215D01*
Y707183D01*
X135023D01*
X135351Y706782D01*
Y704268D01*
X139278D01*
Y702998D01*
X140548D01*
Y695539D01*
X140780Y695586D01*
X141778Y696252D01*
X142775Y695586D01*
X143008Y695539D01*
Y702998D01*
X145548D01*
Y695539D01*
X145780Y695586D01*
X146778Y696252D01*
X147775Y695586D01*
X148008Y695539D01*
Y702998D01*
X149278D01*
Y704268D01*
X153204D01*
Y706782D01*
X153533Y707183D01*
X154565D01*
Y708215D01*
X154965Y708544D01*
X157480D01*
Y712470D01*
X160020D01*
Y708544D01*
X162535D01*
X164037Y708843D01*
X165311Y709694D01*
X166162Y710967D01*
X166461Y712470D01*
X167118Y713276D01*
X175802Y713329D01*
X245416D01*
Y712138D01*
X266140D01*
Y713255D01*
X286222D01*
X286403Y713291D01*
X288617D01*
X288798Y713255D01*
X294581D01*
X295322Y712352D01*
X295621Y710850D01*
X296472Y709576D01*
X297746Y708725D01*
X299249Y708426D01*
X301763D01*
Y712352D01*
X304303D01*
Y708426D01*
X306818D01*
X307219Y708097D01*
Y707065D01*
X308251D01*
X308580Y706664D01*
Y704150D01*
X312506D01*
Y702880D01*
X313776D01*
Y695421D01*
X314008Y695468D01*
X315006Y696134D01*
X316003Y695468D01*
X316236Y695421D01*
Y702880D01*
X318776D01*
Y695421D01*
X319008Y695468D01*
X320006Y696134D01*
X321003Y695468D01*
X321236Y695421D01*
Y702880D01*
X322506D01*
Y704150D01*
X326432D01*
Y706664D01*
X326761Y707065D01*
X327793D01*
Y708097D01*
X328193Y708426D01*
X330708D01*
Y712352D01*
X333248D01*
Y708426D01*
X335763D01*
X337265Y708725D01*
X338539Y709576D01*
X339390Y710850D01*
X339689Y712352D01*
X340367Y713178D01*
X348120D01*
X348576Y713268D01*
X402428D01*
Y712164D01*
X423153D01*
Y713355D01*
X470563D01*
X472533Y713355D01*
X472534Y713355D01*
X472553Y713355D01*
X472557Y713355D01*
X472559Y713355D01*
X472562Y713356D01*
X474560Y713352D01*
X484524Y712960D01*
X496274Y711569D01*
X507880Y709261D01*
X519268Y706049D01*
X530370Y701953D01*
X541116Y696999D01*
X551440Y691218D01*
X561278Y684644D01*
X570571Y677318D01*
X579260Y669286D01*
X587292Y660597D01*
X594618Y651304D01*
X601191Y641466D01*
X606973Y631142D01*
X611927Y620396D01*
X616023Y609294D01*
X619235Y597906D01*
X621543Y586300D01*
X622934Y574549D01*
X623320Y564722D01*
X623329Y562726D01*
X623329Y560726D01*
X623333Y520868D01*
X623650Y519272D01*
X623935Y518846D01*
Y515337D01*
X624173Y514140D01*
X624126Y513728D01*
X623600Y512140D01*
X622860D01*
Y511493D01*
X622581Y511326D01*
X620940D01*
Y507500D01*
X618400D01*
Y511326D01*
X616652D01*
X615188Y511035D01*
X613946Y510205D01*
X612461Y510059D01*
X596386Y526134D01*
X597152Y527982D01*
X599146D01*
Y533884D01*
Y539786D01*
X594299D01*
X593903Y541623D01*
Y541640D01*
X594299Y543476D01*
X599146D01*
Y549378D01*
Y555280D01*
X594299D01*
X593903Y557117D01*
Y559378D01*
X594659Y560134D01*
X595344Y561788D01*
Y563578D01*
X594659Y565232D01*
X593393Y566498D01*
X591740Y567183D01*
X589949D01*
X588295Y566498D01*
X587029Y565232D01*
X586344Y563578D01*
Y561788D01*
X587029Y560134D01*
X587786Y559378D01*
Y554240D01*
X585768D01*
Y544516D01*
X587786D01*
Y538746D01*
X585768D01*
Y529022D01*
X586716D01*
X587786Y527350D01*
X588018Y526180D01*
X588681Y525187D01*
X611544Y502324D01*
X610716Y500324D01*
X607546D01*
X607319Y500873D01*
X606053Y502139D01*
X604399Y502824D01*
X602609D01*
X600955Y502139D01*
X599689Y500873D01*
X599004Y499219D01*
Y497429D01*
X597426Y496299D01*
X596401Y496043D01*
X594747Y496728D01*
X592957D01*
X591303Y496043D01*
X590037Y494777D01*
X589352Y493123D01*
Y491333D01*
X590037Y489679D01*
X591303Y488413D01*
X592957Y487728D01*
X594747D01*
X596401Y488413D01*
X597606Y489618D01*
X619612D01*
X619612Y489618D01*
X620197Y489734D01*
X622688D01*
X622860Y489593D01*
Y487860D01*
X623584D01*
X624119Y486267D01*
X624166Y485860D01*
X623928Y484663D01*
Y481153D01*
X623641Y480723D01*
X623326Y479126D01*
X623329Y476221D01*
X623381Y475961D01*
X622921Y471288D01*
X621493Y466581D01*
X619174Y462242D01*
X616053Y458439D01*
X612250Y455318D01*
X607911Y452999D01*
X603203Y451571D01*
X598307Y451088D01*
X593411Y451571D01*
X588703Y452999D01*
X584365Y455318D01*
X580562Y458439D01*
X577441Y462242D01*
X575121Y466581D01*
X573693Y471288D01*
X573399Y474278D01*
X573284Y476229D01*
X573285Y476236D01*
X573285Y476237D01*
X573285Y478228D01*
Y525458D01*
X573297D01*
X572930Y530116D01*
X571840Y534658D01*
X570052Y538974D01*
X567611Y542958D01*
X564577Y546510D01*
X561025Y549544D01*
X557042Y551985D01*
X552725Y553773D01*
X548183Y554863D01*
X543526Y555230D01*
Y555224D01*
X539143Y554879D01*
X534867Y553853D01*
X530805Y552170D01*
X527057Y549873D01*
X523713Y547018D01*
X520858Y543675D01*
X518561Y539926D01*
X516878Y535864D01*
X515852Y531589D01*
X515507Y527206D01*
X515513D01*
Y524232D01*
X515547Y524061D01*
X515174Y520279D01*
X514021Y516477D01*
X512149Y512974D01*
X509629Y509903D01*
X506558Y507383D01*
X503055Y505511D01*
X499253Y504357D01*
X495471Y503985D01*
X495300Y504019D01*
X423326D01*
Y505210D01*
X402601D01*
Y504059D01*
X354209D01*
X352780Y505438D01*
X352780Y506059D01*
Y512038D01*
X350874D01*
Y525888D01*
X351261Y527728D01*
X356108D01*
Y533630D01*
Y539532D01*
X351261D01*
X350874Y541372D01*
Y554590D01*
X351261Y556430D01*
X356108D01*
Y562332D01*
Y568234D01*
X351261D01*
X350874Y570074D01*
Y583610D01*
X351465Y584201D01*
X352150Y585855D01*
Y587645D01*
X351465Y589299D01*
X350199Y590565D01*
X348545Y591250D01*
X346755D01*
X345101Y590565D01*
X343835Y589299D01*
X343150Y587645D01*
Y585855D01*
X343835Y584201D01*
X344756Y583280D01*
Y567194D01*
X342730D01*
Y557470D01*
X344756D01*
Y538492D01*
X342730D01*
Y528768D01*
X344756D01*
Y512038D01*
X343180D01*
Y506077D01*
X341553Y504538D01*
X339943Y504618D01*
X339689Y504928D01*
X339390Y506431D01*
X338539Y507704D01*
X337265Y508555D01*
X335763Y508854D01*
X333248D01*
Y504928D01*
X330708D01*
Y508854D01*
X328193D01*
X327793Y509183D01*
Y510215D01*
X326761D01*
X326432Y510616D01*
Y513130D01*
X322506D01*
Y514400D01*
X321236D01*
Y521859D01*
X321003Y521812D01*
X319729Y520961D01*
X319322Y520352D01*
X318602Y520833D01*
X317506Y521051D01*
X316409Y520833D01*
X315479Y520211D01*
X314532D01*
X313602Y520833D01*
X312506Y521051D01*
X311409Y520833D01*
X310479Y520211D01*
X309858Y519282D01*
X309640Y518185D01*
Y510616D01*
X309311Y510215D01*
X307219D01*
Y508779D01*
X304303D01*
Y504928D01*
X301763D01*
Y508779D01*
X295398D01*
Y504238D01*
X286258D01*
X285459Y504079D01*
X266140D01*
Y505362D01*
X245416D01*
Y504171D01*
X182080D01*
X180589Y505400D01*
X180589Y506171D01*
Y512000D01*
X178848D01*
Y534434D01*
X179244Y536270D01*
X184090D01*
Y542173D01*
Y548075D01*
X179244D01*
X178848Y549911D01*
Y556631D01*
X179244Y558467D01*
X184090D01*
Y564369D01*
Y570272D01*
X179244D01*
X178848Y572108D01*
Y583445D01*
X179604Y584201D01*
X180289Y585855D01*
Y587645D01*
X179604Y589299D01*
X178338Y590565D01*
X176684Y591250D01*
X174894D01*
X173240Y590565D01*
X171974Y589299D01*
X171289Y587645D01*
Y585855D01*
X171974Y584201D01*
X172730Y583445D01*
Y569232D01*
X170712D01*
Y559507D01*
X172730D01*
Y547035D01*
X170712D01*
Y537310D01*
X172730D01*
Y512000D01*
X170989D01*
Y506142D01*
X170989Y505400D01*
X169514Y504133D01*
X166993Y504118D01*
X166375Y504866D01*
X166076Y506369D01*
X165225Y507643D01*
X163951Y508494D01*
X162449Y508792D01*
X159934D01*
Y504866D01*
X157394D01*
Y508792D01*
X154880D01*
X154479Y509121D01*
Y510153D01*
X153447D01*
X153118Y510554D01*
Y513069D01*
X149192D01*
Y514339D01*
X147922D01*
Y521797D01*
X147690Y521751D01*
X146416Y520900D01*
X146009Y520290D01*
X145289Y520771D01*
X144192Y520989D01*
X143095Y520771D01*
X142166Y520150D01*
X141218D01*
X140289Y520771D01*
X139192Y520989D01*
X138095Y520771D01*
X137166Y520150D01*
X136544Y519220D01*
X136326Y518123D01*
Y510554D01*
X135997Y510153D01*
X133905D01*
Y508717D01*
X130990D01*
Y504866D01*
X128450D01*
Y508717D01*
X122084D01*
Y505535D01*
X120666Y504125D01*
X112700Y504171D01*
X112688Y504168D01*
X112676Y504171D01*
X23000D01*
Y505500D01*
X2000D01*
Y712000D01*
X23000D01*
Y713329D01*
X112676D01*
X112688Y713332D01*
X112701Y713329D01*
X121342Y713382D01*
X122094Y712470D01*
D02*
G37*
G36*
X1398000Y508000D02*
X1377000D01*
Y506669D01*
X703782D01*
Y507859D01*
X683058D01*
Y506667D01*
X657858D01*
X657174Y507500D01*
X656883Y508964D01*
X656054Y510205D01*
X654812Y511035D01*
X653348Y511326D01*
X651600D01*
Y507500D01*
X649060D01*
Y511326D01*
X647312D01*
X647140Y511467D01*
Y512140D01*
X646494D01*
X645876Y513772D01*
X645834Y514140D01*
X646072Y515337D01*
Y518847D01*
X646357Y519273D01*
X646674Y520869D01*
X646671Y557506D01*
X646634Y557693D01*
X647024Y561659D01*
X648235Y565651D01*
X650202Y569331D01*
X652849Y572557D01*
X656075Y575204D01*
X659755Y577171D01*
X663747Y578382D01*
X667713Y578772D01*
X667900Y578735D01*
X704902D01*
Y577544D01*
X725626D01*
Y578735D01*
X757388D01*
Y577544D01*
X766419D01*
Y577004D01*
X771266D01*
Y582906D01*
Y588808D01*
X766419D01*
Y588268D01*
X757388D01*
Y587077D01*
X725626D01*
Y588268D01*
X704902D01*
Y587077D01*
X667900D01*
Y587088D01*
X663272Y586724D01*
X658759Y585640D01*
X654470Y583864D01*
X650512Y581438D01*
X646982Y578424D01*
X643968Y574894D01*
X641542Y570936D01*
X639766Y566647D01*
X638682Y562134D01*
X638318Y557506D01*
X638329Y557506D01*
X638331Y536026D01*
X636808Y534975D01*
X636331Y534850D01*
X635000Y535115D01*
X633673Y534851D01*
X633177Y534986D01*
X631673Y536029D01*
X631671Y562683D01*
X631713Y562726D01*
X631713D01*
X631223Y575202D01*
X629756Y587601D01*
X627320Y599847D01*
X623931Y611864D01*
X619609Y623578D01*
X614382Y634916D01*
X608281Y645810D01*
X601344Y656192D01*
X593615Y665997D01*
X585139Y675165D01*
X575971Y683641D01*
X566166Y691370D01*
X555784Y698307D01*
X544890Y704408D01*
X533552Y709635D01*
X521838Y713957D01*
X509821Y717346D01*
X497575Y719782D01*
X485176Y721249D01*
X474542Y721667D01*
X472700Y721739D01*
X472555Y721734D01*
X470555Y721697D01*
X423153D01*
Y722888D01*
X402428D01*
Y721610D01*
X354367D01*
X352780Y722608D01*
X352780Y723610D01*
Y729208D01*
X351166D01*
Y759955D01*
X351261Y761916D01*
X356108D01*
Y767818D01*
Y773720D01*
X351261D01*
X351166Y775681D01*
Y789088D01*
X351689Y790872D01*
X356535D01*
Y796774D01*
Y802676D01*
X351689D01*
X351166Y804460D01*
Y819168D01*
X352049Y820051D01*
X352734Y821705D01*
Y823495D01*
X352049Y825149D01*
X350783Y826415D01*
X349129Y827100D01*
X347339D01*
X345685Y826415D01*
X344419Y825149D01*
X343734Y823495D01*
Y821705D01*
X344419Y820051D01*
X345048Y819422D01*
Y801636D01*
X343157D01*
Y791912D01*
X345048D01*
Y772680D01*
X342730D01*
Y762956D01*
X345048D01*
Y729208D01*
X343180D01*
X343180Y722608D01*
X341631Y721519D01*
X340372D01*
X339689Y722352D01*
X339390Y723855D01*
X338539Y725128D01*
X337265Y725979D01*
X335763Y726278D01*
X333248D01*
Y722352D01*
X330708D01*
Y726278D01*
X328193D01*
X327793Y726607D01*
Y727639D01*
X326761D01*
X326432Y728040D01*
Y730554D01*
X322506D01*
Y731824D01*
X321236D01*
Y739283D01*
X321003Y739236D01*
X319729Y738385D01*
X319322Y737776D01*
X318602Y738257D01*
X317506Y738475D01*
X316409Y738257D01*
X315479Y737635D01*
X314532D01*
X313602Y738257D01*
X312506Y738475D01*
X311409Y738257D01*
X310479Y737635D01*
X309858Y736706D01*
X309640Y735609D01*
Y728040D01*
X309311Y727639D01*
X307219D01*
Y726203D01*
X304303D01*
Y722352D01*
X301763D01*
Y726203D01*
X295398D01*
Y721597D01*
X288979D01*
X288798Y721633D01*
X286258D01*
X286077Y721597D01*
X266140D01*
Y722862D01*
X245416D01*
Y721671D01*
X182080D01*
X180589Y722900D01*
X180589Y723671D01*
Y729500D01*
X178848D01*
Y743857D01*
X179244Y745693D01*
X184090D01*
Y751595D01*
Y757498D01*
X179244D01*
X178848Y759334D01*
Y769906D01*
X179244Y771742D01*
X184090D01*
Y777645D01*
Y783547D01*
X179244D01*
X178848Y785383D01*
Y819295D01*
X179604Y820051D01*
X180289Y821705D01*
Y823495D01*
X179604Y825149D01*
X178338Y826415D01*
X176684Y827100D01*
X174894D01*
X173240Y826415D01*
X171974Y825149D01*
X171289Y823495D01*
Y821705D01*
X171974Y820051D01*
X172730Y819295D01*
Y782507D01*
X170712D01*
Y772783D01*
X172730D01*
Y756458D01*
X170712D01*
Y746733D01*
X172730D01*
Y729500D01*
X170989D01*
Y723642D01*
X170989Y722900D01*
X169514Y721633D01*
X167164Y721618D01*
X166461Y722470D01*
X166162Y723972D01*
X165311Y725246D01*
X164037Y726097D01*
X162535Y726396D01*
X160020D01*
Y722470D01*
X157480D01*
Y726396D01*
X154965D01*
X154565Y726725D01*
Y727757D01*
X153533D01*
X153204Y728158D01*
Y730672D01*
X149278D01*
Y731942D01*
X148008D01*
Y739401D01*
X147775Y739354D01*
X146502Y738503D01*
X146094Y737894D01*
X145374Y738375D01*
X144278Y738593D01*
X143181Y738375D01*
X142251Y737753D01*
X141304D01*
X140374Y738375D01*
X139278Y738593D01*
X138181Y738375D01*
X137251Y737753D01*
X136630Y736824D01*
X136412Y735727D01*
Y728158D01*
X136083Y727757D01*
X133991D01*
Y726321D01*
X131075D01*
Y722470D01*
X128535D01*
Y726321D01*
X122170D01*
Y721729D01*
X112663Y721671D01*
X23000D01*
Y723000D01*
X2000D01*
Y998000D01*
X1398000D01*
Y508000D01*
D02*
G37*
G36*
X547715Y546520D02*
X551744Y545298D01*
X555456Y543314D01*
X558710Y540643D01*
X561381Y537389D01*
X563365Y533676D01*
X564587Y529648D01*
X564981Y525649D01*
X564944Y525458D01*
Y478237D01*
X564925Y476244D01*
X564921Y476184D01*
X565069Y474304D01*
X565332Y470962D01*
X566555Y465867D01*
X568560Y461027D01*
X571297Y456560D01*
X574699Y452576D01*
X578683Y449174D01*
X583150Y446437D01*
X587990Y444432D01*
X593084Y443209D01*
X598307Y442798D01*
X603530Y443209D01*
X608624Y444432D01*
X613464Y446437D01*
X617931Y449174D01*
X621915Y452576D01*
X625317Y456560D01*
X628055Y461027D01*
X630060Y465867D01*
X631283Y470962D01*
X631544Y474285D01*
X631675Y475951D01*
X632160Y477054D01*
X632616Y477849D01*
X633964Y478117D01*
X635000Y478809D01*
X636036Y478117D01*
X637500Y477826D01*
X638327Y477148D01*
X638329Y471650D01*
X638389Y471349D01*
X637929Y458464D01*
X636518Y445342D01*
X634175Y432355D01*
X630911Y419567D01*
X626744Y407045D01*
X621693Y394853D01*
X615786Y383051D01*
X609052Y371702D01*
X601525Y360861D01*
X593244Y350585D01*
X584252Y340926D01*
X574593Y331934D01*
X564317Y323653D01*
X553476Y316126D01*
X542127Y309392D01*
X530325Y303485D01*
X518133Y298434D01*
X505611Y294267D01*
X492823Y291003D01*
X479836Y288660D01*
X466714Y287249D01*
X453828Y286789D01*
X453526Y286849D01*
X423153D01*
Y288040D01*
X402428D01*
Y286762D01*
X354367D01*
X352780Y287760D01*
X352780Y288762D01*
Y294360D01*
X351124D01*
Y306434D01*
X351515Y308272D01*
X356362D01*
Y314174D01*
Y320076D01*
X351515D01*
X351124Y321914D01*
Y334120D01*
X351515Y335958D01*
X356362D01*
Y341860D01*
Y347762D01*
X351515D01*
X351124Y349600D01*
Y369360D01*
X351965Y370201D01*
X352650Y371855D01*
Y373645D01*
X351965Y375299D01*
X350699Y376565D01*
X349045Y377250D01*
X347255D01*
X345601Y376565D01*
X344335Y375299D01*
X343650Y373645D01*
Y371855D01*
X344335Y370201D01*
X345006Y369530D01*
Y346722D01*
X342984D01*
Y336998D01*
X345006D01*
Y319036D01*
X342984D01*
Y309312D01*
X345006D01*
Y294360D01*
X343180D01*
X343180Y287760D01*
X341631Y286671D01*
X340372D01*
X339689Y287504D01*
X339390Y289007D01*
X338539Y290280D01*
X337265Y291131D01*
X335763Y291430D01*
X333248D01*
Y287504D01*
X330708D01*
Y291430D01*
X328193D01*
X327793Y291759D01*
Y292791D01*
X326761D01*
X326432Y293192D01*
Y295706D01*
X322506D01*
Y296976D01*
X321236D01*
Y304435D01*
X321003Y304388D01*
X319729Y303537D01*
X319322Y302928D01*
X318602Y303409D01*
X317506Y303627D01*
X316409Y303409D01*
X315006Y302944D01*
X313602Y303409D01*
X312506Y303627D01*
X311409Y303409D01*
X310479Y302787D01*
X309858Y301858D01*
X309640Y300761D01*
Y293192D01*
X309311Y292791D01*
X307219D01*
Y291355D01*
X304303D01*
Y287504D01*
X301763D01*
Y291355D01*
X295398D01*
Y286675D01*
X287467D01*
X286662Y286515D01*
X286258Y286595D01*
X266140D01*
Y287870D01*
X245416D01*
Y286678D01*
X182080D01*
X180589Y287908D01*
X180589Y288678D01*
Y294508D01*
X178848D01*
Y314697D01*
X179244Y316533D01*
X184090D01*
Y322436D01*
Y328338D01*
X179244D01*
X178848Y330174D01*
Y336605D01*
X179244Y338441D01*
X184090D01*
Y344344D01*
Y350246D01*
X179244D01*
X178848Y352082D01*
Y369445D01*
X179604Y370201D01*
X180289Y371855D01*
Y373645D01*
X179604Y375299D01*
X178338Y376565D01*
X176684Y377250D01*
X174894D01*
X173240Y376565D01*
X171974Y375299D01*
X171289Y373645D01*
Y371855D01*
X171974Y370201D01*
X172730Y369445D01*
Y349206D01*
X170712D01*
Y339481D01*
X172730D01*
Y327298D01*
X170712D01*
Y317573D01*
X172730D01*
Y294508D01*
X170989D01*
Y288649D01*
X170989Y287908D01*
X169514Y286640D01*
X167114Y286626D01*
X166386Y287508D01*
X166087Y289010D01*
X165236Y290284D01*
X163962Y291135D01*
X162460Y291434D01*
X159945D01*
Y287507D01*
X157405D01*
Y291434D01*
X154890D01*
X154490Y291763D01*
Y292794D01*
X153458D01*
X153129Y293195D01*
Y295710D01*
X149203D01*
Y296980D01*
X147933D01*
Y304438D01*
X147700Y304392D01*
X146427Y303541D01*
X146019Y302931D01*
X145300Y303412D01*
X144203Y303630D01*
X143106Y303412D01*
X141703Y302948D01*
X140300Y303412D01*
X139203Y303630D01*
X138106Y303412D01*
X137177Y302791D01*
X136555Y301861D01*
X136337Y300765D01*
Y293195D01*
X136008Y292794D01*
X133916D01*
Y291358D01*
X131001D01*
Y287507D01*
X128461D01*
Y291358D01*
X122095D01*
Y286736D01*
X112650Y286678D01*
X112632Y286675D01*
X23000D01*
Y288000D01*
X2000D01*
Y494500D01*
X23000D01*
Y495829D01*
X112665D01*
X121264Y495779D01*
X122009Y494866D01*
X122308Y493364D01*
X123159Y492090D01*
X124432Y491239D01*
X125935Y490940D01*
X128450D01*
Y494866D01*
X130990D01*
Y490940D01*
X133504D01*
X133905Y490611D01*
Y489579D01*
X134937D01*
X135266Y489179D01*
Y486664D01*
X139192D01*
Y485394D01*
X140462D01*
Y477936D01*
X140695Y477982D01*
X141692Y478648D01*
X142690Y477982D01*
X142922Y477936D01*
Y485394D01*
X145462D01*
Y477936D01*
X145695Y477982D01*
X146692Y478648D01*
X147690Y477982D01*
X147922Y477936D01*
Y485394D01*
X149192D01*
Y486664D01*
X153118D01*
Y489179D01*
X153447Y489579D01*
X154479D01*
Y490611D01*
X154880Y490940D01*
X157394D01*
Y494866D01*
X159934D01*
Y490940D01*
X162449D01*
X163951Y491239D01*
X165225Y492090D01*
X166076Y493364D01*
X166375Y494866D01*
X167118Y495776D01*
X175399Y495827D01*
X175722Y495762D01*
X176058Y495829D01*
X245416D01*
Y494638D01*
X266140D01*
Y495737D01*
X285795D01*
X286258Y495645D01*
X287520Y495896D01*
X294528D01*
X295322Y494928D01*
X295621Y493425D01*
X296472Y492152D01*
X297746Y491301D01*
X299249Y491002D01*
X301763D01*
Y494928D01*
X304303D01*
Y491002D01*
X306818D01*
X307219Y490673D01*
Y489641D01*
X308251D01*
X308580Y489240D01*
Y486726D01*
X312506D01*
Y485456D01*
X313776D01*
Y477997D01*
X314008Y478044D01*
X315006Y478710D01*
X316003Y478044D01*
X316236Y477997D01*
Y485456D01*
X318776D01*
Y477997D01*
X319008Y478044D01*
X320006Y478710D01*
X321003Y478044D01*
X321236Y477997D01*
Y485456D01*
X322506D01*
Y486726D01*
X326432D01*
Y489240D01*
X326761Y489641D01*
X327793D01*
Y490673D01*
X328193Y491002D01*
X330708D01*
Y494928D01*
X333248D01*
Y491002D01*
X335763D01*
X337265Y491301D01*
X338539Y492152D01*
X339390Y493425D01*
X339689Y494928D01*
X340367Y495754D01*
X347947D01*
X348130Y495717D01*
X402601D01*
Y494486D01*
X423326D01*
Y495677D01*
X495300D01*
Y495669D01*
X499768Y496021D01*
X504126Y497067D01*
X508267Y498782D01*
X512089Y501124D01*
X515497Y504035D01*
X518408Y507443D01*
X520750Y511265D01*
X522465Y515406D01*
X523511Y519764D01*
X523863Y524232D01*
X523855D01*
Y527206D01*
X523823Y527367D01*
X524186Y531053D01*
X525308Y534752D01*
X527130Y538161D01*
X529582Y541149D01*
X532570Y543601D01*
X535979Y545423D01*
X539679Y546545D01*
X543364Y546908D01*
X543526Y546876D01*
X543716Y546914D01*
X547715Y546520D01*
D02*
G37*
G36*
X1377000Y497000D02*
X1398000D01*
Y2000D01*
X2000D01*
Y277000D01*
X23000D01*
Y278333D01*
X112672D01*
X112696Y278338D01*
X112701Y278337D01*
X121292Y278389D01*
X122020Y277507D01*
X122319Y276005D01*
X123170Y274731D01*
X124443Y273880D01*
X125946Y273581D01*
X128461D01*
Y277507D01*
X131001D01*
Y273581D01*
X133515D01*
X133916Y273253D01*
Y272220D01*
X134948D01*
X135277Y271820D01*
Y269305D01*
X139203D01*
Y268035D01*
X140473D01*
Y260577D01*
X140705Y260623D01*
X141703Y261290D01*
X142700Y260623D01*
X142933Y260577D01*
Y268035D01*
X145473D01*
Y260577D01*
X145705Y260623D01*
X146703Y261290D01*
X147700Y260623D01*
X147933Y260577D01*
Y268035D01*
X149203D01*
Y269305D01*
X153129D01*
Y271820D01*
X153458Y272220D01*
X154490D01*
Y273253D01*
X154890Y273581D01*
X157405D01*
Y277507D01*
X159945D01*
Y273581D01*
X162460D01*
X163962Y273880D01*
X165236Y274731D01*
X166087Y276005D01*
X166386Y277507D01*
X167019Y278283D01*
X175802Y278337D01*
X245416D01*
Y277145D01*
X266140D01*
Y278253D01*
X286258D01*
X287064Y278413D01*
X287467Y278333D01*
X294642D01*
X295322Y277504D01*
X295621Y276001D01*
X296472Y274728D01*
X297746Y273877D01*
X299249Y273578D01*
X301763D01*
Y277504D01*
X304303D01*
Y273578D01*
X306818D01*
X307219Y273249D01*
Y272217D01*
X308251D01*
X308580Y271816D01*
Y269302D01*
X312506D01*
Y268032D01*
X313776D01*
Y260573D01*
X314008Y260620D01*
X315006Y261286D01*
X316003Y260620D01*
X316236Y260573D01*
Y268032D01*
X318776D01*
Y260573D01*
X319008Y260620D01*
X320006Y261286D01*
X321003Y260620D01*
X321236Y260573D01*
Y268032D01*
X322506D01*
Y269302D01*
X326432D01*
Y271816D01*
X326761Y272217D01*
X327793D01*
Y273249D01*
X328193Y273578D01*
X330708D01*
Y277504D01*
X333248D01*
Y273578D01*
X335763D01*
X337265Y273877D01*
X338539Y274728D01*
X339390Y276001D01*
X339689Y277504D01*
X340367Y278330D01*
X348120D01*
X348576Y278420D01*
X402428D01*
Y277316D01*
X423153D01*
Y278507D01*
X453526D01*
Y278464D01*
X467308Y278956D01*
X481019Y280431D01*
X494591Y282879D01*
X507953Y286290D01*
X521038Y290645D01*
X533779Y295922D01*
X546111Y302095D01*
X557971Y309132D01*
X569299Y316997D01*
X580037Y325650D01*
X590130Y335048D01*
X599528Y345141D01*
X608181Y355879D01*
X616046Y367207D01*
X623083Y379067D01*
X629256Y391399D01*
X634533Y404140D01*
X638888Y417225D01*
X642299Y430587D01*
X644747Y444159D01*
X646222Y457870D01*
X646714Y471652D01*
X646671Y471654D01*
X646667Y479133D01*
X646349Y480729D01*
X646065Y481154D01*
Y484663D01*
X645827Y485860D01*
X645874Y486272D01*
X646400Y487860D01*
X647140D01*
Y488507D01*
X647419Y488674D01*
X649060D01*
Y492500D01*
X650330D01*
Y493770D01*
X656921D01*
X656883Y493964D01*
X656191Y495000D01*
X656883Y496036D01*
X657174Y497500D01*
X657852Y498326D01*
X683058D01*
Y497134D01*
X703782D01*
Y498327D01*
X1377000D01*
Y497000D01*
D02*
G37*
%LPC*%
G36*
X153204Y701728D02*
X150548D01*
Y695539D01*
X150780Y695586D01*
X152054Y696437D01*
X152905Y697710D01*
X153204Y699213D01*
Y701728D01*
D02*
G37*
G36*
X138008D02*
X135351D01*
Y699213D01*
X135650Y697710D01*
X136502Y696437D01*
X137775Y695586D01*
X138008Y695539D01*
Y701728D01*
D02*
G37*
G36*
X326432Y701610D02*
X323776D01*
Y695421D01*
X324008Y695468D01*
X325282Y696319D01*
X326133Y697592D01*
X326432Y699095D01*
Y701610D01*
D02*
G37*
G36*
X311236D02*
X308580D01*
Y699095D01*
X308878Y697592D01*
X309729Y696319D01*
X311003Y695468D01*
X311236Y695421D01*
Y701610D01*
D02*
G37*
G36*
X186630Y570272D02*
Y565639D01*
X191477D01*
Y570272D01*
X186630D01*
D02*
G37*
G36*
X358648Y568234D02*
Y563602D01*
X363495D01*
Y568234D01*
X358648D01*
D02*
G37*
G36*
X191477Y563099D02*
X186630D01*
Y558467D01*
X191477D01*
Y563099D01*
D02*
G37*
G36*
X363495Y561062D02*
X358648D01*
Y556430D01*
X363495D01*
Y561062D01*
D02*
G37*
G36*
X601686Y555280D02*
Y550648D01*
X606532D01*
Y555280D01*
X601686D01*
D02*
G37*
G36*
X606532Y548108D02*
X601686D01*
Y543476D01*
X606532D01*
Y548108D01*
D02*
G37*
G36*
X186630Y548075D02*
Y543443D01*
X191477D01*
Y548075D01*
X186630D01*
D02*
G37*
G36*
X191477Y540903D02*
X186630D01*
Y536270D01*
X191477D01*
Y540903D01*
D02*
G37*
G36*
X601686Y539786D02*
Y535154D01*
X606532D01*
Y539786D01*
X601686D01*
D02*
G37*
G36*
X358648Y539532D02*
Y534900D01*
X363495D01*
Y539532D01*
X358648D01*
D02*
G37*
G36*
X606532Y532614D02*
X601686D01*
Y527982D01*
X606532D01*
Y532614D01*
D02*
G37*
G36*
X363495Y532360D02*
X358648D01*
Y527728D01*
X363495D01*
Y532360D01*
D02*
G37*
G36*
X323776Y521859D02*
Y515670D01*
X326432D01*
Y518185D01*
X326133Y519688D01*
X325282Y520961D01*
X324008Y521812D01*
X323776Y521859D01*
D02*
G37*
G36*
X150462Y521797D02*
Y515609D01*
X153118D01*
Y518123D01*
X152819Y519626D01*
X151968Y520900D01*
X150695Y521751D01*
X150462Y521797D01*
D02*
G37*
G36*
X1336800Y963187D02*
X1333327D01*
X1333223Y963144D01*
X1333115Y963173D01*
X1329671Y962720D01*
X1329574Y962664D01*
X1329462Y962678D01*
X1326107Y961779D01*
X1326018Y961711D01*
X1325906D01*
X1322696Y960382D01*
X1322617Y960302D01*
X1322506Y960288D01*
X1319498Y958551D01*
X1319429Y958462D01*
X1319321Y958433D01*
X1316565Y956318D01*
X1316509Y956221D01*
X1316405Y956178D01*
X1313949Y953722D01*
X1313906Y953618D01*
X1313809Y953562D01*
X1311694Y950806D01*
X1311665Y950698D01*
X1311576Y950630D01*
X1309839Y947621D01*
X1309825Y947510D01*
X1309745Y947431D01*
X1308416Y944221D01*
Y944109D01*
X1308348Y944020D01*
X1307449Y940665D01*
X1307463Y940554D01*
X1307407Y940456D01*
X1306954Y937012D01*
X1306983Y936904D01*
X1306940Y936800D01*
Y933327D01*
X1306983Y933223D01*
X1306954Y933115D01*
X1307407Y929671D01*
X1307463Y929574D01*
X1307449Y929462D01*
X1308348Y926107D01*
X1308416Y926018D01*
Y925906D01*
X1309745Y922696D01*
X1309825Y922617D01*
X1309839Y922506D01*
X1311576Y919498D01*
X1311665Y919429D01*
X1311694Y919321D01*
X1313809Y916565D01*
X1313906Y916509D01*
X1313949Y916405D01*
X1316405Y913949D01*
X1316509Y913906D01*
X1316565Y913809D01*
X1319321Y911694D01*
X1319429Y911665D01*
X1319498Y911576D01*
X1322506Y909839D01*
X1322617Y909825D01*
X1322696Y909745D01*
X1325906Y908416D01*
X1326018D01*
X1326107Y908348D01*
X1329462Y907449D01*
X1329574Y907463D01*
X1329671Y907407D01*
X1333115Y906954D01*
X1333223Y906983D01*
X1333327Y906940D01*
X1336800D01*
X1336904Y906983D01*
X1337012Y906954D01*
X1340456Y907407D01*
X1340553Y907463D01*
X1340665Y907449D01*
X1344020Y908348D01*
X1344109Y908416D01*
X1344221D01*
X1347431Y909745D01*
X1347510Y909825D01*
X1347621Y909839D01*
X1350629Y911576D01*
X1350698Y911665D01*
X1350806Y911694D01*
X1353562Y913809D01*
X1353618Y913906D01*
X1353722Y913949D01*
X1356178Y916405D01*
X1356221Y916509D01*
X1356318Y916565D01*
X1358433Y919321D01*
X1358462Y919429D01*
X1358551Y919497D01*
X1360288Y922506D01*
X1360302Y922617D01*
X1360382Y922696D01*
X1361711Y925906D01*
Y926018D01*
X1361779Y926107D01*
X1362678Y929462D01*
X1362664Y929574D01*
X1362720Y929671D01*
X1363173Y933115D01*
X1363144Y933223D01*
X1363187Y933327D01*
Y936800D01*
X1363144Y936904D01*
X1363173Y937012D01*
X1362720Y940456D01*
X1362664Y940554D01*
X1362678Y940665D01*
X1361779Y944020D01*
X1361711Y944109D01*
Y944221D01*
X1360382Y947431D01*
X1360302Y947510D01*
X1360288Y947621D01*
X1358551Y950630D01*
X1358462Y950698D01*
X1358433Y950806D01*
X1356318Y953562D01*
X1356221Y953618D01*
X1356178Y953722D01*
X1353722Y956178D01*
X1353618Y956221D01*
X1353562Y956318D01*
X1350806Y958433D01*
X1350698Y958462D01*
X1350629Y958551D01*
X1347621Y960288D01*
X1347510Y960302D01*
X1347431Y960382D01*
X1344221Y961711D01*
X1344109D01*
X1344020Y961779D01*
X1340665Y962678D01*
X1340553Y962664D01*
X1340456Y962720D01*
X1337012Y963173D01*
X1336904Y963144D01*
X1336800Y963187D01*
D02*
G37*
G36*
X66800D02*
X63327D01*
X63223Y963144D01*
X63115Y963173D01*
X59671Y962720D01*
X59573Y962664D01*
X59462Y962678D01*
X56107Y961779D01*
X56018Y961711D01*
X55906D01*
X52696Y960382D01*
X52617Y960302D01*
X52506Y960288D01*
X49497Y958551D01*
X49429Y958462D01*
X49321Y958433D01*
X46565Y956318D01*
X46509Y956221D01*
X46405Y956178D01*
X43949Y953722D01*
X43906Y953618D01*
X43809Y953562D01*
X41694Y950806D01*
X41665Y950698D01*
X41576Y950630D01*
X39839Y947621D01*
X39825Y947510D01*
X39745Y947431D01*
X38416Y944221D01*
Y944109D01*
X38348Y944020D01*
X37449Y940665D01*
X37463Y940554D01*
X37407Y940456D01*
X36954Y937012D01*
X36983Y936904D01*
X36940Y936800D01*
Y933327D01*
X36983Y933223D01*
X36954Y933115D01*
X37407Y929671D01*
X37463Y929574D01*
X37449Y929462D01*
X38348Y926107D01*
X38416Y926018D01*
Y925906D01*
X39745Y922696D01*
X39825Y922617D01*
X39839Y922506D01*
X41576Y919498D01*
X41665Y919429D01*
X41694Y919321D01*
X43809Y916565D01*
X43906Y916509D01*
X43949Y916405D01*
X46405Y913949D01*
X46509Y913906D01*
X46565Y913809D01*
X49321Y911694D01*
X49429Y911665D01*
X49497Y911576D01*
X52506Y909839D01*
X52617Y909825D01*
X52696Y909745D01*
X55906Y908416D01*
X56018D01*
X56107Y908348D01*
X59462Y907449D01*
X59573Y907463D01*
X59671Y907407D01*
X63115Y906954D01*
X63223Y906983D01*
X63327Y906940D01*
X66800D01*
X66904Y906983D01*
X67012Y906954D01*
X70456Y907407D01*
X70553Y907463D01*
X70665Y907449D01*
X74020Y908348D01*
X74109Y908416D01*
X74221D01*
X77431Y909745D01*
X77510Y909825D01*
X77621Y909839D01*
X80630Y911576D01*
X80698Y911665D01*
X80806Y911694D01*
X83562Y913809D01*
X83618Y913906D01*
X83722Y913949D01*
X86178Y916405D01*
X86221Y916509D01*
X86318Y916565D01*
X88433Y919321D01*
X88462Y919429D01*
X88551Y919497D01*
X90288Y922506D01*
X90302Y922617D01*
X90382Y922696D01*
X91711Y925906D01*
Y926018D01*
X91779Y926107D01*
X92678Y929462D01*
X92664Y929574D01*
X92720Y929671D01*
X93173Y933115D01*
X93144Y933223D01*
X93187Y933327D01*
Y936800D01*
X93144Y936904D01*
X93173Y937012D01*
X92720Y940456D01*
X92664Y940554D01*
X92678Y940665D01*
X91779Y944020D01*
X91711Y944109D01*
Y944221D01*
X90382Y947431D01*
X90302Y947510D01*
X90288Y947621D01*
X88551Y950630D01*
X88462Y950698D01*
X88433Y950806D01*
X86318Y953562D01*
X86221Y953618D01*
X86178Y953722D01*
X83722Y956178D01*
X83618Y956221D01*
X83562Y956318D01*
X80806Y958433D01*
X80698Y958462D01*
X80630Y958551D01*
X77621Y960288D01*
X77510Y960302D01*
X77431Y960382D01*
X74221Y961711D01*
X74109D01*
X74020Y961779D01*
X70665Y962678D01*
X70553Y962664D01*
X70456Y962720D01*
X67012Y963173D01*
X66904Y963144D01*
X66800Y963187D01*
D02*
G37*
G36*
X359075Y802676D02*
Y798044D01*
X363922D01*
Y802676D01*
X359075D01*
D02*
G37*
G36*
X1308232Y815150D02*
X1305468D01*
X1302797Y814434D01*
X1300403Y813052D01*
X1298448Y811097D01*
X1297066Y808703D01*
X1296350Y806032D01*
Y803268D01*
X1297066Y800597D01*
X1298448Y798203D01*
X1300403Y796248D01*
X1302797Y794866D01*
X1305468Y794150D01*
X1308232D01*
X1310903Y794866D01*
X1313297Y796248D01*
X1315252Y798203D01*
X1316634Y800597D01*
X1317350Y803268D01*
Y806032D01*
X1316634Y808703D01*
X1315252Y811097D01*
X1313297Y813052D01*
X1310903Y814434D01*
X1308232Y815150D01*
D02*
G37*
G36*
X1194564Y815550D02*
X1191536D01*
X1188611Y814766D01*
X1185989Y813252D01*
X1183848Y811111D01*
X1182334Y808489D01*
X1181550Y805564D01*
Y802536D01*
X1182334Y799611D01*
X1183848Y796989D01*
X1185989Y794848D01*
X1188611Y793334D01*
X1191536Y792550D01*
X1194564D01*
X1197489Y793334D01*
X1200111Y794848D01*
X1202252Y796989D01*
X1203766Y799611D01*
X1204550Y802536D01*
Y805564D01*
X1203766Y808489D01*
X1202252Y811111D01*
X1200111Y813252D01*
X1197489Y814766D01*
X1194564Y815550D01*
D02*
G37*
G36*
X363922Y795504D02*
X359075D01*
Y790872D01*
X363922D01*
Y795504D01*
D02*
G37*
G36*
X186630Y783547D02*
Y778915D01*
X191477D01*
Y783547D01*
X186630D01*
D02*
G37*
G36*
X191477Y776375D02*
X186630D01*
Y771742D01*
X191477D01*
Y776375D01*
D02*
G37*
G36*
X1308232Y790150D02*
X1305468D01*
X1302797Y789434D01*
X1300403Y788052D01*
X1298448Y786097D01*
X1297066Y783703D01*
X1296350Y781032D01*
Y778268D01*
X1297066Y775597D01*
X1298448Y773203D01*
X1300403Y771248D01*
X1302797Y769866D01*
X1305468Y769150D01*
X1308232D01*
X1310903Y769866D01*
X1313297Y771248D01*
X1315252Y773203D01*
X1316634Y775597D01*
X1317350Y778268D01*
Y781032D01*
X1316634Y783703D01*
X1315252Y786097D01*
X1313297Y788052D01*
X1310903Y789434D01*
X1308232Y790150D01*
D02*
G37*
G36*
X358648Y773720D02*
Y769088D01*
X363495D01*
Y773720D01*
X358648D01*
D02*
G37*
G36*
X363495Y766548D02*
X358648D01*
Y761916D01*
X363495D01*
Y766548D01*
D02*
G37*
G36*
X1311350Y766251D02*
X1308120D01*
Y755920D01*
X1318451D01*
Y759150D01*
X1318209Y760988D01*
X1317499Y762700D01*
X1316371Y764171D01*
X1314900Y765299D01*
X1313188Y766009D01*
X1311350Y766251D01*
D02*
G37*
G36*
X1305580D02*
X1302350D01*
X1300512Y766009D01*
X1298800Y765299D01*
X1297329Y764171D01*
X1296201Y762700D01*
X1295491Y760988D01*
X1295249Y759150D01*
Y755920D01*
X1305580D01*
Y766251D01*
D02*
G37*
G36*
X186630Y757498D02*
Y752865D01*
X191477D01*
Y757498D01*
X186630D01*
D02*
G37*
G36*
X1194314Y771450D02*
X1191286D01*
X1188361Y770666D01*
X1185739Y769152D01*
X1183598Y767011D01*
X1182084Y764389D01*
X1181300Y761464D01*
Y758436D01*
X1182084Y755511D01*
X1183598Y752889D01*
X1185739Y750748D01*
X1188361Y749234D01*
X1191286Y748450D01*
X1194314D01*
X1197239Y749234D01*
X1199861Y750748D01*
X1202002Y752889D01*
X1203516Y755511D01*
X1204300Y758436D01*
Y761464D01*
X1203516Y764389D01*
X1202002Y767011D01*
X1199861Y769152D01*
X1197239Y770666D01*
X1194314Y771450D01*
D02*
G37*
G36*
X191477Y750325D02*
X186630D01*
Y745693D01*
X191477D01*
Y750325D01*
D02*
G37*
G36*
X1318451Y753380D02*
X1308120D01*
Y743049D01*
X1311350D01*
X1313188Y743291D01*
X1314900Y744001D01*
X1316371Y745129D01*
X1317499Y746600D01*
X1318209Y748312D01*
X1318451Y750150D01*
Y753380D01*
D02*
G37*
G36*
X1305580D02*
X1295249D01*
Y750150D01*
X1295491Y748312D01*
X1296201Y746600D01*
X1297329Y745129D01*
X1298800Y744001D01*
X1300512Y743291D01*
X1302350Y743049D01*
X1305580D01*
Y753380D01*
D02*
G37*
G36*
X150548Y739401D02*
Y733212D01*
X153204D01*
Y735727D01*
X152905Y737230D01*
X152054Y738503D01*
X150780Y739354D01*
X150548Y739401D01*
D02*
G37*
G36*
X323776Y739283D02*
Y733094D01*
X326432D01*
Y735609D01*
X326133Y737112D01*
X325282Y738385D01*
X324008Y739236D01*
X323776Y739283D01*
D02*
G37*
G36*
X1309385Y695650D02*
X1307015D01*
X1304726Y695037D01*
X1302674Y693852D01*
X1300998Y692176D01*
X1299813Y690124D01*
X1299200Y687835D01*
Y685465D01*
X1299813Y683176D01*
X1300998Y681124D01*
X1302674Y679448D01*
X1304726Y678263D01*
X1307015Y677650D01*
X1309385D01*
X1311674Y678263D01*
X1313726Y679448D01*
X1315402Y681124D01*
X1316587Y683176D01*
X1317200Y685465D01*
Y687835D01*
X1316587Y690124D01*
X1315402Y692176D01*
X1313726Y693852D01*
X1311674Y695037D01*
X1309385Y695650D01*
D02*
G37*
G36*
X1311950Y671813D02*
X1309470D01*
Y662920D01*
X1318363D01*
Y665400D01*
X1317875Y667854D01*
X1316485Y669935D01*
X1314404Y671325D01*
X1311950Y671813D01*
D02*
G37*
G36*
X1306930D02*
X1304450D01*
X1301996Y671325D01*
X1299915Y669935D01*
X1298525Y667854D01*
X1298037Y665400D01*
Y662920D01*
X1306930D01*
Y671813D01*
D02*
G37*
G36*
X1318363Y660380D02*
X1309470D01*
Y651487D01*
X1311950D01*
X1314404Y651975D01*
X1316485Y653365D01*
X1317875Y655446D01*
X1318363Y657900D01*
Y660380D01*
D02*
G37*
G36*
X1306930D02*
X1298037D01*
Y657900D01*
X1298525Y655446D01*
X1299915Y653365D01*
X1301996Y651975D01*
X1304450Y651487D01*
X1306930D01*
Y660380D01*
D02*
G37*
G36*
X778652Y588808D02*
X773806D01*
Y584176D01*
X778652D01*
Y588808D01*
D02*
G37*
G36*
Y581636D02*
X773806D01*
Y577004D01*
X778652D01*
Y581636D01*
D02*
G37*
G36*
X326432Y484186D02*
X323776D01*
Y477997D01*
X324008Y478044D01*
X325282Y478895D01*
X326133Y480168D01*
X326432Y481671D01*
Y484186D01*
D02*
G37*
G36*
X311236D02*
X308580D01*
Y481671D01*
X308878Y480168D01*
X309729Y478895D01*
X311003Y478044D01*
X311236Y477997D01*
Y484186D01*
D02*
G37*
G36*
X153118Y484124D02*
X150462D01*
Y477936D01*
X150695Y477982D01*
X151968Y478833D01*
X152819Y480107D01*
X153118Y481609D01*
Y484124D01*
D02*
G37*
G36*
X137922D02*
X135266D01*
Y481609D01*
X135565Y480107D01*
X136416Y478833D01*
X137690Y477982D01*
X137922Y477936D01*
Y484124D01*
D02*
G37*
G36*
X186630Y350246D02*
Y345614D01*
X191477D01*
Y350246D01*
X186630D01*
D02*
G37*
G36*
X358902Y347762D02*
Y343130D01*
X363749D01*
Y347762D01*
X358902D01*
D02*
G37*
G36*
X191477Y343074D02*
X186630D01*
Y338441D01*
X191477D01*
Y343074D01*
D02*
G37*
G36*
X363749Y340590D02*
X358902D01*
Y335958D01*
X363749D01*
Y340590D01*
D02*
G37*
G36*
X186630Y328338D02*
Y323706D01*
X191477D01*
Y328338D01*
X186630D01*
D02*
G37*
G36*
X191477Y321166D02*
X186630D01*
Y316533D01*
X191477D01*
Y321166D01*
D02*
G37*
G36*
X358902Y320076D02*
Y315444D01*
X363749D01*
Y320076D01*
X358902D01*
D02*
G37*
G36*
X363749Y312904D02*
X358902D01*
Y308272D01*
X363749D01*
Y312904D01*
D02*
G37*
G36*
X150473Y304438D02*
Y298250D01*
X153129D01*
Y300765D01*
X152830Y302267D01*
X151979Y303541D01*
X150705Y304392D01*
X150473Y304438D01*
D02*
G37*
G36*
X323776Y304435D02*
Y298246D01*
X326432D01*
Y300761D01*
X326133Y302264D01*
X325282Y303537D01*
X324008Y304388D01*
X323776Y304435D01*
D02*
G37*
G36*
X656921Y491230D02*
X651600D01*
Y488674D01*
X653348D01*
X654812Y488965D01*
X656054Y489795D01*
X656883Y491036D01*
X656921Y491230D01*
D02*
G37*
G36*
X153129Y266765D02*
X150473D01*
Y260577D01*
X150705Y260623D01*
X151979Y261474D01*
X152830Y262748D01*
X153129Y264251D01*
Y266765D01*
D02*
G37*
G36*
X137933D02*
X135277D01*
Y264251D01*
X135576Y262748D01*
X136427Y261474D01*
X137700Y260623D01*
X137933Y260577D01*
Y266765D01*
D02*
G37*
G36*
X326432Y266762D02*
X323776D01*
Y260573D01*
X324008Y260620D01*
X325282Y261471D01*
X326133Y262745D01*
X326432Y264247D01*
Y266762D01*
D02*
G37*
G36*
X311236D02*
X308580D01*
Y264247D01*
X308878Y262745D01*
X309729Y261471D01*
X311003Y260620D01*
X311236Y260573D01*
Y266762D01*
D02*
G37*
G36*
X1336800Y93187D02*
X1333327D01*
X1333223Y93144D01*
X1333115Y93173D01*
X1329671Y92720D01*
X1329574Y92664D01*
X1329462Y92678D01*
X1326107Y91779D01*
X1326018Y91711D01*
X1325906D01*
X1322696Y90382D01*
X1322617Y90302D01*
X1322506Y90288D01*
X1319498Y88551D01*
X1319429Y88462D01*
X1319321Y88433D01*
X1316565Y86318D01*
X1316509Y86221D01*
X1316405Y86178D01*
X1313949Y83722D01*
X1313906Y83618D01*
X1313809Y83562D01*
X1311694Y80806D01*
X1311665Y80698D01*
X1311576Y80630D01*
X1309839Y77621D01*
X1309825Y77510D01*
X1309745Y77431D01*
X1308416Y74221D01*
Y74109D01*
X1308348Y74020D01*
X1307449Y70665D01*
X1307463Y70553D01*
X1307407Y70456D01*
X1306954Y67012D01*
X1306983Y66904D01*
X1306940Y66800D01*
Y63327D01*
X1306983Y63223D01*
X1306954Y63115D01*
X1307407Y59671D01*
X1307463Y59573D01*
X1307449Y59462D01*
X1308348Y56107D01*
X1308416Y56018D01*
Y55906D01*
X1309745Y52696D01*
X1309825Y52617D01*
X1309839Y52506D01*
X1311576Y49497D01*
X1311665Y49429D01*
X1311694Y49321D01*
X1313809Y46565D01*
X1313906Y46509D01*
X1313949Y46405D01*
X1316405Y43949D01*
X1316509Y43906D01*
X1316565Y43809D01*
X1319321Y41694D01*
X1319429Y41665D01*
X1319498Y41576D01*
X1322506Y39839D01*
X1322617Y39825D01*
X1322696Y39745D01*
X1325906Y38416D01*
X1326018D01*
X1326107Y38348D01*
X1329462Y37449D01*
X1329574Y37463D01*
X1329671Y37407D01*
X1333115Y36954D01*
X1333223Y36983D01*
X1333327Y36940D01*
X1336800D01*
X1336904Y36983D01*
X1337012Y36954D01*
X1340456Y37407D01*
X1340553Y37463D01*
X1340665Y37449D01*
X1344020Y38348D01*
X1344109Y38416D01*
X1344221D01*
X1347431Y39745D01*
X1347510Y39825D01*
X1347621Y39839D01*
X1350629Y41576D01*
X1350698Y41665D01*
X1350806Y41694D01*
X1353562Y43809D01*
X1353618Y43906D01*
X1353722Y43949D01*
X1356178Y46405D01*
X1356221Y46509D01*
X1356318Y46565D01*
X1358433Y49321D01*
X1358462Y49429D01*
X1358551Y49497D01*
X1360288Y52506D01*
X1360302Y52617D01*
X1360382Y52696D01*
X1361711Y55906D01*
Y56018D01*
X1361779Y56107D01*
X1362678Y59462D01*
X1362664Y59573D01*
X1362720Y59671D01*
X1363173Y63115D01*
X1363144Y63223D01*
X1363187Y63327D01*
Y66800D01*
X1363144Y66904D01*
X1363173Y67012D01*
X1362720Y70456D01*
X1362664Y70553D01*
X1362678Y70665D01*
X1361779Y74020D01*
X1361711Y74109D01*
Y74221D01*
X1360382Y77431D01*
X1360302Y77510D01*
X1360288Y77621D01*
X1358551Y80630D01*
X1358462Y80698D01*
X1358433Y80806D01*
X1356318Y83562D01*
X1356221Y83618D01*
X1356178Y83722D01*
X1353722Y86178D01*
X1353618Y86221D01*
X1353562Y86318D01*
X1350806Y88433D01*
X1350698Y88462D01*
X1350629Y88551D01*
X1347621Y90288D01*
X1347510Y90302D01*
X1347431Y90382D01*
X1344221Y91711D01*
X1344109D01*
X1344020Y91779D01*
X1340665Y92678D01*
X1340553Y92664D01*
X1340456Y92720D01*
X1337012Y93173D01*
X1336904Y93144D01*
X1336800Y93187D01*
D02*
G37*
G36*
X66800D02*
X63327D01*
X63223Y93144D01*
X63115Y93173D01*
X59671Y92720D01*
X59573Y92664D01*
X59462Y92678D01*
X56107Y91779D01*
X56018Y91711D01*
X55906D01*
X52696Y90382D01*
X52617Y90302D01*
X52506Y90288D01*
X49497Y88551D01*
X49429Y88462D01*
X49321Y88433D01*
X46565Y86318D01*
X46509Y86221D01*
X46405Y86178D01*
X43949Y83722D01*
X43906Y83618D01*
X43809Y83562D01*
X41694Y80806D01*
X41665Y80698D01*
X41576Y80630D01*
X39839Y77621D01*
X39825Y77510D01*
X39745Y77431D01*
X38416Y74221D01*
Y74109D01*
X38348Y74020D01*
X37449Y70665D01*
X37463Y70553D01*
X37407Y70456D01*
X36954Y67012D01*
X36983Y66904D01*
X36940Y66800D01*
Y63327D01*
X36983Y63223D01*
X36954Y63115D01*
X37407Y59671D01*
X37463Y59573D01*
X37449Y59462D01*
X38348Y56107D01*
X38416Y56018D01*
Y55906D01*
X39745Y52696D01*
X39825Y52617D01*
X39839Y52506D01*
X41576Y49497D01*
X41665Y49429D01*
X41694Y49321D01*
X43809Y46565D01*
X43906Y46509D01*
X43949Y46405D01*
X46405Y43949D01*
X46509Y43906D01*
X46565Y43809D01*
X49321Y41694D01*
X49429Y41665D01*
X49497Y41576D01*
X52506Y39839D01*
X52617Y39825D01*
X52696Y39745D01*
X55906Y38416D01*
X56018D01*
X56107Y38348D01*
X59462Y37449D01*
X59573Y37463D01*
X59671Y37407D01*
X63115Y36954D01*
X63223Y36983D01*
X63327Y36940D01*
X66800D01*
X66904Y36983D01*
X67012Y36954D01*
X70456Y37407D01*
X70553Y37463D01*
X70665Y37449D01*
X74020Y38348D01*
X74109Y38416D01*
X74221D01*
X77431Y39745D01*
X77510Y39825D01*
X77621Y39839D01*
X80630Y41576D01*
X80698Y41665D01*
X80806Y41694D01*
X83562Y43809D01*
X83618Y43906D01*
X83722Y43949D01*
X86178Y46405D01*
X86221Y46509D01*
X86318Y46565D01*
X88433Y49321D01*
X88462Y49429D01*
X88551Y49497D01*
X90288Y52506D01*
X90302Y52617D01*
X90382Y52696D01*
X91711Y55906D01*
Y56018D01*
X91779Y56107D01*
X92678Y59462D01*
X92664Y59573D01*
X92720Y59671D01*
X93173Y63115D01*
X93144Y63223D01*
X93187Y63327D01*
Y66800D01*
X93144Y66904D01*
X93173Y67012D01*
X92720Y70456D01*
X92664Y70553D01*
X92678Y70665D01*
X91779Y74020D01*
X91711Y74109D01*
Y74221D01*
X90382Y77431D01*
X90302Y77510D01*
X90288Y77621D01*
X88551Y80630D01*
X88462Y80698D01*
X88433Y80806D01*
X86318Y83562D01*
X86221Y83618D01*
X86178Y83722D01*
X83722Y86178D01*
X83618Y86221D01*
X83562Y86318D01*
X80806Y88433D01*
X80698Y88462D01*
X80630Y88551D01*
X77621Y90288D01*
X77510Y90302D01*
X77431Y90382D01*
X74221Y91711D01*
X74109D01*
X74020Y91779D01*
X70665Y92678D01*
X70553Y92664D01*
X70456Y92720D01*
X67012Y93173D01*
X66904Y93144D01*
X66800Y93187D01*
D02*
G37*
%LPD*%
D11*
X312506Y287504D02*
X317506Y282504D01*
X303033Y287504D02*
X312506D01*
X322506Y287504D02*
X322506Y287504D01*
X331978D01*
X322506Y287504D02*
Y296976D01*
Y277504D02*
X331978D01*
X322506Y268032D02*
Y277504D01*
X317506Y268032D02*
Y282504D01*
X312506Y277504D02*
X312506Y277504D01*
X303033Y277504D02*
X312506D01*
X312506Y268032D02*
Y277504D01*
Y722352D02*
X317506Y717352D01*
X303033Y722352D02*
X312506D01*
X322506D02*
X322506Y722352D01*
Y731824D01*
X322506Y722352D02*
X331978D01*
X322506Y712352D02*
X331978D01*
X322506Y702880D02*
Y712352D01*
X317506Y702880D02*
Y717352D01*
X303033Y712352D02*
X312506D01*
X312506Y702880D02*
Y712352D01*
X144278Y702998D02*
Y717470D01*
X144192Y499866D02*
X149192Y494866D01*
Y485394D02*
Y494866D01*
X139192D02*
X139192Y494866D01*
Y485394D02*
Y494866D01*
X322506Y494928D02*
X331978D01*
X322506Y485456D02*
Y494928D01*
X317506Y485456D02*
Y499928D01*
X312506Y485456D02*
Y494928D01*
X303033Y494928D02*
X312506D01*
X312506Y504928D02*
X317506Y499928D01*
X303033Y504928D02*
X312506D01*
X322506D02*
X331978D01*
X322506Y504928D02*
Y514400D01*
X149278Y712470D02*
X158750D01*
X149278Y722470D02*
X149278Y722470D01*
X149278Y722470D02*
X158750D01*
X149278Y722470D02*
Y731942D01*
X139278Y722470D02*
X144278Y717470D01*
X129805Y722470D02*
X139278D01*
X139278Y712470D02*
X139278Y712470D01*
X129805Y712470D02*
X139278D01*
X149278Y702998D02*
Y712470D01*
X139278Y702998D02*
Y712470D01*
X144203Y282507D02*
X149203Y277507D01*
X158675D01*
X149203Y287507D02*
X149203Y287508D01*
X144203Y282507D02*
X149203Y287507D01*
X158675D01*
X149203Y287508D02*
Y296980D01*
X139203Y287507D02*
X144203Y282507D01*
X129731Y287507D02*
X139203D01*
Y277507D02*
X144203Y282507D01*
X139203Y277507D02*
X139203Y277507D01*
X129731Y277507D02*
X139203D01*
X149203Y268035D02*
Y277507D01*
X144203Y268035D02*
Y282507D01*
X139203Y268035D02*
Y277507D01*
X129720Y494866D02*
X139192D01*
X139192Y504866D02*
X144192Y499866D01*
X129720Y504866D02*
X139192D01*
X149192Y494866D02*
X158664D01*
X149192Y504866D02*
X149192Y504866D01*
X149192Y504866D02*
X158664D01*
X149192Y504866D02*
Y514339D01*
X144192Y485394D02*
Y499866D01*
X635538Y499462D02*
X642500Y492500D01*
X635000Y500000D02*
X642500Y507500D01*
X650330D01*
X627500D02*
X635000Y500000D01*
X619670Y507500D02*
X627500D01*
X642500Y492500D02*
X650330D01*
X635000Y484670D02*
Y498925D01*
Y501852D02*
Y515330D01*
X650330Y492500D02*
Y497500D01*
X635000Y484670D02*
X637500D01*
X632500D02*
X635000D01*
D14*
X688634Y502496D02*
D03*
X698206D02*
D03*
X250992Y282507D02*
D03*
X185360Y751595D02*
D03*
Y777645D02*
D03*
X185360Y542173D02*
D03*
X357805Y796774D02*
D03*
X600416Y533884D02*
D03*
X357378Y767818D02*
D03*
Y562332D02*
D03*
Y533630D02*
D03*
X600416Y549378D02*
D03*
X357632Y314174D02*
D03*
Y341860D02*
D03*
X772536Y582906D02*
D03*
X185360Y344344D02*
D03*
Y322436D02*
D03*
X185360Y564369D02*
D03*
X250992Y500000D02*
D03*
Y717500D02*
D03*
X260564D02*
D03*
X417749Y499848D02*
D03*
X417576Y282678D02*
D03*
X175789Y322436D02*
D03*
Y344344D02*
D03*
X260564Y282507D02*
D03*
X175789Y564369D02*
D03*
X175789Y751595D02*
D03*
Y777645D02*
D03*
X260564Y500000D02*
D03*
X175789Y542173D02*
D03*
X348234Y796774D02*
D03*
X762964Y582906D02*
D03*
X408005Y717526D02*
D03*
X417576D02*
D03*
X720050Y582906D02*
D03*
X710478D02*
D03*
X590844Y533884D02*
D03*
X347807Y767818D02*
D03*
Y562332D02*
D03*
Y533630D02*
D03*
X408178Y499848D02*
D03*
X590844Y549378D02*
D03*
X408005Y282678D02*
D03*
X348061Y314174D02*
D03*
Y341860D02*
D03*
D15*
X129731Y287507D02*
D03*
X129805Y722470D02*
D03*
X129720Y504866D02*
D03*
X303033Y504928D02*
D03*
Y287504D02*
D03*
Y722352D02*
D03*
D16*
X129731Y282507D02*
D03*
Y277507D02*
D03*
X158675D02*
D03*
Y282507D02*
D03*
Y287507D02*
D03*
X158750Y722470D02*
D03*
Y712470D02*
D03*
X129805D02*
D03*
X158664Y504866D02*
D03*
Y494866D02*
D03*
X129720D02*
D03*
X303033Y494928D02*
D03*
X331978D02*
D03*
Y504928D02*
D03*
X303033Y277504D02*
D03*
X331978D02*
D03*
Y287504D02*
D03*
X303033Y712352D02*
D03*
X331978D02*
D03*
Y722352D02*
D03*
X129720Y499866D02*
D03*
X158664D02*
D03*
X158750Y717470D02*
D03*
X303033Y717352D02*
D03*
X129805Y717470D02*
D03*
X331978Y717352D02*
D03*
X303033Y499928D02*
D03*
X331978D02*
D03*
Y282504D02*
D03*
X303033D02*
D03*
D17*
X139203Y268035D02*
D03*
X144203D02*
D03*
X149203D02*
D03*
Y296980D02*
D03*
X144203D02*
D03*
X139203D02*
D03*
X149278Y731942D02*
D03*
Y702998D02*
D03*
X144278D02*
D03*
X139278D02*
D03*
X149192Y514339D02*
D03*
Y485394D02*
D03*
X144192D02*
D03*
X139192D02*
D03*
X312506Y485456D02*
D03*
X317506D02*
D03*
X322506D02*
D03*
Y514400D02*
D03*
X312506Y268032D02*
D03*
X317506D02*
D03*
X322506D02*
D03*
Y296976D02*
D03*
X312506Y702880D02*
D03*
X317506D02*
D03*
X322506D02*
D03*
Y731824D02*
D03*
X144192Y514339D02*
D03*
X139192D02*
D03*
X144278Y731942D02*
D03*
X139278D02*
D03*
X317506Y731824D02*
D03*
X312506D02*
D03*
X317506Y514400D02*
D03*
X312506D02*
D03*
Y296976D02*
D03*
X317506D02*
D03*
D18*
X175789Y282507D02*
D03*
X112676Y726200D02*
D03*
Y508700D02*
D03*
X286258Y508516D02*
D03*
Y726162D02*
D03*
Y291124D02*
D03*
X112676Y291208D02*
D03*
X175789Y500000D02*
D03*
X112676D02*
D03*
X175789Y717500D02*
D03*
X286258Y717462D02*
D03*
X175789Y726200D02*
D03*
Y291208D02*
D03*
X112676Y282507D02*
D03*
Y717500D02*
D03*
X175789Y508700D02*
D03*
X286258Y499816D02*
D03*
X347980Y717208D02*
D03*
Y725908D02*
D03*
Y500038D02*
D03*
Y508738D02*
D03*
Y282360D02*
D03*
Y291060D02*
D03*
X286258Y282424D02*
D03*
D19*
X1374000Y550000D02*
D03*
Y455000D02*
D03*
X26000Y452500D02*
D03*
Y547500D02*
D03*
Y670000D02*
D03*
Y765000D02*
D03*
Y235000D02*
D03*
Y330000D02*
D03*
D20*
X637500Y515330D02*
D03*
X632500D02*
D03*
Y484670D02*
D03*
X637500D02*
D03*
X627500D02*
D03*
X642500D02*
D03*
X627500Y515330D02*
D03*
D21*
X619670Y507500D02*
D03*
X650330Y492500D02*
D03*
Y497500D02*
D03*
Y507500D02*
D03*
Y502500D02*
D03*
X619670Y492500D02*
D03*
Y497500D02*
D03*
Y502500D02*
D03*
D22*
X11500Y500000D02*
D03*
Y717500D02*
D03*
X1388500Y502500D02*
D03*
X11500Y282500D02*
D03*
D23*
X642500Y515330D02*
D03*
D25*
X144203Y282507D02*
D03*
X144278Y717470D02*
D03*
X144192Y499866D02*
D03*
X317506Y499928D02*
D03*
Y717352D02*
D03*
Y282504D02*
D03*
D28*
X635000Y500000D02*
D03*
D33*
X1306850Y754650D02*
D03*
D34*
X1308200Y661650D02*
D03*
D35*
X1306850Y779650D02*
D03*
Y804650D02*
D03*
D36*
X1192800Y759950D02*
D03*
X1193050Y804050D02*
D03*
D37*
X1308200Y686650D02*
D03*
D38*
X684109Y510768D02*
D03*
X676177Y509726D02*
D03*
X668177D02*
D03*
X663827Y495267D02*
D03*
X671827D02*
D03*
X679827D02*
D03*
X687731Y494036D02*
D03*
X1391666Y511098D02*
D03*
X1382067D02*
D03*
X1374185Y509728D02*
D03*
X1366185D02*
D03*
X1358185D02*
D03*
X1350185D02*
D03*
X1342185D02*
D03*
X1334185D02*
D03*
X1326185D02*
D03*
X1318185D02*
D03*
X1310185D02*
D03*
X1302185D02*
D03*
X1294185D02*
D03*
X1286185D02*
D03*
X1278185D02*
D03*
X1270185D02*
D03*
X1262185D02*
D03*
X1254185D02*
D03*
X1246185D02*
D03*
X1238185D02*
D03*
X1230185D02*
D03*
X1222185D02*
D03*
X1214185D02*
D03*
X1206185D02*
D03*
X1198185D02*
D03*
X1190185D02*
D03*
X1182185D02*
D03*
X1174185D02*
D03*
X1166185D02*
D03*
X1158185D02*
D03*
X1150185D02*
D03*
X1142185D02*
D03*
X1134185D02*
D03*
X1126185D02*
D03*
X1118185D02*
D03*
X1110185D02*
D03*
X1102185D02*
D03*
X1094185D02*
D03*
X1086185D02*
D03*
X1078185D02*
D03*
X1070185D02*
D03*
X1062185D02*
D03*
X1054185D02*
D03*
X1046185D02*
D03*
X1038185D02*
D03*
X1030185D02*
D03*
X1022186D02*
D03*
X1014185D02*
D03*
X1006186D02*
D03*
X998186D02*
D03*
X990185D02*
D03*
X982186D02*
D03*
X974186D02*
D03*
X966186D02*
D03*
X958186D02*
D03*
X950186D02*
D03*
X942186D02*
D03*
X934186D02*
D03*
X926186D02*
D03*
X918186D02*
D03*
X910186D02*
D03*
X902186D02*
D03*
X894186D02*
D03*
X886186D02*
D03*
X878186D02*
D03*
X870186D02*
D03*
X862186D02*
D03*
X854186D02*
D03*
X846186D02*
D03*
X838186D02*
D03*
X830186D02*
D03*
X822186D02*
D03*
X814186D02*
D03*
X806186D02*
D03*
X798186D02*
D03*
X790186D02*
D03*
X782186D02*
D03*
X774186D02*
D03*
X766186D02*
D03*
X758186D02*
D03*
X750186D02*
D03*
X742186D02*
D03*
X734186D02*
D03*
X726186D02*
D03*
X718186D02*
D03*
X710186D02*
D03*
X702267Y510860D02*
D03*
X694267Y510885D02*
D03*
X698003Y494036D02*
D03*
X705908Y495269D02*
D03*
X713908D02*
D03*
X721908D02*
D03*
X729908D02*
D03*
X737908D02*
D03*
X745908D02*
D03*
X753908D02*
D03*
X761908D02*
D03*
X769908D02*
D03*
X777908D02*
D03*
X785908D02*
D03*
X793908D02*
D03*
X801908D02*
D03*
X809908D02*
D03*
X817908D02*
D03*
X825908D02*
D03*
X833908D02*
D03*
X841908D02*
D03*
X849908D02*
D03*
X857907D02*
D03*
X865908D02*
D03*
X873907D02*
D03*
X881908D02*
D03*
X889908D02*
D03*
X897907D02*
D03*
X905907D02*
D03*
X913907D02*
D03*
X921907D02*
D03*
X929907D02*
D03*
X937907D02*
D03*
X945907D02*
D03*
X953907D02*
D03*
X961907D02*
D03*
X969907D02*
D03*
X977907D02*
D03*
X985907D02*
D03*
X993907D02*
D03*
X1001907D02*
D03*
X1009907D02*
D03*
X1017907D02*
D03*
X1025907D02*
D03*
X1033907D02*
D03*
X1041907D02*
D03*
X1049907D02*
D03*
X1057907D02*
D03*
X1065907D02*
D03*
X1073907D02*
D03*
X1081907D02*
D03*
X1089907D02*
D03*
X1097907D02*
D03*
X1105907D02*
D03*
X1113907D02*
D03*
X1121907D02*
D03*
X1129907D02*
D03*
X1137907D02*
D03*
X1145907D02*
D03*
X1153907D02*
D03*
X1161907D02*
D03*
X1169907D02*
D03*
X1177907D02*
D03*
X1185907D02*
D03*
X1193907D02*
D03*
X1201907D02*
D03*
X1209907D02*
D03*
X1217907D02*
D03*
X1225907D02*
D03*
X1233907D02*
D03*
X1241907D02*
D03*
X1249907D02*
D03*
X1257907D02*
D03*
X1265907D02*
D03*
X1273907D02*
D03*
X1281907D02*
D03*
X1289907D02*
D03*
X1297907D02*
D03*
X1305907D02*
D03*
X1313907D02*
D03*
X1321907D02*
D03*
X1329907D02*
D03*
X1337907D02*
D03*
X1345907D02*
D03*
X1353907D02*
D03*
X1361906D02*
D03*
X1369906D02*
D03*
X1377000Y493902D02*
D03*
X1385822D02*
D03*
X1394215D02*
D03*
X144278Y717470D02*
D03*
X144203Y282507D02*
D03*
X144192Y499866D02*
D03*
X620273Y531036D02*
D03*
X649732Y531526D02*
D03*
X620274Y523036D02*
D03*
X344430Y710210D02*
D03*
X351530D02*
D03*
X344430Y492152D02*
D03*
X351530D02*
D03*
X15128Y291098D02*
D03*
X7128D02*
D03*
X7203Y273902D02*
D03*
X15203D02*
D03*
X23184Y274446D02*
D03*
X31141Y275274D02*
D03*
X39141D02*
D03*
X47141D02*
D03*
X55141D02*
D03*
X63141D02*
D03*
X71141D02*
D03*
X79141D02*
D03*
X87141D02*
D03*
X95141D02*
D03*
X103141D02*
D03*
X111141D02*
D03*
X119141Y275317D02*
D03*
X102891Y289733D02*
D03*
X94891D02*
D03*
X86891D02*
D03*
X78891D02*
D03*
X70891D02*
D03*
X62891D02*
D03*
X54891D02*
D03*
X46891D02*
D03*
X38891D02*
D03*
X30891D02*
D03*
X22951Y290710D02*
D03*
X250992Y272217D02*
D03*
X249194Y293103D02*
D03*
X240698Y289737D02*
D03*
X232698D02*
D03*
X224698D02*
D03*
X216698D02*
D03*
X208698D02*
D03*
X200698D02*
D03*
X192698D02*
D03*
X184698D02*
D03*
X167675Y292164D02*
D03*
X170185Y275244D02*
D03*
X178185Y275278D02*
D03*
X186185D02*
D03*
X194185D02*
D03*
X202185D02*
D03*
X210185D02*
D03*
X218185D02*
D03*
X226185D02*
D03*
X234185D02*
D03*
X242185D02*
D03*
X255778Y292791D02*
D03*
X270486Y275194D02*
D03*
X278486D02*
D03*
X286486Y275240D02*
D03*
X294486Y275274D02*
D03*
X274037Y289654D02*
D03*
X266140Y292791D02*
D03*
X248741Y707526D02*
D03*
X262578Y709040D02*
D03*
X270494Y710196D02*
D03*
X278494D02*
D03*
X286494Y710232D02*
D03*
X294494Y710196D02*
D03*
X274039Y724656D02*
D03*
X266140Y727639D02*
D03*
X249636D02*
D03*
X240836Y724730D02*
D03*
X232836D02*
D03*
X224836D02*
D03*
X216836D02*
D03*
X208836D02*
D03*
X200836D02*
D03*
X192836D02*
D03*
X184836D02*
D03*
X167683Y727740D02*
D03*
X170185Y710236D02*
D03*
X178185Y710270D02*
D03*
X186185D02*
D03*
X194185D02*
D03*
X202185D02*
D03*
X210185D02*
D03*
X218185D02*
D03*
X226185D02*
D03*
X234185D02*
D03*
X242185D02*
D03*
X257764Y727639D02*
D03*
X14991Y726098D02*
D03*
X6991D02*
D03*
X7334Y708902D02*
D03*
X15334D02*
D03*
X23309Y709530D02*
D03*
X31275Y710270D02*
D03*
X39275D02*
D03*
X47275D02*
D03*
X55275D02*
D03*
X63275D02*
D03*
X71275D02*
D03*
X79275D02*
D03*
X87275D02*
D03*
X95275D02*
D03*
X103275D02*
D03*
X111275D02*
D03*
X119275Y710310D02*
D03*
X102890Y724730D02*
D03*
X94890D02*
D03*
X86890D02*
D03*
X78891D02*
D03*
X70890D02*
D03*
X62891D02*
D03*
X54890D02*
D03*
X46891D02*
D03*
X38891D02*
D03*
X30891D02*
D03*
X22951Y725710D02*
D03*
X15148Y508598D02*
D03*
X7148D02*
D03*
X7183Y491402D02*
D03*
X15183D02*
D03*
X23622Y489458D02*
D03*
X31121Y492770D02*
D03*
X39121D02*
D03*
X47121D02*
D03*
X55121D02*
D03*
X63121D02*
D03*
X71121D02*
D03*
X79121D02*
D03*
X87121D02*
D03*
X95121D02*
D03*
X103121D02*
D03*
X111121D02*
D03*
X119121Y492733D02*
D03*
X102890Y507230D02*
D03*
X94890D02*
D03*
X86890D02*
D03*
X78891D02*
D03*
X70890D02*
D03*
X62891D02*
D03*
X54890D02*
D03*
X46891D02*
D03*
X38891D02*
D03*
X30891D02*
D03*
X23368Y510794D02*
D03*
X250778Y509616D02*
D03*
X248666Y490474D02*
D03*
X258318Y509616D02*
D03*
X255778Y491301D02*
D03*
X262566Y491540D02*
D03*
X270484Y492678D02*
D03*
X278484D02*
D03*
X286484Y492684D02*
D03*
X294483Y492837D02*
D03*
X274320Y507746D02*
D03*
X266140Y509616D02*
D03*
X240671Y507230D02*
D03*
X232671D02*
D03*
X224671D02*
D03*
X216671D02*
D03*
X208671D02*
D03*
X200671D02*
D03*
X192671D02*
D03*
X184671D02*
D03*
X167754Y509780D02*
D03*
X170185Y492736D02*
D03*
X178185Y492770D02*
D03*
X186185D02*
D03*
X194185D02*
D03*
X202185D02*
D03*
X210185D02*
D03*
X218185D02*
D03*
X226185D02*
D03*
X234185D02*
D03*
X242185D02*
D03*
X255778Y706252D02*
D03*
X262325Y272217D02*
D03*
X407102Y274218D02*
D03*
X358255Y289820D02*
D03*
X367184Y275362D02*
D03*
X359184D02*
D03*
X399184D02*
D03*
X398255Y289820D02*
D03*
X375184Y275362D02*
D03*
X366255Y289820D02*
D03*
X374255D02*
D03*
X382255D02*
D03*
X390255D02*
D03*
X391184Y275362D02*
D03*
X383184D02*
D03*
X351184D02*
D03*
X343185Y275271D02*
D03*
X406146Y291138D02*
D03*
X359377Y492659D02*
D03*
X358093Y507117D02*
D03*
X636464Y500388D02*
D03*
X632865Y442537D02*
D03*
X631445Y434664D02*
D03*
X629582Y426884D02*
D03*
X627510Y419157D02*
D03*
X624984Y411566D02*
D03*
X622163Y404080D02*
D03*
X619102Y396689D02*
D03*
X615559Y389516D02*
D03*
X611823Y382442D02*
D03*
X607741Y375562D02*
D03*
X603329Y368889D02*
D03*
X598737Y362338D02*
D03*
X593717Y356109D02*
D03*
X588505Y350040D02*
D03*
X583054Y344185D02*
D03*
X577270Y338658D02*
D03*
X571339Y333289D02*
D03*
X565110Y328269D02*
D03*
X558680Y323509D02*
D03*
X552108Y318947D02*
D03*
X545242Y314842D02*
D03*
X538267Y310924D02*
D03*
X531113Y307343D02*
D03*
X523787Y304129D02*
D03*
X516377Y301114D02*
D03*
X508787Y298588D02*
D03*
X501116Y296316D02*
D03*
X493364Y294337D02*
D03*
X485508Y292830D02*
D03*
X477613Y291536D02*
D03*
X469659Y290681D02*
D03*
X461675Y290168D02*
D03*
X453681Y289883D02*
D03*
X445681Y289907D02*
D03*
X437681D02*
D03*
X429681D02*
D03*
X421758Y291018D02*
D03*
X413759Y291090D02*
D03*
X417266Y274218D02*
D03*
X425171Y275449D02*
D03*
X433171D02*
D03*
X441171D02*
D03*
X449171D02*
D03*
X457171Y275495D02*
D03*
X465166Y275781D02*
D03*
X473136Y276468D02*
D03*
X481090Y277323D02*
D03*
X488968Y278717D02*
D03*
X496819Y280251D02*
D03*
X504571Y282230D02*
D03*
X512254Y284457D02*
D03*
X519845Y286983D02*
D03*
X527300Y289886D02*
D03*
X534691Y292948D02*
D03*
X541858Y296503D02*
D03*
X548960Y300184D02*
D03*
X555840Y304266D02*
D03*
X562587Y308566D02*
D03*
X569158Y313129D02*
D03*
X575494Y318012D02*
D03*
X581724Y323032D02*
D03*
X587600Y328460D02*
D03*
X593379Y333992D02*
D03*
X598830Y339847D02*
D03*
X604094Y345872D02*
D03*
X609114Y352101D02*
D03*
X613820Y358570D02*
D03*
X618382Y365141D02*
D03*
X622494Y372004D02*
D03*
X626482Y378939D02*
D03*
X630063Y386093D02*
D03*
X633418Y393355D02*
D03*
X636480Y400746D02*
D03*
X639175Y408279D02*
D03*
X641701Y415869D02*
D03*
X643715Y423611D02*
D03*
X645591Y431389D02*
D03*
X647011Y439261D02*
D03*
X648187Y447174D02*
D03*
X649042Y455129D02*
D03*
X649508Y463115D02*
D03*
X649794Y471110D02*
D03*
X649726Y479110D02*
D03*
X648910Y487068D02*
D03*
X535979Y558296D02*
D03*
X530074Y555200D02*
D03*
X523382Y550815D02*
D03*
X517945Y544947D02*
D03*
X514319Y537816D02*
D03*
X512621Y529999D02*
D03*
X512233Y522008D02*
D03*
X509412Y514522D02*
D03*
X503422Y509219D02*
D03*
X495702Y507120D02*
D03*
X487702Y507077D02*
D03*
X479702D02*
D03*
X471703D02*
D03*
X463703D02*
D03*
X455703D02*
D03*
X447703D02*
D03*
X439703D02*
D03*
X431703D02*
D03*
X423721Y507623D02*
D03*
X415751Y508308D02*
D03*
X415932Y491388D02*
D03*
X423892Y492187D02*
D03*
X431880Y492619D02*
D03*
X439880D02*
D03*
X447880D02*
D03*
X455880D02*
D03*
X463880D02*
D03*
X471880D02*
D03*
X479880D02*
D03*
X487880D02*
D03*
X495880Y492608D02*
D03*
X503791Y493801D02*
D03*
X511157Y496921D02*
D03*
X517530Y501757D02*
D03*
X522431Y508080D02*
D03*
X525650Y515404D02*
D03*
X526897Y523306D02*
D03*
X527492Y531284D02*
D03*
X531277Y538332D02*
D03*
X537928Y542778D02*
D03*
X545887Y543588D02*
D03*
X553419Y540891D02*
D03*
X559040Y535199D02*
D03*
X561673Y527644D02*
D03*
X561885Y519647D02*
D03*
Y511647D02*
D03*
Y503647D02*
D03*
Y495647D02*
D03*
Y487647D02*
D03*
Y479647D02*
D03*
X562170Y471652D02*
D03*
X564029Y463871D02*
D03*
X567578Y456701D02*
D03*
X572555Y450438D02*
D03*
X578817Y445460D02*
D03*
X585986Y441910D02*
D03*
X593767Y440048D02*
D03*
X601766Y439963D02*
D03*
X609605Y441561D02*
D03*
X616877Y444896D02*
D03*
X623290Y449678D02*
D03*
X628469Y455775D02*
D03*
X632170Y462868D02*
D03*
X620775Y483375D02*
D03*
X620191Y475396D02*
D03*
X618429Y467593D02*
D03*
X614032Y460909D02*
D03*
X607489Y456307D02*
D03*
X599731Y454351D02*
D03*
X591782Y455251D02*
D03*
X584723Y459015D02*
D03*
X579471Y465050D02*
D03*
X576681Y472547D02*
D03*
X576343Y480540D02*
D03*
Y488540D02*
D03*
Y496540D02*
D03*
Y504540D02*
D03*
Y512540D02*
D03*
Y520540D02*
D03*
X576161Y528538D02*
D03*
X574487Y536361D02*
D03*
X570903Y543513D02*
D03*
X565720Y549607D02*
D03*
X559226Y554279D02*
D03*
X551773Y557187D02*
D03*
X543850Y558296D02*
D03*
X406003Y508308D02*
D03*
X398093Y507117D02*
D03*
X390093D02*
D03*
X382093D02*
D03*
X374093D02*
D03*
X366093D02*
D03*
X367377Y492659D02*
D03*
X375377D02*
D03*
X383377D02*
D03*
X391377D02*
D03*
X399377D02*
D03*
X407275Y491388D02*
D03*
X406146Y725986D02*
D03*
X398255Y724668D02*
D03*
X390255D02*
D03*
X382255D02*
D03*
X374255D02*
D03*
X366255D02*
D03*
X358255D02*
D03*
X359184Y710210D02*
D03*
X367184D02*
D03*
X375184D02*
D03*
X383184D02*
D03*
X391184D02*
D03*
X399184D02*
D03*
X407102Y709066D02*
D03*
X414986D02*
D03*
Y725986D02*
D03*
X424098Y710118D02*
D03*
X432096Y710297D02*
D03*
X440096D02*
D03*
X448096D02*
D03*
X456096D02*
D03*
X464096D02*
D03*
X472096D02*
D03*
X480092Y710034D02*
D03*
X488068Y709421D02*
D03*
X496011Y708464D02*
D03*
X503857Y706903D02*
D03*
X511624Y704987D02*
D03*
X519301Y702735D02*
D03*
X526806Y699967D02*
D03*
X534153Y696799D02*
D03*
X541354Y693316D02*
D03*
X548334Y689407D02*
D03*
X555059Y685074D02*
D03*
X561590Y680454D02*
D03*
X567873Y675501D02*
D03*
X573794Y670121D02*
D03*
X579476Y664490D02*
D03*
X584906Y658615D02*
D03*
X589861Y652334D02*
D03*
X594540Y645845D02*
D03*
X598933Y639159D02*
D03*
X602842Y632179D02*
D03*
X606390Y625009D02*
D03*
X609623Y617692D02*
D03*
X612392Y610186D02*
D03*
X614712Y602530D02*
D03*
X616698Y594780D02*
D03*
X618259Y586934D02*
D03*
X619288Y579001D02*
D03*
X619972Y571030D02*
D03*
X620287Y563036D02*
D03*
X620271Y555036D02*
D03*
X620272Y547036D02*
D03*
X620272Y539036D02*
D03*
X620838Y515056D02*
D03*
X635000Y531036D02*
D03*
Y539036D02*
D03*
X634731Y546865D02*
D03*
X634730Y554865D02*
D03*
X634795Y562864D02*
D03*
X634493Y570859D02*
D03*
X633912Y578837D02*
D03*
X632971Y586782D02*
D03*
X631512Y594648D02*
D03*
X629800Y602462D02*
D03*
X627629Y610162D02*
D03*
X625064Y617740D02*
D03*
X622257Y625231D02*
D03*
X618908Y632496D02*
D03*
X615291Y639632D02*
D03*
X611382Y646612D02*
D03*
X606999Y653304D02*
D03*
X602403Y659852D02*
D03*
X597450Y666135D02*
D03*
X592159Y672135D02*
D03*
X586677Y677962D02*
D03*
X580802Y683392D02*
D03*
X574711Y688578D02*
D03*
X568428Y693531D02*
D03*
X561801Y698012D02*
D03*
X555033Y702277D02*
D03*
X548054Y706186D02*
D03*
X540856Y709678D02*
D03*
X533550Y712937D02*
D03*
X526044Y715706D02*
D03*
X518423Y718138D02*
D03*
X510722Y720307D02*
D03*
X502879Y721884D02*
D03*
X494990Y723206D02*
D03*
X487045Y724147D02*
D03*
X479057Y724589D02*
D03*
X471059Y724755D02*
D03*
X463059D02*
D03*
X455059D02*
D03*
X447059D02*
D03*
X439059D02*
D03*
X431059D02*
D03*
X423104Y725598D02*
D03*
X700788Y590135D02*
D03*
X692788D02*
D03*
X684788D02*
D03*
X676788D02*
D03*
X668788D02*
D03*
X660830Y589323D02*
D03*
X653278Y586683D02*
D03*
X646646Y582209D02*
D03*
X641217Y576333D02*
D03*
X649731Y539526D02*
D03*
X649731Y547526D02*
D03*
X649730Y555526D02*
D03*
X650805Y563453D02*
D03*
X654984Y570275D02*
D03*
X661752Y574540D02*
D03*
X669671Y575677D02*
D03*
X677671D02*
D03*
X685671D02*
D03*
X693671D02*
D03*
X701671D02*
D03*
X768100Y593700D02*
D03*
X759968Y592328D02*
D03*
X753187Y590136D02*
D03*
X745187D02*
D03*
X737187D02*
D03*
X729187D02*
D03*
X721282Y591366D02*
D03*
X710264D02*
D03*
X710478Y574446D02*
D03*
X722252D02*
D03*
X730157Y575676D02*
D03*
X738157D02*
D03*
X746157D02*
D03*
X754157D02*
D03*
X759968Y572008D02*
D03*
X768100D02*
D03*
X775970D02*
D03*
X782574Y577004D02*
D03*
Y588518D02*
D03*
X775970Y593700D02*
D03*
X6604Y240636D02*
D03*
Y229460D02*
D03*
X16510D02*
D03*
Y240636D02*
D03*
X26416D02*
D03*
Y229460D02*
D03*
X36322Y240636D02*
D03*
Y229460D02*
D03*
X46228Y240636D02*
D03*
Y229460D02*
D03*
X6604Y335636D02*
D03*
Y324460D02*
D03*
X16510D02*
D03*
Y335636D02*
D03*
X26416D02*
D03*
Y324460D02*
D03*
X36322Y335636D02*
D03*
Y324460D02*
D03*
X46228Y335636D02*
D03*
Y324460D02*
D03*
X6604Y458136D02*
D03*
Y446960D02*
D03*
X16510D02*
D03*
Y458136D02*
D03*
X26416D02*
D03*
Y446960D02*
D03*
X36322Y458136D02*
D03*
Y446960D02*
D03*
X46228Y458136D02*
D03*
Y446960D02*
D03*
X6604Y553136D02*
D03*
Y541960D02*
D03*
X16510D02*
D03*
Y553136D02*
D03*
X26416D02*
D03*
Y541960D02*
D03*
X36322Y553136D02*
D03*
Y541960D02*
D03*
X46228Y553136D02*
D03*
Y541960D02*
D03*
X6604Y675636D02*
D03*
Y664460D02*
D03*
X16510D02*
D03*
Y675636D02*
D03*
X26416D02*
D03*
Y664460D02*
D03*
X36322Y675636D02*
D03*
Y664460D02*
D03*
X46228Y675636D02*
D03*
Y664460D02*
D03*
Y759460D02*
D03*
Y770636D02*
D03*
X36322Y759460D02*
D03*
Y770636D02*
D03*
X26416Y759460D02*
D03*
Y770636D02*
D03*
X16510D02*
D03*
Y759460D02*
D03*
X6604D02*
D03*
Y770636D02*
D03*
X317506Y282504D02*
D03*
Y717352D02*
D03*
Y499928D02*
D03*
X1394215Y446960D02*
D03*
Y458136D02*
D03*
X1384309Y446960D02*
D03*
Y458136D02*
D03*
X1374403Y446960D02*
D03*
Y458136D02*
D03*
X1364497D02*
D03*
Y446960D02*
D03*
X1354591D02*
D03*
Y458136D02*
D03*
X1394215Y541960D02*
D03*
Y553136D02*
D03*
X1384309Y541960D02*
D03*
Y553136D02*
D03*
X1374403Y541960D02*
D03*
Y553136D02*
D03*
X1364497D02*
D03*
Y541960D02*
D03*
X1354591D02*
D03*
Y553136D02*
D03*
X175789Y372750D02*
D03*
X175789Y822600D02*
D03*
X175789Y586750D02*
D03*
X590844Y562683D02*
D03*
X593852Y492228D02*
D03*
X348234Y822600D02*
D03*
X603504Y498324D02*
D03*
X348150Y372750D02*
D03*
X347650Y586750D02*
D03*
D41*
X569114Y476236D02*
G03*
X627500Y476226I29193J-52D01*
G01*
X495300Y499848D02*
G03*
X519684Y524232I0J24384D01*
G01*
X543526Y551047D02*
G03*
X519684Y527206I0J-23842D01*
G01*
X569114Y525458D02*
G03*
X543526Y551047I-25589J0D01*
G01*
X453526Y282678D02*
G03*
X642500Y471652I0J188974D01*
G01*
X627500Y562726D02*
G03*
X472559Y717526I-154800J0D01*
G01*
X667900Y582906D02*
G03*
X642500Y557506I0J-25400D01*
G01*
X627500Y562726D02*
X627504Y520869D01*
X642500Y557506D02*
X642504Y520869D01*
X288798Y717426D02*
X297428D01*
X288798D02*
Y717462D01*
X286258D02*
X288798D01*
X286258Y500067D02*
X296967D01*
X569114Y476236D02*
Y525458D01*
X417749Y499848D02*
X495300D01*
X519684Y524232D02*
Y527206D01*
X627496Y479131D02*
X627500Y476226D01*
X417576Y282678D02*
X453526D01*
X642496Y479131D02*
X642500Y471652D01*
X348120Y282500D02*
X348211Y282591D01*
X338044Y282500D02*
X348120D01*
X348093Y499925D02*
X348130Y499888D01*
X338044Y499925D02*
X348093D01*
X348120Y717348D02*
X348211Y717439D01*
X337516Y717348D02*
X348120D01*
X287467Y282504D02*
X295996D01*
X720050Y582906D02*
X762964D01*
X348211Y717439D02*
X407918D01*
X417576Y717526D02*
X472539D01*
X472559Y717526D01*
X407918Y717439D02*
X408005Y717526D01*
X408138Y499888D02*
X408178Y499848D01*
X348130Y499888D02*
X408138D01*
X407918Y282591D02*
X408005Y282678D01*
X667900Y582906D02*
X710478D01*
X348211Y282591D02*
X407918D01*
D42*
X124248Y499866D02*
X129720D01*
X124181Y499933D02*
X124248Y499866D01*
X123731Y282507D02*
X129731D01*
X123836Y717470D02*
X129805D01*
X650337Y502496D02*
X655869D01*
X627504Y515337D02*
Y520869D01*
X642504Y515337D02*
Y520869D01*
X615695Y502500D02*
X619670D01*
X590844Y527350D02*
Y549378D01*
Y527350D02*
X615695Y502500D01*
X159210Y282440D02*
X164741D01*
X159199Y499933D02*
X164730D01*
X159285Y717433D02*
X164816D01*
X297502Y717352D02*
X303033D01*
X175789Y291208D02*
Y372750D01*
X347815Y508903D02*
Y586585D01*
X348107Y726035D02*
Y822473D01*
X348065Y291145D02*
Y372665D01*
X175789Y508700D02*
Y586750D01*
X175789Y726200D02*
Y822600D01*
X175789Y822600D02*
X175789Y822600D01*
Y726200D02*
X175789Y726200D01*
X175789Y586750D02*
X175789Y586750D01*
X590844Y549378D02*
Y562683D01*
X627496Y479131D02*
Y484663D01*
X642496Y479131D02*
Y484663D01*
X296967Y500067D02*
X302499D01*
X332513Y282500D02*
X338044D01*
X332513Y499925D02*
X338044D01*
X331985Y717348D02*
X337516D01*
X295996Y282504D02*
X303033D01*
X348107Y822473D02*
X348234Y822600D01*
X347980Y725908D02*
X348107Y726035D01*
X347650Y586750D02*
X347815Y586585D01*
Y508903D02*
X347980Y508738D01*
X348065Y372665D02*
X348150Y372750D01*
X347980Y291060D02*
X348065Y291145D01*
D43*
X1388498Y502498D02*
X1388500Y502500D01*
X698207Y502498D02*
X1388498D01*
X698206Y502496D02*
X698207Y502498D01*
X655869Y502496D02*
X688634D01*
X164741Y282440D02*
X175789Y282507D01*
X250992D01*
X164730Y499933D02*
X175789Y500000D01*
X250992D01*
X175722Y499933D02*
X175789Y500000D01*
X11500D02*
X112676D01*
X124181Y499933D01*
X175789Y717500D02*
X250992D01*
X164816Y717433D02*
X175789Y717500D01*
X262050Y717426D02*
X286222D01*
X260564Y717500D02*
X262050Y717426D01*
X112676Y717500D02*
X123739Y717567D01*
X11500Y717500D02*
X112676D01*
X260656Y499908D02*
X286166D01*
X262050Y282424D02*
X286258D01*
X260564Y282507D02*
X262050Y282424D01*
X112676Y282507D02*
X123665Y282575D01*
X11500Y282500D02*
X11504Y282504D01*
X112672D01*
X112676Y282507D01*
X286166Y499908D02*
X286258Y499816D01*
X260564Y500000D02*
X260656Y499908D01*
D44*
X635000Y515330D02*
Y531036D01*
D45*
X619612Y492442D02*
X619670Y492500D01*
X594066Y492442D02*
X619612D01*
X593852Y492228D02*
X594066Y492442D01*
X605264Y497500D02*
X619670D01*
X603504Y498324D02*
X604440D01*
X605264Y497500D01*
M02*
