G04*
G04 #@! TF.GenerationSoftware,Altium Limited,Altium Designer,25.8.1 (18)*
G04*
G04 Layer_Physical_Order=3*
G04 Layer_Color=16440176*
%FSLAX44Y44*%
%MOMM*%
G71*
G04*
G04 #@! TF.SameCoordinates,2120D8EF-05CC-4178-8A97-661A8360891B*
G04*
G04*
G04 #@! TF.FilePolarity,Positive*
G04*
G01*
G75*
G04:AMPARAMS|DCode=33|XSize=1.8mm|YSize=1.8mm|CornerRadius=0.45mm|HoleSize=0mm|Usage=FLASHONLY|Rotation=270.000|XOffset=0mm|YOffset=0mm|HoleType=Round|Shape=RoundedRectangle|*
%AMROUNDEDRECTD33*
21,1,1.8000,0.9000,0,0,270.0*
21,1,0.9000,1.8000,0,0,270.0*
1,1,0.9000,-0.4500,-0.4500*
1,1,0.9000,-0.4500,0.4500*
1,1,0.9000,0.4500,0.4500*
1,1,0.9000,0.4500,-0.4500*
%
%ADD33ROUNDEDRECTD33*%
G04:AMPARAMS|DCode=34|XSize=1.5mm|YSize=1.5mm|CornerRadius=0.375mm|HoleSize=0mm|Usage=FLASHONLY|Rotation=270.000|XOffset=0mm|YOffset=0mm|HoleType=Round|Shape=RoundedRectangle|*
%AMROUNDEDRECTD34*
21,1,1.5000,0.7500,0,0,270.0*
21,1,0.7500,1.5000,0,0,270.0*
1,1,0.7500,-0.3750,-0.3750*
1,1,0.7500,-0.3750,0.3750*
1,1,0.7500,0.3750,0.3750*
1,1,0.7500,0.3750,-0.3750*
%
%ADD34ROUNDEDRECTD34*%
%ADD35C,1.8000*%
%ADD36C,2.0000*%
%ADD37C,1.5000*%
%ADD38C,0.6000*%
G36*
X1398000Y2000D02*
X2000D01*
Y998000D01*
X2000Y998000D01*
X1398000D01*
Y2000D01*
D02*
G37*
%LPC*%
G36*
X1336800Y963187D02*
X1333327D01*
X1333223Y963144D01*
X1333115Y963173D01*
X1329671Y962720D01*
X1329574Y962664D01*
X1329462Y962678D01*
X1326107Y961779D01*
X1326018Y961711D01*
X1325906D01*
X1322696Y960382D01*
X1322617Y960302D01*
X1322506Y960288D01*
X1319498Y958551D01*
X1319429Y958462D01*
X1319321Y958433D01*
X1316565Y956318D01*
X1316509Y956221D01*
X1316405Y956178D01*
X1313949Y953722D01*
X1313906Y953618D01*
X1313809Y953562D01*
X1311694Y950806D01*
X1311665Y950698D01*
X1311576Y950630D01*
X1309839Y947621D01*
X1309825Y947510D01*
X1309745Y947431D01*
X1308416Y944221D01*
Y944109D01*
X1308348Y944020D01*
X1307449Y940665D01*
X1307463Y940554D01*
X1307407Y940456D01*
X1306954Y937012D01*
X1306983Y936904D01*
X1306940Y936800D01*
Y933327D01*
X1306983Y933223D01*
X1306954Y933115D01*
X1307407Y929671D01*
X1307463Y929574D01*
X1307449Y929462D01*
X1308348Y926107D01*
X1308416Y926018D01*
Y925906D01*
X1309745Y922696D01*
X1309825Y922617D01*
X1309839Y922506D01*
X1311576Y919498D01*
X1311665Y919429D01*
X1311694Y919321D01*
X1313809Y916565D01*
X1313906Y916509D01*
X1313949Y916405D01*
X1316405Y913949D01*
X1316509Y913906D01*
X1316565Y913809D01*
X1319321Y911694D01*
X1319429Y911665D01*
X1319498Y911576D01*
X1322506Y909839D01*
X1322617Y909825D01*
X1322696Y909745D01*
X1325906Y908416D01*
X1326018D01*
X1326107Y908348D01*
X1329462Y907449D01*
X1329574Y907463D01*
X1329671Y907407D01*
X1333115Y906954D01*
X1333223Y906983D01*
X1333327Y906940D01*
X1336800D01*
X1336904Y906983D01*
X1337012Y906954D01*
X1340456Y907407D01*
X1340553Y907463D01*
X1340665Y907449D01*
X1344020Y908348D01*
X1344109Y908416D01*
X1344221D01*
X1347431Y909745D01*
X1347510Y909825D01*
X1347621Y909839D01*
X1350629Y911576D01*
X1350698Y911665D01*
X1350806Y911694D01*
X1353562Y913809D01*
X1353618Y913906D01*
X1353722Y913949D01*
X1356178Y916405D01*
X1356221Y916509D01*
X1356318Y916565D01*
X1358433Y919321D01*
X1358462Y919429D01*
X1358551Y919497D01*
X1360288Y922506D01*
X1360302Y922617D01*
X1360382Y922696D01*
X1361711Y925906D01*
Y926018D01*
X1361779Y926107D01*
X1362678Y929462D01*
X1362664Y929574D01*
X1362720Y929671D01*
X1363173Y933115D01*
X1363144Y933223D01*
X1363187Y933327D01*
Y936800D01*
X1363144Y936904D01*
X1363173Y937012D01*
X1362720Y940456D01*
X1362664Y940554D01*
X1362678Y940665D01*
X1361779Y944020D01*
X1361711Y944109D01*
Y944221D01*
X1360382Y947431D01*
X1360302Y947510D01*
X1360288Y947621D01*
X1358551Y950630D01*
X1358462Y950698D01*
X1358433Y950806D01*
X1356318Y953562D01*
X1356221Y953618D01*
X1356178Y953722D01*
X1353722Y956178D01*
X1353618Y956221D01*
X1353562Y956318D01*
X1350806Y958433D01*
X1350698Y958462D01*
X1350629Y958551D01*
X1347621Y960288D01*
X1347510Y960302D01*
X1347431Y960382D01*
X1344221Y961711D01*
X1344109D01*
X1344020Y961779D01*
X1340665Y962678D01*
X1340553Y962664D01*
X1340456Y962720D01*
X1337012Y963173D01*
X1336904Y963144D01*
X1336800Y963187D01*
D02*
G37*
G36*
X66800D02*
X63327D01*
X63223Y963144D01*
X63115Y963173D01*
X59671Y962720D01*
X59573Y962664D01*
X59462Y962678D01*
X56107Y961779D01*
X56018Y961711D01*
X55906D01*
X52696Y960382D01*
X52617Y960302D01*
X52506Y960288D01*
X49497Y958551D01*
X49429Y958462D01*
X49321Y958433D01*
X46565Y956318D01*
X46509Y956221D01*
X46405Y956178D01*
X43949Y953722D01*
X43906Y953618D01*
X43809Y953562D01*
X41694Y950806D01*
X41665Y950698D01*
X41576Y950630D01*
X39839Y947621D01*
X39825Y947510D01*
X39745Y947431D01*
X38416Y944221D01*
Y944109D01*
X38348Y944020D01*
X37449Y940665D01*
X37463Y940554D01*
X37407Y940456D01*
X36954Y937012D01*
X36983Y936904D01*
X36940Y936800D01*
Y933327D01*
X36983Y933223D01*
X36954Y933115D01*
X37407Y929671D01*
X37463Y929574D01*
X37449Y929462D01*
X38348Y926107D01*
X38416Y926018D01*
Y925906D01*
X39745Y922696D01*
X39825Y922617D01*
X39839Y922506D01*
X41576Y919498D01*
X41665Y919429D01*
X41694Y919321D01*
X43809Y916565D01*
X43906Y916509D01*
X43949Y916405D01*
X46405Y913949D01*
X46509Y913906D01*
X46565Y913809D01*
X49321Y911694D01*
X49429Y911665D01*
X49497Y911576D01*
X52506Y909839D01*
X52617Y909825D01*
X52696Y909745D01*
X55906Y908416D01*
X56018D01*
X56107Y908348D01*
X59462Y907449D01*
X59573Y907463D01*
X59671Y907407D01*
X63115Y906954D01*
X63223Y906983D01*
X63327Y906940D01*
X66800D01*
X66904Y906983D01*
X67012Y906954D01*
X70456Y907407D01*
X70553Y907463D01*
X70665Y907449D01*
X74020Y908348D01*
X74109Y908416D01*
X74221D01*
X77431Y909745D01*
X77510Y909825D01*
X77621Y909839D01*
X80630Y911576D01*
X80698Y911665D01*
X80806Y911694D01*
X83562Y913809D01*
X83618Y913906D01*
X83722Y913949D01*
X86178Y916405D01*
X86221Y916509D01*
X86318Y916565D01*
X88433Y919321D01*
X88462Y919429D01*
X88551Y919497D01*
X90288Y922506D01*
X90302Y922617D01*
X90382Y922696D01*
X91711Y925906D01*
Y926018D01*
X91779Y926107D01*
X92678Y929462D01*
X92664Y929574D01*
X92720Y929671D01*
X93173Y933115D01*
X93144Y933223D01*
X93187Y933327D01*
Y936800D01*
X93144Y936904D01*
X93173Y937012D01*
X92720Y940456D01*
X92664Y940554D01*
X92678Y940665D01*
X91779Y944020D01*
X91711Y944109D01*
Y944221D01*
X90382Y947431D01*
X90302Y947510D01*
X90288Y947621D01*
X88551Y950630D01*
X88462Y950698D01*
X88433Y950806D01*
X86318Y953562D01*
X86221Y953618D01*
X86178Y953722D01*
X83722Y956178D01*
X83618Y956221D01*
X83562Y956318D01*
X80806Y958433D01*
X80698Y958462D01*
X80630Y958551D01*
X77621Y960288D01*
X77510Y960302D01*
X77431Y960382D01*
X74221Y961711D01*
X74109D01*
X74020Y961779D01*
X70665Y962678D01*
X70553Y962664D01*
X70456Y962720D01*
X67012Y963173D01*
X66904Y963144D01*
X66800Y963187D01*
D02*
G37*
G36*
X349129Y827100D02*
X347339D01*
X345685Y826415D01*
X344419Y825149D01*
X343734Y823495D01*
Y821705D01*
X344419Y820051D01*
X345685Y818785D01*
X347339Y818100D01*
X349129D01*
X350783Y818785D01*
X352049Y820051D01*
X352734Y821705D01*
Y823495D01*
X352049Y825149D01*
X350783Y826415D01*
X349129Y827100D01*
D02*
G37*
G36*
X176684D02*
X174894D01*
X173240Y826415D01*
X171974Y825149D01*
X171289Y823495D01*
Y821705D01*
X171974Y820051D01*
X173240Y818785D01*
X174894Y818100D01*
X176684D01*
X178338Y818785D01*
X179604Y820051D01*
X180289Y821705D01*
Y823495D01*
X179604Y825149D01*
X178338Y826415D01*
X176684Y827100D01*
D02*
G37*
G36*
X1308232Y815150D02*
X1305468D01*
X1302797Y814434D01*
X1300403Y813052D01*
X1298448Y811097D01*
X1297066Y808703D01*
X1296350Y806032D01*
Y803268D01*
X1297066Y800597D01*
X1298448Y798203D01*
X1300403Y796248D01*
X1302797Y794866D01*
X1305468Y794150D01*
X1308232D01*
X1310903Y794866D01*
X1313297Y796248D01*
X1315252Y798203D01*
X1316634Y800597D01*
X1317350Y803268D01*
Y806032D01*
X1316634Y808703D01*
X1315252Y811097D01*
X1313297Y813052D01*
X1310903Y814434D01*
X1308232Y815150D01*
D02*
G37*
G36*
X1194564Y815550D02*
X1191536D01*
X1188611Y814766D01*
X1185989Y813252D01*
X1183848Y811111D01*
X1182334Y808489D01*
X1181550Y805564D01*
Y802536D01*
X1182334Y799611D01*
X1183848Y796989D01*
X1185989Y794848D01*
X1188611Y793334D01*
X1191536Y792550D01*
X1194564D01*
X1197489Y793334D01*
X1200111Y794848D01*
X1202252Y796989D01*
X1203766Y799611D01*
X1204550Y802536D01*
Y805564D01*
X1203766Y808489D01*
X1202252Y811111D01*
X1200111Y813252D01*
X1197489Y814766D01*
X1194564Y815550D01*
D02*
G37*
G36*
X1308232Y790150D02*
X1305468D01*
X1302797Y789434D01*
X1300403Y788052D01*
X1298448Y786097D01*
X1297066Y783703D01*
X1296350Y781032D01*
Y778268D01*
X1297066Y775597D01*
X1298448Y773203D01*
X1300403Y771248D01*
X1302797Y769866D01*
X1305468Y769150D01*
X1308232D01*
X1310903Y769866D01*
X1313297Y771248D01*
X1315252Y773203D01*
X1316634Y775597D01*
X1317350Y778268D01*
Y781032D01*
X1316634Y783703D01*
X1315252Y786097D01*
X1313297Y788052D01*
X1310903Y789434D01*
X1308232Y790150D01*
D02*
G37*
G36*
X1311350Y766251D02*
X1308120D01*
Y755920D01*
X1318451D01*
Y759150D01*
X1318209Y760988D01*
X1317499Y762700D01*
X1316371Y764171D01*
X1314900Y765299D01*
X1313188Y766009D01*
X1311350Y766251D01*
D02*
G37*
G36*
X1305580D02*
X1302350D01*
X1300512Y766009D01*
X1298800Y765299D01*
X1297329Y764171D01*
X1296201Y762700D01*
X1295491Y760988D01*
X1295249Y759150D01*
Y755920D01*
X1305580D01*
Y766251D01*
D02*
G37*
G36*
X1194314Y771450D02*
X1191286D01*
X1188361Y770666D01*
X1185739Y769152D01*
X1183598Y767011D01*
X1182084Y764389D01*
X1181300Y761464D01*
Y758436D01*
X1182084Y755511D01*
X1183598Y752889D01*
X1185739Y750748D01*
X1188361Y749234D01*
X1191286Y748450D01*
X1194314D01*
X1197239Y749234D01*
X1199861Y750748D01*
X1202002Y752889D01*
X1203516Y755511D01*
X1204300Y758436D01*
Y761464D01*
X1203516Y764389D01*
X1202002Y767011D01*
X1199861Y769152D01*
X1197239Y770666D01*
X1194314Y771450D01*
D02*
G37*
G36*
X1318451Y753380D02*
X1308120D01*
Y743049D01*
X1311350D01*
X1313188Y743291D01*
X1314900Y744001D01*
X1316371Y745129D01*
X1317499Y746600D01*
X1318209Y748312D01*
X1318451Y750150D01*
Y753380D01*
D02*
G37*
G36*
X1305580D02*
X1295249D01*
Y750150D01*
X1295491Y748312D01*
X1296201Y746600D01*
X1297329Y745129D01*
X1298800Y744001D01*
X1300512Y743291D01*
X1302350Y743049D01*
X1305580D01*
Y753380D01*
D02*
G37*
G36*
X1309385Y695650D02*
X1307015D01*
X1304726Y695037D01*
X1302674Y693852D01*
X1300998Y692176D01*
X1299813Y690124D01*
X1299200Y687835D01*
Y685465D01*
X1299813Y683176D01*
X1300998Y681124D01*
X1302674Y679448D01*
X1304726Y678263D01*
X1307015Y677650D01*
X1309385D01*
X1311674Y678263D01*
X1313726Y679448D01*
X1315402Y681124D01*
X1316587Y683176D01*
X1317200Y685465D01*
Y687835D01*
X1316587Y690124D01*
X1315402Y692176D01*
X1313726Y693852D01*
X1311674Y695037D01*
X1309385Y695650D01*
D02*
G37*
G36*
X1311950Y671813D02*
X1309470D01*
Y662920D01*
X1318363D01*
Y665400D01*
X1317875Y667854D01*
X1316485Y669935D01*
X1314404Y671325D01*
X1311950Y671813D01*
D02*
G37*
G36*
X1306930D02*
X1304450D01*
X1301996Y671325D01*
X1299915Y669935D01*
X1298525Y667854D01*
X1298037Y665400D01*
Y662920D01*
X1306930D01*
Y671813D01*
D02*
G37*
G36*
X1318363Y660380D02*
X1309470D01*
Y651487D01*
X1311950D01*
X1314404Y651975D01*
X1316485Y653365D01*
X1317875Y655446D01*
X1318363Y657900D01*
Y660380D01*
D02*
G37*
G36*
X1306930D02*
X1298037D01*
Y657900D01*
X1298525Y655446D01*
X1299915Y653365D01*
X1301996Y651975D01*
X1304450Y651487D01*
X1306930D01*
Y660380D01*
D02*
G37*
G36*
X348545Y591250D02*
X346755D01*
X345101Y590565D01*
X343835Y589299D01*
X343150Y587645D01*
Y585855D01*
X343835Y584201D01*
X345101Y582935D01*
X346755Y582250D01*
X348545D01*
X350199Y582935D01*
X351465Y584201D01*
X352150Y585855D01*
Y587645D01*
X351465Y589299D01*
X350199Y590565D01*
X348545Y591250D01*
D02*
G37*
G36*
X176684D02*
X174894D01*
X173240Y590565D01*
X171974Y589299D01*
X171289Y587645D01*
Y585855D01*
X171974Y584201D01*
X173240Y582935D01*
X174894Y582250D01*
X176684D01*
X178338Y582935D01*
X179604Y584201D01*
X180289Y585855D01*
Y587645D01*
X179604Y589299D01*
X178338Y590565D01*
X176684Y591250D01*
D02*
G37*
G36*
X591740Y567183D02*
X589949D01*
X588295Y566498D01*
X587029Y565232D01*
X586344Y563578D01*
Y561788D01*
X587029Y560134D01*
X588295Y558868D01*
X589949Y558183D01*
X591740D01*
X593393Y558868D01*
X594659Y560134D01*
X595344Y561788D01*
Y563578D01*
X594659Y565232D01*
X593393Y566498D01*
X591740Y567183D01*
D02*
G37*
G36*
X604399Y502824D02*
X602609D01*
X600955Y502139D01*
X599689Y500873D01*
X599004Y499219D01*
Y497429D01*
X599689Y495775D01*
X600955Y494509D01*
X602609Y493824D01*
X604399D01*
X606053Y494509D01*
X607319Y495775D01*
X608004Y497429D01*
Y499219D01*
X607319Y500873D01*
X606053Y502139D01*
X604399Y502824D01*
D02*
G37*
G36*
X594747Y496728D02*
X592957D01*
X591303Y496043D01*
X590037Y494777D01*
X589352Y493123D01*
Y491333D01*
X590037Y489679D01*
X591303Y488413D01*
X592957Y487728D01*
X594747D01*
X596401Y488413D01*
X597667Y489679D01*
X598352Y491333D01*
Y493123D01*
X597667Y494777D01*
X596401Y496043D01*
X594747Y496728D01*
D02*
G37*
G36*
X349045Y377250D02*
X347255D01*
X345601Y376565D01*
X344335Y375299D01*
X343650Y373645D01*
Y371855D01*
X344335Y370201D01*
X345601Y368935D01*
X347255Y368250D01*
X349045D01*
X350699Y368935D01*
X351965Y370201D01*
X352650Y371855D01*
Y373645D01*
X351965Y375299D01*
X350699Y376565D01*
X349045Y377250D01*
D02*
G37*
G36*
X176684D02*
X174894D01*
X173240Y376565D01*
X171974Y375299D01*
X171289Y373645D01*
Y371855D01*
X171974Y370201D01*
X173240Y368935D01*
X174894Y368250D01*
X176684D01*
X178338Y368935D01*
X179604Y370201D01*
X180289Y371855D01*
Y373645D01*
X179604Y375299D01*
X178338Y376565D01*
X176684Y377250D01*
D02*
G37*
G36*
X1336800Y93187D02*
X1333327D01*
X1333223Y93144D01*
X1333115Y93173D01*
X1329671Y92720D01*
X1329574Y92664D01*
X1329462Y92678D01*
X1326107Y91779D01*
X1326018Y91711D01*
X1325906D01*
X1322696Y90382D01*
X1322617Y90302D01*
X1322506Y90288D01*
X1319498Y88551D01*
X1319429Y88462D01*
X1319321Y88433D01*
X1316565Y86318D01*
X1316509Y86221D01*
X1316405Y86178D01*
X1313949Y83722D01*
X1313906Y83618D01*
X1313809Y83562D01*
X1311694Y80806D01*
X1311665Y80698D01*
X1311576Y80630D01*
X1309839Y77621D01*
X1309825Y77510D01*
X1309745Y77431D01*
X1308416Y74221D01*
Y74109D01*
X1308348Y74020D01*
X1307449Y70665D01*
X1307463Y70553D01*
X1307407Y70456D01*
X1306954Y67012D01*
X1306983Y66904D01*
X1306940Y66800D01*
Y63327D01*
X1306983Y63223D01*
X1306954Y63115D01*
X1307407Y59671D01*
X1307463Y59573D01*
X1307449Y59462D01*
X1308348Y56107D01*
X1308416Y56018D01*
Y55906D01*
X1309745Y52696D01*
X1309825Y52617D01*
X1309839Y52506D01*
X1311576Y49497D01*
X1311665Y49429D01*
X1311694Y49321D01*
X1313809Y46565D01*
X1313906Y46509D01*
X1313949Y46405D01*
X1316405Y43949D01*
X1316509Y43906D01*
X1316565Y43809D01*
X1319321Y41694D01*
X1319429Y41665D01*
X1319498Y41576D01*
X1322506Y39839D01*
X1322617Y39825D01*
X1322696Y39745D01*
X1325906Y38416D01*
X1326018D01*
X1326107Y38348D01*
X1329462Y37449D01*
X1329574Y37463D01*
X1329671Y37407D01*
X1333115Y36954D01*
X1333223Y36983D01*
X1333327Y36940D01*
X1336800D01*
X1336904Y36983D01*
X1337012Y36954D01*
X1340456Y37407D01*
X1340553Y37463D01*
X1340665Y37449D01*
X1344020Y38348D01*
X1344109Y38416D01*
X1344221D01*
X1347431Y39745D01*
X1347510Y39825D01*
X1347621Y39839D01*
X1350629Y41576D01*
X1350698Y41665D01*
X1350806Y41694D01*
X1353562Y43809D01*
X1353618Y43906D01*
X1353722Y43949D01*
X1356178Y46405D01*
X1356221Y46509D01*
X1356318Y46565D01*
X1358433Y49321D01*
X1358462Y49429D01*
X1358551Y49497D01*
X1360288Y52506D01*
X1360302Y52617D01*
X1360382Y52696D01*
X1361711Y55906D01*
Y56018D01*
X1361779Y56107D01*
X1362678Y59462D01*
X1362664Y59573D01*
X1362720Y59671D01*
X1363173Y63115D01*
X1363144Y63223D01*
X1363187Y63327D01*
Y66800D01*
X1363144Y66904D01*
X1363173Y67012D01*
X1362720Y70456D01*
X1362664Y70553D01*
X1362678Y70665D01*
X1361779Y74020D01*
X1361711Y74109D01*
Y74221D01*
X1360382Y77431D01*
X1360302Y77510D01*
X1360288Y77621D01*
X1358551Y80630D01*
X1358462Y80698D01*
X1358433Y80806D01*
X1356318Y83562D01*
X1356221Y83618D01*
X1356178Y83722D01*
X1353722Y86178D01*
X1353618Y86221D01*
X1353562Y86318D01*
X1350806Y88433D01*
X1350698Y88462D01*
X1350629Y88551D01*
X1347621Y90288D01*
X1347510Y90302D01*
X1347431Y90382D01*
X1344221Y91711D01*
X1344109D01*
X1344020Y91779D01*
X1340665Y92678D01*
X1340553Y92664D01*
X1340456Y92720D01*
X1337012Y93173D01*
X1336904Y93144D01*
X1336800Y93187D01*
D02*
G37*
G36*
X66800D02*
X63327D01*
X63223Y93144D01*
X63115Y93173D01*
X59671Y92720D01*
X59573Y92664D01*
X59462Y92678D01*
X56107Y91779D01*
X56018Y91711D01*
X55906D01*
X52696Y90382D01*
X52617Y90302D01*
X52506Y90288D01*
X49497Y88551D01*
X49429Y88462D01*
X49321Y88433D01*
X46565Y86318D01*
X46509Y86221D01*
X46405Y86178D01*
X43949Y83722D01*
X43906Y83618D01*
X43809Y83562D01*
X41694Y80806D01*
X41665Y80698D01*
X41576Y80630D01*
X39839Y77621D01*
X39825Y77510D01*
X39745Y77431D01*
X38416Y74221D01*
Y74109D01*
X38348Y74020D01*
X37449Y70665D01*
X37463Y70553D01*
X37407Y70456D01*
X36954Y67012D01*
X36983Y66904D01*
X36940Y66800D01*
Y63327D01*
X36983Y63223D01*
X36954Y63115D01*
X37407Y59671D01*
X37463Y59573D01*
X37449Y59462D01*
X38348Y56107D01*
X38416Y56018D01*
Y55906D01*
X39745Y52696D01*
X39825Y52617D01*
X39839Y52506D01*
X41576Y49497D01*
X41665Y49429D01*
X41694Y49321D01*
X43809Y46565D01*
X43906Y46509D01*
X43949Y46405D01*
X46405Y43949D01*
X46509Y43906D01*
X46565Y43809D01*
X49321Y41694D01*
X49429Y41665D01*
X49497Y41576D01*
X52506Y39839D01*
X52617Y39825D01*
X52696Y39745D01*
X55906Y38416D01*
X56018D01*
X56107Y38348D01*
X59462Y37449D01*
X59573Y37463D01*
X59671Y37407D01*
X63115Y36954D01*
X63223Y36983D01*
X63327Y36940D01*
X66800D01*
X66904Y36983D01*
X67012Y36954D01*
X70456Y37407D01*
X70553Y37463D01*
X70665Y37449D01*
X74020Y38348D01*
X74109Y38416D01*
X74221D01*
X77431Y39745D01*
X77510Y39825D01*
X77621Y39839D01*
X80630Y41576D01*
X80698Y41665D01*
X80806Y41694D01*
X83562Y43809D01*
X83618Y43906D01*
X83722Y43949D01*
X86178Y46405D01*
X86221Y46509D01*
X86318Y46565D01*
X88433Y49321D01*
X88462Y49429D01*
X88551Y49497D01*
X90288Y52506D01*
X90302Y52617D01*
X90382Y52696D01*
X91711Y55906D01*
Y56018D01*
X91779Y56107D01*
X92678Y59462D01*
X92664Y59573D01*
X92720Y59671D01*
X93173Y63115D01*
X93144Y63223D01*
X93187Y63327D01*
Y66800D01*
X93144Y66904D01*
X93173Y67012D01*
X92720Y70456D01*
X92664Y70553D01*
X92678Y70665D01*
X91779Y74020D01*
X91711Y74109D01*
Y74221D01*
X90382Y77431D01*
X90302Y77510D01*
X90288Y77621D01*
X88551Y80630D01*
X88462Y80698D01*
X88433Y80806D01*
X86318Y83562D01*
X86221Y83618D01*
X86178Y83722D01*
X83722Y86178D01*
X83618Y86221D01*
X83562Y86318D01*
X80806Y88433D01*
X80698Y88462D01*
X80630Y88551D01*
X77621Y90288D01*
X77510Y90302D01*
X77431Y90382D01*
X74221Y91711D01*
X74109D01*
X74020Y91779D01*
X70665Y92678D01*
X70553Y92664D01*
X70456Y92720D01*
X67012Y93173D01*
X66904Y93144D01*
X66800Y93187D01*
D02*
G37*
%LPD*%
D33*
X1306850Y754650D02*
D03*
D34*
X1308200Y661650D02*
D03*
D35*
X1306850Y779650D02*
D03*
Y804650D02*
D03*
D36*
X1192800Y759950D02*
D03*
X1193050Y804050D02*
D03*
D37*
X1308200Y686650D02*
D03*
D38*
X684109Y510768D02*
D03*
X676177Y509726D02*
D03*
X668177D02*
D03*
X663827Y495267D02*
D03*
X671827D02*
D03*
X679827D02*
D03*
X687731Y494036D02*
D03*
X1391666Y511098D02*
D03*
X1382067D02*
D03*
X1374185Y509728D02*
D03*
X1366185D02*
D03*
X1358185D02*
D03*
X1350185D02*
D03*
X1342185D02*
D03*
X1334185D02*
D03*
X1326185D02*
D03*
X1318185D02*
D03*
X1310185D02*
D03*
X1302185D02*
D03*
X1294185D02*
D03*
X1286185D02*
D03*
X1278185D02*
D03*
X1270185D02*
D03*
X1262185D02*
D03*
X1254185D02*
D03*
X1246185D02*
D03*
X1238185D02*
D03*
X1230185D02*
D03*
X1222185D02*
D03*
X1214185D02*
D03*
X1206185D02*
D03*
X1198185D02*
D03*
X1190185D02*
D03*
X1182185D02*
D03*
X1174185D02*
D03*
X1166185D02*
D03*
X1158185D02*
D03*
X1150185D02*
D03*
X1142185D02*
D03*
X1134185D02*
D03*
X1126185D02*
D03*
X1118185D02*
D03*
X1110185D02*
D03*
X1102185D02*
D03*
X1094185D02*
D03*
X1086185D02*
D03*
X1078185D02*
D03*
X1070185D02*
D03*
X1062185D02*
D03*
X1054185D02*
D03*
X1046185D02*
D03*
X1038185D02*
D03*
X1030185D02*
D03*
X1022186D02*
D03*
X1014185D02*
D03*
X1006186D02*
D03*
X998186D02*
D03*
X990185D02*
D03*
X982186D02*
D03*
X974186D02*
D03*
X966186D02*
D03*
X958186D02*
D03*
X950186D02*
D03*
X942186D02*
D03*
X934186D02*
D03*
X926186D02*
D03*
X918186D02*
D03*
X910186D02*
D03*
X902186D02*
D03*
X894186D02*
D03*
X886186D02*
D03*
X878186D02*
D03*
X870186D02*
D03*
X862186D02*
D03*
X854186D02*
D03*
X846186D02*
D03*
X838186D02*
D03*
X830186D02*
D03*
X822186D02*
D03*
X814186D02*
D03*
X806186D02*
D03*
X798186D02*
D03*
X790186D02*
D03*
X782186D02*
D03*
X774186D02*
D03*
X766186D02*
D03*
X758186D02*
D03*
X750186D02*
D03*
X742186D02*
D03*
X734186D02*
D03*
X726186D02*
D03*
X718186D02*
D03*
X710186D02*
D03*
X702267Y510860D02*
D03*
X694267Y510885D02*
D03*
X698003Y494036D02*
D03*
X705908Y495269D02*
D03*
X713908D02*
D03*
X721908D02*
D03*
X729908D02*
D03*
X737908D02*
D03*
X745908D02*
D03*
X753908D02*
D03*
X761908D02*
D03*
X769908D02*
D03*
X777908D02*
D03*
X785908D02*
D03*
X793908D02*
D03*
X801908D02*
D03*
X809908D02*
D03*
X817908D02*
D03*
X825908D02*
D03*
X833908D02*
D03*
X841908D02*
D03*
X849908D02*
D03*
X857907D02*
D03*
X865908D02*
D03*
X873907D02*
D03*
X881908D02*
D03*
X889908D02*
D03*
X897907D02*
D03*
X905907D02*
D03*
X913907D02*
D03*
X921907D02*
D03*
X929907D02*
D03*
X937907D02*
D03*
X945907D02*
D03*
X953907D02*
D03*
X961907D02*
D03*
X969907D02*
D03*
X977907D02*
D03*
X985907D02*
D03*
X993907D02*
D03*
X1001907D02*
D03*
X1009907D02*
D03*
X1017907D02*
D03*
X1025907D02*
D03*
X1033907D02*
D03*
X1041907D02*
D03*
X1049907D02*
D03*
X1057907D02*
D03*
X1065907D02*
D03*
X1073907D02*
D03*
X1081907D02*
D03*
X1089907D02*
D03*
X1097907D02*
D03*
X1105907D02*
D03*
X1113907D02*
D03*
X1121907D02*
D03*
X1129907D02*
D03*
X1137907D02*
D03*
X1145907D02*
D03*
X1153907D02*
D03*
X1161907D02*
D03*
X1169907D02*
D03*
X1177907D02*
D03*
X1185907D02*
D03*
X1193907D02*
D03*
X1201907D02*
D03*
X1209907D02*
D03*
X1217907D02*
D03*
X1225907D02*
D03*
X1233907D02*
D03*
X1241907D02*
D03*
X1249907D02*
D03*
X1257907D02*
D03*
X1265907D02*
D03*
X1273907D02*
D03*
X1281907D02*
D03*
X1289907D02*
D03*
X1297907D02*
D03*
X1305907D02*
D03*
X1313907D02*
D03*
X1321907D02*
D03*
X1329907D02*
D03*
X1337907D02*
D03*
X1345907D02*
D03*
X1353907D02*
D03*
X1361906D02*
D03*
X1369906D02*
D03*
X1377000Y493902D02*
D03*
X1385822D02*
D03*
X1394215D02*
D03*
X144278Y717470D02*
D03*
X144203Y282507D02*
D03*
X144192Y499866D02*
D03*
X620273Y531036D02*
D03*
X649732Y531526D02*
D03*
X620274Y523036D02*
D03*
X344430Y710210D02*
D03*
X351530D02*
D03*
X344430Y492152D02*
D03*
X351530D02*
D03*
X15128Y291098D02*
D03*
X7128D02*
D03*
X7203Y273902D02*
D03*
X15203D02*
D03*
X23184Y274446D02*
D03*
X31141Y275274D02*
D03*
X39141D02*
D03*
X47141D02*
D03*
X55141D02*
D03*
X63141D02*
D03*
X71141D02*
D03*
X79141D02*
D03*
X87141D02*
D03*
X95141D02*
D03*
X103141D02*
D03*
X111141D02*
D03*
X119141Y275317D02*
D03*
X102891Y289733D02*
D03*
X94891D02*
D03*
X86891D02*
D03*
X78891D02*
D03*
X70891D02*
D03*
X62891D02*
D03*
X54891D02*
D03*
X46891D02*
D03*
X38891D02*
D03*
X30891D02*
D03*
X22951Y290710D02*
D03*
X250992Y272217D02*
D03*
X249194Y293103D02*
D03*
X240698Y289737D02*
D03*
X232698D02*
D03*
X224698D02*
D03*
X216698D02*
D03*
X208698D02*
D03*
X200698D02*
D03*
X192698D02*
D03*
X184698D02*
D03*
X167675Y292164D02*
D03*
X170185Y275244D02*
D03*
X178185Y275278D02*
D03*
X186185D02*
D03*
X194185D02*
D03*
X202185D02*
D03*
X210185D02*
D03*
X218185D02*
D03*
X226185D02*
D03*
X234185D02*
D03*
X242185D02*
D03*
X255778Y292791D02*
D03*
X270486Y275194D02*
D03*
X278486D02*
D03*
X286486Y275240D02*
D03*
X294486Y275274D02*
D03*
X274037Y289654D02*
D03*
X266140Y292791D02*
D03*
X248741Y707526D02*
D03*
X262578Y709040D02*
D03*
X270494Y710196D02*
D03*
X278494D02*
D03*
X286494Y710232D02*
D03*
X294494Y710196D02*
D03*
X274039Y724656D02*
D03*
X266140Y727639D02*
D03*
X249636D02*
D03*
X240836Y724730D02*
D03*
X232836D02*
D03*
X224836D02*
D03*
X216836D02*
D03*
X208836D02*
D03*
X200836D02*
D03*
X192836D02*
D03*
X184836D02*
D03*
X167683Y727740D02*
D03*
X170185Y710236D02*
D03*
X178185Y710270D02*
D03*
X186185D02*
D03*
X194185D02*
D03*
X202185D02*
D03*
X210185D02*
D03*
X218185D02*
D03*
X226185D02*
D03*
X234185D02*
D03*
X242185D02*
D03*
X257764Y727639D02*
D03*
X14991Y726098D02*
D03*
X6991D02*
D03*
X7334Y708902D02*
D03*
X15334D02*
D03*
X23309Y709530D02*
D03*
X31275Y710270D02*
D03*
X39275D02*
D03*
X47275D02*
D03*
X55275D02*
D03*
X63275D02*
D03*
X71275D02*
D03*
X79275D02*
D03*
X87275D02*
D03*
X95275D02*
D03*
X103275D02*
D03*
X111275D02*
D03*
X119275Y710310D02*
D03*
X102890Y724730D02*
D03*
X94890D02*
D03*
X86890D02*
D03*
X78891D02*
D03*
X70890D02*
D03*
X62891D02*
D03*
X54890D02*
D03*
X46891D02*
D03*
X38891D02*
D03*
X30891D02*
D03*
X22951Y725710D02*
D03*
X15148Y508598D02*
D03*
X7148D02*
D03*
X7183Y491402D02*
D03*
X15183D02*
D03*
X23622Y489458D02*
D03*
X31121Y492770D02*
D03*
X39121D02*
D03*
X47121D02*
D03*
X55121D02*
D03*
X63121D02*
D03*
X71121D02*
D03*
X79121D02*
D03*
X87121D02*
D03*
X95121D02*
D03*
X103121D02*
D03*
X111121D02*
D03*
X119121Y492733D02*
D03*
X102890Y507230D02*
D03*
X94890D02*
D03*
X86890D02*
D03*
X78891D02*
D03*
X70890D02*
D03*
X62891D02*
D03*
X54890D02*
D03*
X46891D02*
D03*
X38891D02*
D03*
X30891D02*
D03*
X23368Y510794D02*
D03*
X250778Y509616D02*
D03*
X248666Y490474D02*
D03*
X258318Y509616D02*
D03*
X255778Y491301D02*
D03*
X262566Y491540D02*
D03*
X270484Y492678D02*
D03*
X278484D02*
D03*
X286484Y492684D02*
D03*
X294483Y492837D02*
D03*
X274320Y507746D02*
D03*
X266140Y509616D02*
D03*
X240671Y507230D02*
D03*
X232671D02*
D03*
X224671D02*
D03*
X216671D02*
D03*
X208671D02*
D03*
X200671D02*
D03*
X192671D02*
D03*
X184671D02*
D03*
X167754Y509780D02*
D03*
X170185Y492736D02*
D03*
X178185Y492770D02*
D03*
X186185D02*
D03*
X194185D02*
D03*
X202185D02*
D03*
X210185D02*
D03*
X218185D02*
D03*
X226185D02*
D03*
X234185D02*
D03*
X242185D02*
D03*
X255778Y706252D02*
D03*
X262325Y272217D02*
D03*
X407102Y274218D02*
D03*
X358255Y289820D02*
D03*
X367184Y275362D02*
D03*
X359184D02*
D03*
X399184D02*
D03*
X398255Y289820D02*
D03*
X375184Y275362D02*
D03*
X366255Y289820D02*
D03*
X374255D02*
D03*
X382255D02*
D03*
X390255D02*
D03*
X391184Y275362D02*
D03*
X383184D02*
D03*
X351184D02*
D03*
X343185Y275271D02*
D03*
X406146Y291138D02*
D03*
X359377Y492659D02*
D03*
X358093Y507117D02*
D03*
X636464Y500388D02*
D03*
X632865Y442537D02*
D03*
X631445Y434664D02*
D03*
X629582Y426884D02*
D03*
X627510Y419157D02*
D03*
X624984Y411566D02*
D03*
X622163Y404080D02*
D03*
X619102Y396689D02*
D03*
X615559Y389516D02*
D03*
X611823Y382442D02*
D03*
X607741Y375562D02*
D03*
X603329Y368889D02*
D03*
X598737Y362338D02*
D03*
X593717Y356109D02*
D03*
X588505Y350040D02*
D03*
X583054Y344185D02*
D03*
X577270Y338658D02*
D03*
X571339Y333289D02*
D03*
X565110Y328269D02*
D03*
X558680Y323509D02*
D03*
X552108Y318947D02*
D03*
X545242Y314842D02*
D03*
X538267Y310924D02*
D03*
X531113Y307343D02*
D03*
X523787Y304129D02*
D03*
X516377Y301114D02*
D03*
X508787Y298588D02*
D03*
X501116Y296316D02*
D03*
X493364Y294337D02*
D03*
X485508Y292830D02*
D03*
X477613Y291536D02*
D03*
X469659Y290681D02*
D03*
X461675Y290168D02*
D03*
X453681Y289883D02*
D03*
X445681Y289907D02*
D03*
X437681D02*
D03*
X429681D02*
D03*
X421758Y291018D02*
D03*
X413759Y291090D02*
D03*
X417266Y274218D02*
D03*
X425171Y275449D02*
D03*
X433171D02*
D03*
X441171D02*
D03*
X449171D02*
D03*
X457171Y275495D02*
D03*
X465166Y275781D02*
D03*
X473136Y276468D02*
D03*
X481090Y277323D02*
D03*
X488968Y278717D02*
D03*
X496819Y280251D02*
D03*
X504571Y282230D02*
D03*
X512254Y284457D02*
D03*
X519845Y286983D02*
D03*
X527300Y289886D02*
D03*
X534691Y292948D02*
D03*
X541858Y296503D02*
D03*
X548960Y300184D02*
D03*
X555840Y304266D02*
D03*
X562587Y308566D02*
D03*
X569158Y313129D02*
D03*
X575494Y318012D02*
D03*
X581724Y323032D02*
D03*
X587600Y328460D02*
D03*
X593379Y333992D02*
D03*
X598830Y339847D02*
D03*
X604094Y345872D02*
D03*
X609114Y352101D02*
D03*
X613820Y358570D02*
D03*
X618382Y365141D02*
D03*
X622494Y372004D02*
D03*
X626482Y378939D02*
D03*
X630063Y386093D02*
D03*
X633418Y393355D02*
D03*
X636480Y400746D02*
D03*
X639175Y408279D02*
D03*
X641701Y415869D02*
D03*
X643715Y423611D02*
D03*
X645591Y431389D02*
D03*
X647011Y439261D02*
D03*
X648187Y447174D02*
D03*
X649042Y455129D02*
D03*
X649508Y463115D02*
D03*
X649794Y471110D02*
D03*
X649726Y479110D02*
D03*
X648910Y487068D02*
D03*
X535979Y558296D02*
D03*
X530074Y555200D02*
D03*
X523382Y550815D02*
D03*
X517945Y544947D02*
D03*
X514319Y537816D02*
D03*
X512621Y529999D02*
D03*
X512233Y522008D02*
D03*
X509412Y514522D02*
D03*
X503422Y509219D02*
D03*
X495702Y507120D02*
D03*
X487702Y507077D02*
D03*
X479702D02*
D03*
X471703D02*
D03*
X463703D02*
D03*
X455703D02*
D03*
X447703D02*
D03*
X439703D02*
D03*
X431703D02*
D03*
X423721Y507623D02*
D03*
X415751Y508308D02*
D03*
X415932Y491388D02*
D03*
X423892Y492187D02*
D03*
X431880Y492619D02*
D03*
X439880D02*
D03*
X447880D02*
D03*
X455880D02*
D03*
X463880D02*
D03*
X471880D02*
D03*
X479880D02*
D03*
X487880D02*
D03*
X495880Y492608D02*
D03*
X503791Y493801D02*
D03*
X511157Y496921D02*
D03*
X517530Y501757D02*
D03*
X522431Y508080D02*
D03*
X525650Y515404D02*
D03*
X526897Y523306D02*
D03*
X527492Y531284D02*
D03*
X531277Y538332D02*
D03*
X537928Y542778D02*
D03*
X545887Y543588D02*
D03*
X553419Y540891D02*
D03*
X559040Y535199D02*
D03*
X561673Y527644D02*
D03*
X561885Y519647D02*
D03*
Y511647D02*
D03*
Y503647D02*
D03*
Y495647D02*
D03*
Y487647D02*
D03*
Y479647D02*
D03*
X562170Y471652D02*
D03*
X564029Y463871D02*
D03*
X567578Y456701D02*
D03*
X572555Y450438D02*
D03*
X578817Y445460D02*
D03*
X585986Y441910D02*
D03*
X593767Y440048D02*
D03*
X601766Y439963D02*
D03*
X609605Y441561D02*
D03*
X616877Y444896D02*
D03*
X623290Y449678D02*
D03*
X628469Y455775D02*
D03*
X632170Y462868D02*
D03*
X620775Y483375D02*
D03*
X620191Y475396D02*
D03*
X618429Y467593D02*
D03*
X614032Y460909D02*
D03*
X607489Y456307D02*
D03*
X599731Y454351D02*
D03*
X591782Y455251D02*
D03*
X584723Y459015D02*
D03*
X579471Y465050D02*
D03*
X576681Y472547D02*
D03*
X576343Y480540D02*
D03*
Y488540D02*
D03*
Y496540D02*
D03*
Y504540D02*
D03*
Y512540D02*
D03*
Y520540D02*
D03*
X576161Y528538D02*
D03*
X574487Y536361D02*
D03*
X570903Y543513D02*
D03*
X565720Y549607D02*
D03*
X559226Y554279D02*
D03*
X551773Y557187D02*
D03*
X543850Y558296D02*
D03*
X406003Y508308D02*
D03*
X398093Y507117D02*
D03*
X390093D02*
D03*
X382093D02*
D03*
X374093D02*
D03*
X366093D02*
D03*
X367377Y492659D02*
D03*
X375377D02*
D03*
X383377D02*
D03*
X391377D02*
D03*
X399377D02*
D03*
X407275Y491388D02*
D03*
X406146Y725986D02*
D03*
X398255Y724668D02*
D03*
X390255D02*
D03*
X382255D02*
D03*
X374255D02*
D03*
X366255D02*
D03*
X358255D02*
D03*
X359184Y710210D02*
D03*
X367184D02*
D03*
X375184D02*
D03*
X383184D02*
D03*
X391184D02*
D03*
X399184D02*
D03*
X407102Y709066D02*
D03*
X414986D02*
D03*
Y725986D02*
D03*
X424098Y710118D02*
D03*
X432096Y710297D02*
D03*
X440096D02*
D03*
X448096D02*
D03*
X456096D02*
D03*
X464096D02*
D03*
X472096D02*
D03*
X480092Y710034D02*
D03*
X488068Y709421D02*
D03*
X496011Y708464D02*
D03*
X503857Y706903D02*
D03*
X511624Y704987D02*
D03*
X519301Y702735D02*
D03*
X526806Y699967D02*
D03*
X534153Y696799D02*
D03*
X541354Y693316D02*
D03*
X548334Y689407D02*
D03*
X555059Y685074D02*
D03*
X561590Y680454D02*
D03*
X567873Y675501D02*
D03*
X573794Y670121D02*
D03*
X579476Y664490D02*
D03*
X584906Y658615D02*
D03*
X589861Y652334D02*
D03*
X594540Y645845D02*
D03*
X598933Y639159D02*
D03*
X602842Y632179D02*
D03*
X606390Y625009D02*
D03*
X609623Y617692D02*
D03*
X612392Y610186D02*
D03*
X614712Y602530D02*
D03*
X616698Y594780D02*
D03*
X618259Y586934D02*
D03*
X619288Y579001D02*
D03*
X619972Y571030D02*
D03*
X620287Y563036D02*
D03*
X620271Y555036D02*
D03*
X620272Y547036D02*
D03*
X620272Y539036D02*
D03*
X620838Y515056D02*
D03*
X635000Y531036D02*
D03*
Y539036D02*
D03*
X634731Y546865D02*
D03*
X634730Y554865D02*
D03*
X634795Y562864D02*
D03*
X634493Y570859D02*
D03*
X633912Y578837D02*
D03*
X632971Y586782D02*
D03*
X631512Y594648D02*
D03*
X629800Y602462D02*
D03*
X627629Y610162D02*
D03*
X625064Y617740D02*
D03*
X622257Y625231D02*
D03*
X618908Y632496D02*
D03*
X615291Y639632D02*
D03*
X611382Y646612D02*
D03*
X606999Y653304D02*
D03*
X602403Y659852D02*
D03*
X597450Y666135D02*
D03*
X592159Y672135D02*
D03*
X586677Y677962D02*
D03*
X580802Y683392D02*
D03*
X574711Y688578D02*
D03*
X568428Y693531D02*
D03*
X561801Y698012D02*
D03*
X555033Y702277D02*
D03*
X548054Y706186D02*
D03*
X540856Y709678D02*
D03*
X533550Y712937D02*
D03*
X526044Y715706D02*
D03*
X518423Y718138D02*
D03*
X510722Y720307D02*
D03*
X502879Y721884D02*
D03*
X494990Y723206D02*
D03*
X487045Y724147D02*
D03*
X479057Y724589D02*
D03*
X471059Y724755D02*
D03*
X463059D02*
D03*
X455059D02*
D03*
X447059D02*
D03*
X439059D02*
D03*
X431059D02*
D03*
X423104Y725598D02*
D03*
X700788Y590135D02*
D03*
X692788D02*
D03*
X684788D02*
D03*
X676788D02*
D03*
X668788D02*
D03*
X660830Y589323D02*
D03*
X653278Y586683D02*
D03*
X646646Y582209D02*
D03*
X641217Y576333D02*
D03*
X649731Y539526D02*
D03*
X649731Y547526D02*
D03*
X649730Y555526D02*
D03*
X650805Y563453D02*
D03*
X654984Y570275D02*
D03*
X661752Y574540D02*
D03*
X669671Y575677D02*
D03*
X677671D02*
D03*
X685671D02*
D03*
X693671D02*
D03*
X701671D02*
D03*
X768100Y593700D02*
D03*
X759968Y592328D02*
D03*
X753187Y590136D02*
D03*
X745187D02*
D03*
X737187D02*
D03*
X729187D02*
D03*
X721282Y591366D02*
D03*
X710264D02*
D03*
X710478Y574446D02*
D03*
X722252D02*
D03*
X730157Y575676D02*
D03*
X738157D02*
D03*
X746157D02*
D03*
X754157D02*
D03*
X759968Y572008D02*
D03*
X768100D02*
D03*
X775970D02*
D03*
X782574Y577004D02*
D03*
Y588518D02*
D03*
X775970Y593700D02*
D03*
X6604Y240636D02*
D03*
Y229460D02*
D03*
X16510D02*
D03*
Y240636D02*
D03*
X26416D02*
D03*
Y229460D02*
D03*
X36322Y240636D02*
D03*
Y229460D02*
D03*
X46228Y240636D02*
D03*
Y229460D02*
D03*
X6604Y335636D02*
D03*
Y324460D02*
D03*
X16510D02*
D03*
Y335636D02*
D03*
X26416D02*
D03*
Y324460D02*
D03*
X36322Y335636D02*
D03*
Y324460D02*
D03*
X46228Y335636D02*
D03*
Y324460D02*
D03*
X6604Y458136D02*
D03*
Y446960D02*
D03*
X16510D02*
D03*
Y458136D02*
D03*
X26416D02*
D03*
Y446960D02*
D03*
X36322Y458136D02*
D03*
Y446960D02*
D03*
X46228Y458136D02*
D03*
Y446960D02*
D03*
X6604Y553136D02*
D03*
Y541960D02*
D03*
X16510D02*
D03*
Y553136D02*
D03*
X26416D02*
D03*
Y541960D02*
D03*
X36322Y553136D02*
D03*
Y541960D02*
D03*
X46228Y553136D02*
D03*
Y541960D02*
D03*
X6604Y675636D02*
D03*
Y664460D02*
D03*
X16510D02*
D03*
Y675636D02*
D03*
X26416D02*
D03*
Y664460D02*
D03*
X36322Y675636D02*
D03*
Y664460D02*
D03*
X46228Y675636D02*
D03*
Y664460D02*
D03*
Y759460D02*
D03*
Y770636D02*
D03*
X36322Y759460D02*
D03*
Y770636D02*
D03*
X26416Y759460D02*
D03*
Y770636D02*
D03*
X16510D02*
D03*
Y759460D02*
D03*
X6604D02*
D03*
Y770636D02*
D03*
X317506Y282504D02*
D03*
Y717352D02*
D03*
Y499928D02*
D03*
X1394215Y446960D02*
D03*
Y458136D02*
D03*
X1384309Y446960D02*
D03*
Y458136D02*
D03*
X1374403Y446960D02*
D03*
Y458136D02*
D03*
X1364497D02*
D03*
Y446960D02*
D03*
X1354591D02*
D03*
Y458136D02*
D03*
X1394215Y541960D02*
D03*
Y553136D02*
D03*
X1384309Y541960D02*
D03*
Y553136D02*
D03*
X1374403Y541960D02*
D03*
Y553136D02*
D03*
X1364497D02*
D03*
Y541960D02*
D03*
X1354591D02*
D03*
Y553136D02*
D03*
X175789Y372750D02*
D03*
X175789Y822600D02*
D03*
X175789Y586750D02*
D03*
X590844Y562683D02*
D03*
X593852Y492228D02*
D03*
X348234Y822600D02*
D03*
X603504Y498324D02*
D03*
X348150Y372750D02*
D03*
X347650Y586750D02*
D03*
M02*
